<svg width="30" height="31" viewBox="0 0 30 31" fill="none" xmlns="http://www.w3.org/2000/svg">
<path d="M5.5648 21.5833H26.64V3.08333H2.96V23.7417L5.5648 21.5833ZM6.6008 24.6667L0 30.0625V1.54167C0 1.13056 0.143067 0.770832 0.4292 0.4625C0.715333 0.154167 1.0656 0 1.48 0H28.12C28.5344 0 28.8847 0.154167 29.1708 0.4625C29.4569 0.770832 29.6 1.13056 29.6 1.54167V23.125C29.6 23.5567 29.4569 23.9267 29.1708 24.235C28.8847 24.5433 28.5344 24.6872 28.12 24.6667H6.6008ZM13.32 16.9583H16.28V20.0417H13.32V16.9583ZM9.7088 8.9725C9.86667 8.15028 10.1923 7.41028 10.6856 6.7525C11.1789 6.09472 11.7808 5.5757 12.4912 5.19542C13.2016 4.81514 13.9712 4.625 14.8 4.625C15.7472 4.64556 16.6155 4.89736 17.4048 5.38042C18.1941 5.86347 18.8207 6.51611 19.2844 7.33833C19.7481 8.16055 19.98 9.05986 19.98 10.0362C19.98 11.0126 19.7481 11.9119 19.2844 12.7342C18.8207 13.5564 18.1941 14.2142 17.4048 14.7075C16.6155 15.2008 15.7472 15.4475 14.8 15.4475H13.32V12.3333H14.8C15.4117 12.3333 15.9347 12.1124 16.3688 11.6704C16.8029 11.2285 17.02 10.6838 17.02 10.0362C17.02 9.38875 16.8029 8.84403 16.3688 8.40208C15.9347 7.96014 15.4117 7.73917 14.8 7.73917C14.2672 7.73917 13.7985 7.91389 13.394 8.26333C12.9895 8.61278 12.728 9.05472 12.6096 9.58917L9.7088 8.9725Z" fill="#25252B"/>
</svg>
