<svg width="22" height="26" viewBox="0 0 22 26" fill="none" xmlns="http://www.w3.org/2000/svg">
<path d="M6.55556 7.79974H15.4444M6.55556 13.2395H13.2222M17.6667 1C18.5507 1 19.3986 1.42984 20.0237 2.19496C20.6488 2.96008 21 3.9978 21 5.07984V15.9594C21 17.0415 20.6488 18.0792 20.0237 18.8443C19.3986 19.6094 18.5507 20.0393 17.6667 20.0393H12.1111L6.55556 24.1191V20.0393H4.33333C3.44928 20.0393 2.60143 19.6094 1.97631 18.8443C1.35119 18.0792 1 17.0415 1 15.9594V5.07984C1 3.9978 1.35119 2.96008 1.97631 2.19496C2.60143 1.42984 3.44928 1 4.33333 1H17.6667Z" stroke="#374151" stroke-width="2" stroke-linecap="round" stroke-linejoin="round"/>
</svg>
