<svg width="15" height="17" viewBox="0 0 15 17" fill="none" xmlns="http://www.w3.org/2000/svg">
<path d="M14.1631 16.6667H0.833125C0.59985 16.6667 0.402677 16.5861 0.241606 16.425C0.0805354 16.2639 0 16.0667 0 15.8333V0.833334C0 0.6 0.0805354 0.402779 0.241606 0.241667C0.402677 0.080555 0.59985 0 0.833125 0H14.1631C14.3964 0 14.5936 0.080555 14.7546 0.241667C14.9157 0.402779 14.9963 0.6 14.9963 0.833334V15.8333C14.9963 16.0667 14.9157 16.2639 14.7546 16.425C14.5936 16.5861 14.3964 16.6667 14.1631 16.6667ZM13.33 15V1.66667H1.66625V15H13.33ZM4.16563 4.16667H10.8306V5.83333H4.16563V4.16667ZM4.16563 7.5H10.8306V9.16667H4.16563V7.5ZM4.16563 10.8333H10.8306V12.5H4.16563V10.8333Z" fill="#2563EB"/>
</svg>
