<svg width="15" height="17" viewBox="0 0 15 17" fill="none" xmlns="http://www.w3.org/2000/svg">
<path d="M13.33 6.66667H14.1631C14.3964 6.66667 14.5936 6.74722 14.7546 6.90833C14.9157 7.06944 14.9963 7.26667 14.9963 7.5V15.8333C14.9963 16.0667 14.9157 16.2639 14.7546 16.425C14.5936 16.5861 14.3964 16.6667 14.1631 16.6667H0.833125C0.59985 16.6667 0.402677 16.5861 0.241606 16.425C0.0805354 16.2639 0 16.0667 0 15.8333V7.5C0 7.26667 0.0805354 7.06944 0.241606 6.90833C0.402677 6.74722 0.59985 6.66667 0.833125 6.66667H1.66625V5.83333C1.66625 4.77778 1.93285 3.79445 2.46605 2.88333C2.97703 2.00556 3.6713 1.31111 4.54886 0.8C5.45975 0.266666 6.44283 0 7.49813 0C8.55342 0 9.5365 0.266666 10.4474 0.8C11.3249 1.31111 12.0192 2.00556 12.5302 2.88333C13.0634 3.79445 13.33 4.77778 13.33 5.83333V6.66667ZM1.66625 8.33333V15H13.33V8.33333H1.66625ZM6.665 10H8.33125V13.3333H6.665V10ZM11.6638 6.66667V5.83333C11.6638 5.07778 11.4777 4.38056 11.1056 3.74167C10.7334 3.10278 10.228 2.59722 9.58927 2.225C8.95054 1.85278 8.25349 1.66667 7.49813 1.66667C6.74276 1.66667 6.04571 1.85278 5.40698 2.225C4.76825 2.59722 4.26282 3.10278 3.89069 3.74167C3.51856 4.38056 3.3325 5.07778 3.3325 5.83333V6.66667H11.6638Z" fill="#4B5563"/>
</svg>
