<svg width="17" height="17" viewBox="0 0 17 17" fill="none" xmlns="http://www.w3.org/2000/svg">
<path d="M8.33125 16.6667C7.1982 16.6667 6.11514 16.45 5.08206 16.0167C4.09342 15.5944 3.21309 14.9972 2.44106 14.225C1.66903 13.4528 1.07195 12.5722 0.649838 11.5833C0.216613 10.55 0 9.46667 0 8.33333C0 7.2 0.216613 6.11667 0.649838 5.08333C1.07195 4.09444 1.66903 3.21389 2.44106 2.44167C3.21309 1.66945 4.09342 1.07222 5.08206 0.65C6.11514 0.216667 7.1982 0 8.33125 0C9.4643 0 10.5474 0.216667 11.5804 0.65C12.5691 1.07222 13.4494 1.66945 14.2214 2.44167C14.9935 3.21389 15.5905 4.09444 16.0127 5.08333C16.4459 6.11667 16.6625 7.2 16.6625 8.33333C16.6625 9.46667 16.4459 10.55 16.0127 11.5833C15.5905 12.5722 14.9935 13.4528 14.2214 14.225C13.4494 14.9972 12.5691 15.5944 11.5804 16.0167C10.5474 16.45 9.4643 16.6667 8.33125 16.6667ZM8.33125 15C9.54206 15 10.664 14.6944 11.6971 14.0833C12.6968 13.4944 13.4911 12.7 14.0798 11.7C14.6908 10.6667 14.9963 9.54444 14.9963 8.33333C14.9963 7.12222 14.6908 6 14.0798 4.96667C13.4911 3.96667 12.6968 3.17222 11.6971 2.58333C10.664 1.97222 9.54206 1.66667 8.33125 1.66667C7.12044 1.66667 5.9985 1.97222 4.96543 2.58333C3.96568 3.17222 3.17143 3.96667 2.58269 4.96667C1.97173 6 1.66625 7.12222 1.66625 8.33333C1.66625 9.54444 1.97173 10.6667 2.58269 11.7C3.17143 12.7 3.96568 13.4944 4.96543 14.0833C5.9985 14.6944 7.12044 15 8.33125 15ZM7.49813 11.6667L3.96568 8.13333L5.14871 6.95L7.49813 9.31667L12.2136 4.6L13.3967 5.76667L7.49813 11.6667Z" fill="#16A34A"/>
</svg>
