<svg width="13" height="14" viewBox="0 0 13 14" fill="none" xmlns="http://www.w3.org/2000/svg">
<path d="M4.48 0V1.33333H8.32V0H9.6V1.33333H12.16C12.3392 1.33333 12.4907 1.39778 12.6144 1.52667C12.7381 1.65556 12.8 1.81333 12.8 2V12.6667C12.8 12.8533 12.7381 13.0111 12.6144 13.14C12.4907 13.2689 12.3392 13.3333 12.16 13.3333H0.64C0.4608 13.3333 0.309333 13.2689 0.1856 13.14C0.0618667 13.0111 0 12.8533 0 12.6667V2C0 1.81333 0.0618667 1.65556 0.1856 1.52667C0.309333 1.39778 0.4608 1.33333 0.64 1.33333H3.2V0H4.48ZM11.52 6H1.28V12H11.52V6ZM8.3456 6.76L9.2416 7.70667L6.08 11L3.8144 8.64L4.7232 7.70667L6.08 9.12L8.3456 6.76ZM3.2 2.66667H1.28V4.66667H11.52V2.66667H9.6V3.33333H8.32V2.66667H4.48V3.33333H3.2V2.66667Z" fill="white"/>
</svg>
