<svg width="28" height="28" viewBox="0 0 28 28" fill="none" xmlns="http://www.w3.org/2000/svg">
<mask id="mask0_7447_14431" style="mask-type:luminance" maskUnits="userSpaceOnUse" x="0" y="0" width="28" height="28">
<path d="M28 0H0V28H28V0Z" fill="white"/>
</mask>
<g mask="url(#mask0_7447_14431)">
<path fill-rule="evenodd" clip-rule="evenodd" d="M14.0009 0.777588C8.24831 0.777588 3.53762 5.23843 3.13928 10.8896H2.60828C1.7481 10.8896 1.05078 11.587 1.05078 12.4471V16.1632C1.05078 18.8349 3.21663 21.0008 5.88834 21.0008C6.65291 21.0008 7.27272 20.381 7.27272 19.6164V16.9944H10.3852L11.6255 18.5448C11.688 18.6229 11.7613 18.6917 11.8433 18.7491C12.3183 19.0816 12.973 18.9661 13.3056 18.491L15.2237 15.7509L15.9033 16.6004C16.1025 16.8495 16.4042 16.9944 16.7232 16.9944H20.7208V19.6168C20.7208 20.2602 21.1599 20.8011 21.7549 20.9561C21.7159 21.0439 21.6753 21.1302 21.6331 21.2148C21.1677 22.1486 20.5006 22.8974 19.6321 23.4614C18.7535 24.0319 17.6625 24.4188 16.3593 24.622C16.0395 24.1107 15.4789 23.8002 14.8758 23.8002H13.1258C12.1593 23.8002 11.3758 24.5837 11.3758 25.5502C11.3758 26.5167 12.1593 27.3002 13.1258 27.3002H14.8758C15.5187 27.3002 16.1098 26.9477 16.4154 26.3821C18.0596 26.1508 19.4496 25.6664 20.5851 24.9291C21.7205 24.1919 22.5919 23.214 23.1993 21.9955C23.3976 21.5977 23.5667 21.1756 23.7067 20.7293C25.5913 20.0682 26.9427 18.2733 26.9427 16.1628V12.4452C26.9427 11.5861 26.2463 10.8896 25.3872 10.8896H24.8625C24.4641 5.23843 19.7535 0.777588 14.0009 0.777588ZM5.71522 10.8896H5.47058C5.63599 8.85724 6.46149 7.09824 7.94707 5.61266C9.61878 3.94095 11.6367 3.10509 14.0009 3.10509C16.365 3.10509 18.383 3.94095 20.0547 5.61266C21.5403 7.09824 22.3658 8.85724 22.5312 10.8896H22.2783C21.4181 10.8896 20.7208 11.587 20.7208 12.4471V14.8944H17.2278L15.9875 13.3441C15.8136 13.1266 15.5604 12.9872 15.2836 12.9564C15.0068 12.9257 14.7292 13.0061 14.5117 13.1801C14.4336 13.2426 14.3648 13.3159 14.3074 13.3979L12.3893 16.138L11.7098 15.2885C11.5105 15.0394 11.2088 14.8944 10.8898 14.8944H7.27272V12.4471C7.27272 11.587 6.5754 10.8896 5.71522 10.8896ZM3.15078 16.1632C3.15078 16.9192 3.41805 17.5644 3.95259 18.0989C4.30985 18.4562 4.71656 18.6941 5.17272 18.8126V12.9896H3.15078V16.1632ZM22.8208 12.9896V18.8125C23.2769 18.6939 23.6836 18.4561 24.0408 18.0988C24.5754 17.5642 24.8427 16.9189 24.8427 16.1628V12.9896H22.8208Z" fill="white"/>
</g>
</svg>
