<svg width="35" height="39" viewBox="0 0 35 39" fill="none" xmlns="http://www.w3.org/2000/svg">
<path d="M17.5 0C27.1653 0 35 7.83475 35 17.5C35 27.1653 27.1653 35 17.5 35C7.83475 35 0 27.1653 0 17.5C0 7.83475 7.83475 0 17.5 0ZM17.5 3.5C13.787 3.5 10.226 4.975 7.60051 7.60051C4.975 10.226 3.5 13.787 3.5 17.5C3.5 21.213 4.975 24.774 7.60051 27.3995C10.226 30.025 13.787 31.5 17.5 31.5C21.213 31.5 24.774 30.025 27.3995 27.3995C30.025 24.774 31.5 21.213 31.5 17.5C31.5 13.787 30.025 10.226 27.3995 7.60051C24.774 4.975 21.213 3.5 17.5 3.5ZM17.5 7C17.9286 7.00006 18.3423 7.15742 18.6627 7.44225C18.983 7.72708 19.1876 8.11956 19.2378 8.54525L19.25 8.75V16.7755L23.9873 21.5128C24.3011 21.8277 24.4833 22.2503 24.4969 22.6947C24.5105 23.1391 24.3544 23.572 24.0603 23.9055C23.7663 24.239 23.3563 24.448 22.9137 24.4902C22.4711 24.5324 22.029 24.4045 21.6773 24.1325L21.5128 23.9873L16.2628 18.7373C15.9908 18.465 15.8161 18.1108 15.7658 17.7293L15.75 17.5V8.75C15.75 8.28587 15.9344 7.84075 16.2626 7.51256C16.5908 7.18438 17.0359 7 17.5 7Z" fill="black"/>
</svg>
