<svg width="19" height="18" viewBox="0 0 19 18" fill="none" xmlns="http://www.w3.org/2000/svg">
<path d="M9.00801 1.5C9.98806 1.5 10.9249 1.675 11.8184 2.025C12.6736 2.365 13.435 2.8425 14.1028 3.4575C14.7706 4.0725 15.2871 4.775 15.6522 5.565C16.0269 6.395 16.2143 7.26 16.2143 8.16C16.2143 8.92 16.0317 9.625 15.6666 10.275C15.3111 10.895 14.8307 11.39 14.2253 11.76C13.6104 12.14 12.9378 12.33 12.2076 12.33H10.7952C10.4589 12.33 10.1754 12.4525 9.94482 12.6975C9.71422 12.9425 9.59892 13.24 9.59892 13.59C9.59892 13.9 9.69981 14.175 9.90158 14.415C10.1034 14.655 10.2042 14.935 10.2042 15.255C10.2042 15.595 10.0865 15.8875 9.85114 16.1325C9.61574 16.3775 9.33469 16.5 9.00801 16.5C8.02796 16.5 7.09115 16.305 6.19757 15.915C5.34243 15.535 4.58097 14.9975 3.91319 14.3025C3.24541 13.6075 2.72896 12.815 2.36385 11.925C1.98912 10.995 1.80176 10.02 1.80176 9C1.80176 7.98 1.98912 7.005 2.36385 6.075C2.72896 5.185 3.24541 4.3925 3.91319 3.6975C4.58097 3.0025 5.34243 2.465 6.19757 2.085C7.09115 1.695 8.02796 1.5 9.00801 1.5ZM8.15767 13.59C8.15767 13.09 8.27537 12.63 8.51078 12.21C8.74618 11.79 9.06566 11.455 9.46921 11.205C9.87276 10.955 10.3147 10.83 10.7952 10.83H12.2076C12.6688 10.83 13.0964 10.71 13.4903 10.47C13.8842 10.23 14.1965 9.9075 14.4271 9.5025C14.6577 9.0975 14.773 8.65 14.773 8.16C14.773 7.24 14.5136 6.38 13.9947 5.58C13.4855 4.8 12.7985 4.18 11.9337 3.72C11.0402 3.24 10.0673 3 9.01521 3C7.9631 3 6.99026 3.275 6.09668 3.825C5.23193 4.355 4.54494 5.07 4.0357 5.97C3.50724 6.9 3.24301 7.91 3.24301 9C3.24301 10.03 3.47841 10.995 3.94922 11.895C4.41042 12.765 5.03977 13.47 5.83726 14.01C6.65397 14.57 7.54754 14.895 8.51798 14.985C8.27777 14.545 8.15767 14.08 8.15767 13.59ZM5.7652 9C5.46734 9 5.21272 8.89 5.00133 8.67C4.78995 8.45 4.68426 8.185 4.68426 7.875C4.68426 7.565 4.78995 7.3 5.00133 7.08C5.21272 6.86 5.46734 6.75 5.7652 6.75C6.06305 6.75 6.31767 6.86 6.52906 7.08C6.74044 7.3 6.84613 7.565 6.84613 7.875C6.84613 8.185 6.74044 8.45 6.52906 8.67C6.31767 8.89 6.06305 9 5.7652 9ZM12.2508 9C11.953 9 11.6983 8.89 11.487 8.67C11.2756 8.45 11.1699 8.185 11.1699 7.875C11.1699 7.565 11.2756 7.3 11.487 7.08C11.6983 6.86 11.953 6.75 12.2508 6.75C12.5487 6.75 12.8033 6.86 13.0147 7.08C13.2261 7.3 13.3318 7.565 13.3318 7.875C13.3318 8.185 13.2261 8.45 13.0147 8.67C12.8033 8.89 12.5487 9 12.2508 9ZM9.00801 6.75C8.71015 6.75 8.45553 6.64 8.24415 6.42C8.03276 6.2 7.92707 5.935 7.92707 5.625C7.92707 5.315 8.03276 5.05 8.24415 4.83C8.45553 4.61 8.71015 4.5 9.00801 4.5C9.30587 4.5 9.56049 4.61 9.77187 4.83C9.98325 5.05 10.0889 5.315 10.0889 5.625C10.0889 5.935 9.98325 6.2 9.77187 6.42C9.56049 6.64 9.30587 6.75 9.00801 6.75Z" fill="#923D8C"/>
</svg>
