<svg width="19" height="18" viewBox="0 0 19 18" fill="none" xmlns="http://www.w3.org/2000/svg">
<path d="M12.6111 4.5H16.2143V6H14.773V15.75C14.773 15.96 14.7033 16.1375 14.564 16.2825C14.4247 16.4275 14.2542 16.5 14.0524 16.5H3.96363C3.76186 16.5 3.59131 16.4275 3.45199 16.2825C3.31267 16.1375 3.24301 15.96 3.24301 15.75V6H1.80176V4.5H5.40488V2.25C5.40488 2.04 5.47454 1.8625 5.61386 1.7175C5.75318 1.5725 5.92373 1.5 6.12551 1.5H11.8905C12.0923 1.5 12.2628 1.5725 12.4022 1.7175C12.5415 1.8625 12.6111 2.04 12.6111 2.25V4.5ZM13.3318 6H4.68426V15H13.3318V6ZM6.84613 8.25H8.28738V12.75H6.84613V8.25ZM9.72863 8.25H11.1699V12.75H9.72863V8.25ZM6.84613 3V4.5H11.1699V3H6.84613Z" fill="#DC2626"/>
</svg>
