<svg width="19" height="18" viewBox="0 0 19 18" fill="none" xmlns="http://www.w3.org/2000/svg">
<path d="M4.45334 2.67047C4.90493 2.50047 5.36853 2.47047 5.84414 2.58047C6.31976 2.69047 6.73532 2.92547 7.09083 3.28547C7.48477 3.70547 7.72017 4.20297 7.79704 4.77797C7.8739 5.35297 7.78263 5.89047 7.5232 6.39047L15.2339 14.4305L14.225 15.4805L6.49991 7.45547C6.0195 7.72547 5.50305 7.82047 4.95057 7.74047C4.39809 7.66047 3.92008 7.41547 3.51653 7.00547C3.17063 6.63547 2.94483 6.20297 2.83914 5.70797C2.73345 5.21297 2.76227 4.73047 2.92561 4.26047L4.53981 5.94047C4.7512 6.16047 5.00582 6.27047 5.30368 6.27047C5.60153 6.27047 5.85615 6.16047 6.06754 5.94047C6.27892 5.72047 6.38461 5.45547 6.38461 5.14547C6.38461 4.83547 6.27892 4.57047 6.06754 4.35047L4.45334 2.67047ZM11.919 4.08047L14.225 2.76047L15.2339 3.81047L13.9656 6.19547L12.6829 6.46547L11.1552 8.05547L10.1463 7.00547L11.674 5.40047L11.919 4.08047ZM7.09083 10.1855L8.0997 11.2355L4.28039 15.2255C4.13626 15.3655 3.96572 15.4355 3.76874 15.4355C3.57177 15.4355 3.40603 15.3655 3.27151 15.2255C3.137 15.0855 3.06493 14.9205 3.05533 14.7305C3.04572 14.5405 3.09376 14.3705 3.19945 14.2205L3.2571 14.1605L7.09083 10.1855Z" fill="#6B7280"/>
</svg>
