<svg width="19" height="18" viewBox="0 0 19 18" fill="none" xmlns="http://www.w3.org/2000/svg">
<path d="M15.4932 1.875V3.375C15.4932 5.695 15.0993 7.67 14.3114 9.3C13.5812 10.82 12.5483 11.97 11.2127 12.75C9.94441 13.5 8.48875 13.875 6.84572 13.875H4.13617C4.02087 14.555 3.96322 15.305 3.96322 16.125H2.52197C2.52197 15.105 2.60364 14.17 2.76699 13.32C2.60364 12.35 2.52197 11.035 2.52197 9.375C2.52197 8.355 2.70934 7.38 3.08406 6.45C3.44918 5.56 3.96562 4.7675 4.6334 4.0725C5.30118 3.3775 6.06264 2.84 6.91779 2.46C7.81136 2.07 8.74817 1.875 9.72822 1.875C10.0165 1.875 10.4681 1.925 11.083 2.025C11.5826 2.105 11.9766 2.155 12.2648 2.175C12.7548 2.215 13.2353 2.22 13.7061 2.19C14.273 2.14 14.8687 2.035 15.4932 1.875ZM9.72822 3.375C8.68091 3.375 7.71047 3.65 6.8169 4.2C5.95215 4.73 5.26515 5.445 4.75591 6.345C4.22745 7.275 3.96322 8.285 3.96322 9.375V10.155C4.40521 9.435 4.96249 8.765 5.63507 8.145C6.27883 7.555 7.04269 7 7.92666 6.48L8.64728 7.77C7.58076 8.41 6.72081 9.085 6.06745 9.795C5.37565 10.545 4.8616 11.405 4.52531 12.375H6.84572C8.29658 12.375 9.55767 12.045 10.629 11.385C11.7003 10.725 12.5242 9.755 13.1007 8.475C13.7061 7.145 14.0231 5.54 14.052 3.66C13.5716 3.71 13.0815 3.725 12.5819 3.705C12.1303 3.675 11.6067 3.615 11.0109 3.525C10.5882 3.455 10.3047 3.4125 10.1606 3.3975C10.0165 3.3825 9.87235 3.375 9.72822 3.375Z" fill="#923D8C"/>
</svg>
