<svg width="19" height="18" viewBox="0 0 19 18" fill="none" xmlns="http://www.w3.org/2000/svg">
<path d="M2.52197 13.875V3.75C2.52197 3.34 2.61806 2.9625 2.81022 2.6175C3.00239 2.2725 3.26422 2 3.5957 1.8C3.92719 1.6 4.28991 1.5 4.68385 1.5H14.7726C14.9744 1.5 15.1449 1.5725 15.2842 1.7175C15.4236 1.8625 15.4932 2.04 15.4932 2.25V15.75C15.4932 15.96 15.4236 16.1375 15.2842 16.2825C15.1449 16.4275 14.9744 16.5 14.7726 16.5H5.04416C4.58296 16.5 4.16019 16.3825 3.77586 16.1475C3.39153 15.9125 3.08646 15.595 2.86067 15.195C2.63487 14.795 2.52197 14.355 2.52197 13.875ZM14.052 15V12.75H5.04416C4.7463 12.75 4.49168 12.86 4.2803 13.08C4.06891 13.3 3.96322 13.565 3.96322 13.875C3.96322 14.185 4.06891 14.45 4.2803 14.67C4.49168 14.89 4.7463 15 5.04416 15H14.052ZM3.96322 11.505C4.29951 11.335 4.65983 11.25 5.04416 11.25H14.052V3H4.68385C4.48207 3 4.31152 3.0725 4.1722 3.2175C4.03288 3.3625 3.96322 3.54 3.96322 3.75V11.505Z" fill="#6B7280"/>
</svg>
