<svg width="19" height="18" viewBox="0 0 19 18" fill="none" xmlns="http://www.w3.org/2000/svg">
<path d="M12.6111 2.05469C13.3317 2.05469 13.9947 2.24969 14.6 2.63969C15.2053 3.02969 15.681 3.55969 16.0269 4.22969C16.392 4.92969 16.5745 5.70469 16.5745 6.55469C16.5745 7.71469 16.3151 8.82969 15.7963 9.89969C15.3543 10.8097 14.7249 11.6847 13.9082 12.5247C13.2741 13.1847 12.5198 13.8297 11.6455 14.4597C11.1554 14.8097 10.5117 15.2297 9.71418 15.7197L9.36828 15.9297L9.02238 15.7197C8.18646 15.2097 7.51387 14.7697 7.00463 14.3997C6.09184 13.7397 5.30876 13.0597 4.65539 12.3597C3.82908 11.4597 3.20454 10.5297 2.78177 9.56969L1.44141 9.55469V8.05469L2.32057 8.06969C2.21488 7.56969 2.16203 7.06469 2.16203 6.55469C2.16203 5.70469 2.34459 4.92969 2.70971 4.22969C3.05561 3.55969 3.53122 3.02969 4.13654 2.63969C4.74187 2.24969 5.40484 2.05469 6.12547 2.05469C6.75001 2.05469 7.36975 2.21469 7.98468 2.53469C8.50353 2.79469 8.96473 3.13469 9.36828 3.55469C9.77183 3.13469 10.233 2.79469 10.7519 2.53469C11.3668 2.21469 11.9866 2.05469 12.6111 2.05469ZM12.6111 3.55469C12.2268 3.55469 11.8376 3.65219 11.4437 3.84719C11.0497 4.04219 10.699 4.29969 10.3916 4.61969L9.36828 5.68469L8.34499 4.61969C8.03753 4.29969 7.68682 4.04219 7.29288 3.84719C6.89894 3.65219 6.5098 3.55469 6.12547 3.55469C5.66427 3.55469 5.2415 3.68469 4.85717 3.94469C4.47284 4.20469 4.16777 4.56219 3.94197 5.01719C3.71618 5.47219 3.60328 5.98969 3.60328 6.56969C3.60328 7.06969 3.66574 7.56969 3.79064 8.06969L5.36161 8.05469L6.84609 5.47469L9.00797 9.22469L9.68536 8.05469H12.9714V9.55469H10.4925L9.00797 12.1497L6.84609 8.39969L6.16871 9.55469L4.39597 9.56969C4.95325 10.5697 5.80359 11.5447 6.94698 12.4947C7.45622 12.9147 8.03753 13.3397 8.69089 13.7697C8.89267 13.8997 9.11846 14.0397 9.36828 14.1897C9.6181 14.0397 9.84389 13.8997 10.0457 13.7697C10.699 13.3397 11.2803 12.9147 11.7896 12.4947C12.8849 11.5847 13.7112 10.6497 14.2685 9.68969C14.845 8.68969 15.1333 7.64969 15.1333 6.56969C15.1333 5.98969 15.0228 5.46969 14.8018 5.00969C14.5808 4.54969 14.2781 4.19469 13.8938 3.94469C13.5095 3.69469 13.0819 3.56469 12.6111 3.55469Z" fill="#6B7280"/>
</svg>
