<svg width="19" height="18" viewBox="0 0 19 18" fill="none" xmlns="http://www.w3.org/2000/svg">
<path d="M7.55201 13.125H8.28705V9.375H9.7283V13.125H10.4633C10.5114 12.695 10.6459 12.275 10.8669 11.865C11.0591 11.495 11.3425 11.095 11.7172 10.665L11.919 10.44C12.1976 10.14 12.3514 9.975 12.3802 9.945C12.6877 9.545 12.9231 9.105 13.0864 8.625C13.2498 8.145 13.3314 7.645 13.3314 7.125C13.3314 6.315 13.1345 5.56 12.7405 4.86C12.3562 4.18 11.8373 3.64 11.184 3.24C10.5114 2.83 9.78595 2.625 9.00768 2.625C8.2294 2.625 7.50397 2.83 6.83139 3.24C6.17802 3.64 5.65917 4.18 5.27484 4.86C4.8809 5.56 4.68393 6.315 4.68393 7.125C4.68393 7.645 4.7656 8.145 4.92894 8.625C5.09228 9.105 5.32768 9.54 5.63515 9.93C5.66398 9.97 5.81771 10.14 6.09635 10.44L6.29813 10.665C6.67285 11.095 6.9563 11.495 7.14846 11.865C7.36945 12.275 7.50397 12.695 7.55201 13.125ZM7.56643 14.625V15.375H10.4489V14.625H7.56643ZM4.51098 10.875C4.10743 10.355 3.79515 9.78 3.57416 9.15C3.35317 8.5 3.24268 7.825 3.24268 7.125C3.24268 6.035 3.5069 5.025 4.03536 4.095C4.5446 3.195 5.2316 2.48 6.09635 1.95C6.98993 1.4 7.96037 1.125 9.00768 1.125C10.055 1.125 11.0254 1.4 11.919 1.95C12.7838 2.48 13.4707 3.195 13.98 4.095C14.5084 5.025 14.7727 6.035 14.7727 7.125C14.7727 7.825 14.6622 8.5 14.4412 9.15C14.2202 9.78 13.9079 10.355 13.5044 10.875C13.4371 10.965 13.3026 11.115 13.1008 11.325C12.7261 11.735 12.4619 12.06 12.3081 12.3C12.0295 12.72 11.8902 13.12 11.8902 13.5V15.375C11.8902 15.645 11.8253 15.895 11.6956 16.125C11.5659 16.355 11.3905 16.5375 11.1696 16.6725C10.9486 16.8075 10.7084 16.875 10.4489 16.875H7.56643C7.307 16.875 7.06679 16.8075 6.8458 16.6725C6.62481 16.5375 6.44946 16.355 6.31974 16.125C6.19003 15.895 6.12518 15.645 6.12518 15.375V13.5C6.12518 13.12 5.98585 12.72 5.70721 12.3C5.55348 12.06 5.28925 11.735 4.91453 11.325C4.71275 11.115 4.57823 10.965 4.51098 10.875Z" fill="#6B7280"/>
</svg>
