<svg width="19" height="18" viewBox="0 0 19 18" fill="none" xmlns="http://www.w3.org/2000/svg">
<path d="M3.2426 1.5H14.7726C14.9744 1.5 15.1449 1.5725 15.2842 1.7175C15.4236 1.8625 15.4932 2.04 15.4932 2.25V15.75C15.4932 15.96 15.4236 16.1375 15.2842 16.2825C15.1449 16.4275 14.9744 16.5 14.7726 16.5H3.2426C3.04082 16.5 2.87027 16.4275 2.73095 16.2825C2.59163 16.1375 2.52197 15.96 2.52197 15.75V2.25C2.52197 2.04 2.59163 1.8625 2.73095 1.7175C2.87027 1.5725 3.04082 1.5 3.2426 1.5ZM3.96322 3V15H14.052V3H3.96322ZM5.40447 4.5H12.6107V7.5H5.40447V4.5ZM5.40447 9H6.84572V10.5H5.40447V9ZM5.40447 12H6.84572V13.5H5.40447V12ZM8.28697 9H9.72822V10.5H8.28697V9ZM8.28697 12H9.72822V13.5H8.28697V12ZM11.1695 9H12.6107V13.5H11.1695V9Z" fill="#6B7280"/>
</svg>
