<svg width="19" height="18" viewBox="0 0 19 18" fill="none" xmlns="http://www.w3.org/2000/svg">
<path d="M9.87235 1.97953L12.2072 6.19453C12.3129 6.37453 12.3393 6.56453 12.2864 6.76453C12.2336 6.96453 12.1207 7.11453 11.9477 7.21453L11.0109 7.78453L11.7316 9.08953L10.4777 9.83953L9.75705 8.53453L8.83465 9.08953C8.6617 9.19953 8.47914 9.22703 8.28697 9.17203C8.09481 9.11703 7.94588 8.99953 7.84019 8.81953L6.51424 6.43453C6.02421 6.59453 5.58703 6.84953 5.2027 7.19953C4.81836 7.54953 4.5157 7.96953 4.29471 8.45953C4.07372 8.94953 3.96322 9.46953 3.96322 10.0195C3.96322 10.4795 4.04009 10.9245 4.19382 11.3545C4.77993 10.9645 5.42369 10.7695 6.1251 10.7695C6.72081 10.7695 7.2757 10.912 7.78974 11.197C8.30379 11.482 8.72896 11.8695 9.06525 12.3595L14.5996 9.02953L15.3203 10.3195L9.64175 13.7395C9.6994 13.9995 9.72822 14.2595 9.72822 14.5195C9.72822 14.7795 9.7042 15.0295 9.65616 15.2695H15.4932V16.7695H3.2426C3.012 16.4495 2.83424 16.0995 2.70934 15.7195C2.58443 15.3395 2.52197 14.9395 2.52197 14.5195C2.52197 13.7795 2.71894 13.0995 3.11289 12.4795C2.71894 11.7095 2.52197 10.8895 2.52197 10.0195C2.52197 9.28953 2.66129 8.58953 2.93994 7.91953C3.21858 7.26953 3.60291 6.70203 4.09294 6.21703C4.58296 5.73203 5.14505 5.36453 5.7792 5.11453L5.50536 4.60453C5.37084 4.36453 5.30359 4.11203 5.30359 3.84703C5.30359 3.58203 5.36844 3.33453 5.49815 3.10453C5.62787 2.87453 5.80322 2.68953 6.02421 2.54953L7.89784 1.42453C8.12844 1.28453 8.37105 1.21703 8.62567 1.22203C8.88029 1.22703 9.11809 1.29453 9.33909 1.42453C9.56008 1.55453 9.73783 1.73953 9.87235 1.97953ZM6.1251 12.2695C5.73116 12.2695 5.36844 12.372 5.03695 12.577C4.70547 12.782 4.44364 13.057 4.25147 13.402C4.05931 13.747 3.96322 14.1195 3.96322 14.5195C3.96322 14.7795 4.00646 15.0295 4.09294 15.2695H8.15726C8.24374 15.0295 8.28697 14.7795 8.28697 14.5195C8.28697 14.1195 8.19089 13.747 7.99872 13.402C7.80656 13.057 7.54473 12.782 7.21324 12.577C6.88175 12.372 6.51904 12.2695 6.1251 12.2695ZM8.61846 2.72953L6.74484 3.85453L8.73376 7.42453L10.6074 6.29953L8.61846 2.72953Z" fill="#923D8C"/>
</svg>
