<svg width="19" height="18" viewBox="0 0 19 18" fill="none" xmlns="http://www.w3.org/2000/svg">
<path d="M3.96333 9.56953C3.96333 8.31953 4.17952 7.12453 4.61189 5.98453C5.03466 4.88453 5.62797 3.91703 6.39183 3.08203C7.1557 2.24703 8.02765 1.61453 9.0077 1.18453C9.98775 1.61453 10.8597 2.24703 11.6236 3.08203C12.3874 3.91703 12.9807 4.88453 13.4035 5.98453C13.8359 7.12453 14.0521 8.31953 14.0521 9.56953C14.0521 10.1795 13.9992 10.7795 13.8935 11.3695L15.2916 12.7345C15.3492 12.7945 15.3852 12.867 15.3996 12.952C15.4141 13.037 15.402 13.1195 15.3636 13.1995L13.5621 16.6195C13.514 16.7095 13.4419 16.7695 13.3459 16.7995C13.2498 16.8295 13.1585 16.8195 13.072 16.7695C13.0432 16.7595 13.0144 16.7395 12.9856 16.7095L11.3858 15.0295C11.2416 14.8895 11.0687 14.8195 10.8669 14.8195H7.14849C6.94672 14.8195 6.77377 14.8895 6.62964 15.0295L5.02985 16.7095C4.95299 16.7795 4.86651 16.8145 4.77043 16.8145C4.67434 16.8145 4.58787 16.7795 4.511 16.7095C4.49179 16.6895 4.47257 16.6595 4.45335 16.6195L2.65179 13.1995C2.61336 13.1195 2.60135 13.037 2.61576 12.952C2.63017 12.867 2.6662 12.7945 2.72385 12.7345L4.12187 11.3695C4.01617 10.7795 3.96333 10.1795 3.96333 9.56953ZM5.02985 14.5795L5.62077 13.9795C5.82254 13.7695 6.05554 13.607 6.31977 13.492C6.584 13.377 6.86024 13.3195 7.14849 13.3195H10.8669C11.1552 13.3195 11.4314 13.377 11.6956 13.492C11.9599 13.607 12.1929 13.7695 12.3946 13.9795L12.9856 14.5795L13.6918 13.2295L12.8991 12.4645C12.7261 12.2845 12.6012 12.0745 12.5244 11.8345C12.4475 11.5945 12.4331 11.3495 12.4811 11.0995C12.5676 10.5895 12.6108 10.0795 12.6108 9.56953C12.6108 8.60953 12.4619 7.68953 12.164 6.80953C11.8662 5.94953 11.4458 5.17703 10.9029 4.49203C10.3601 3.80703 9.72833 3.25953 9.0077 2.84953C8.28708 3.25953 7.65533 3.80703 7.11246 4.49203C6.56959 5.17703 6.14922 5.94953 5.85137 6.80953C5.55351 7.68953 5.40458 8.60953 5.40458 9.56953C5.40458 10.0795 5.44782 10.5895 5.53429 11.0995C5.58233 11.3495 5.56792 11.5945 5.49105 11.8345C5.41419 12.0745 5.28928 12.2845 5.11633 12.4645L4.32364 13.2295L5.02985 14.5795ZM9.0077 9.56953C8.74828 9.56953 8.50807 9.50203 8.28708 9.36703C8.06609 9.23203 7.89073 9.04953 7.76102 8.81953C7.63131 8.58953 7.56645 8.33953 7.56645 8.06953C7.56645 7.79953 7.63131 7.54953 7.76102 7.31953C7.89073 7.08953 8.06609 6.90703 8.28708 6.77203C8.50807 6.63703 8.74828 6.56953 9.0077 6.56953C9.26713 6.56953 9.50734 6.63703 9.72833 6.77203C9.94932 6.90703 10.1247 7.08953 10.2544 7.31953C10.3841 7.54953 10.449 7.79953 10.449 8.06953C10.449 8.33953 10.3841 8.58953 10.2544 8.81953C10.1247 9.04953 9.94932 9.23203 9.72833 9.36703C9.50734 9.50203 9.26713 9.56953 9.0077 9.56953Z" fill="#6B7280"/>
</svg>
