<svg width="19" height="18" viewBox="0 0 19 18" fill="none" xmlns="http://www.w3.org/2000/svg">
<path d="M3.24301 11.625H14.773V3.375H3.24301V11.625ZM9.72863 13.125V14.625H12.6111V16.125H5.40488V14.625H8.28738V13.125H2.52238C2.32061 13.125 2.15006 13.0525 2.01074 12.9075C1.87142 12.7625 1.80176 12.585 1.80176 12.375V2.625C1.80176 2.425 1.87142 2.25 2.01074 2.1C2.15006 1.95 2.32061 1.875 2.52238 1.875H15.4936C15.6954 1.875 15.866 1.9475 16.0053 2.0925C16.1446 2.2375 16.2143 2.415 16.2143 2.625V12.375C16.2143 12.575 16.1446 12.75 16.0053 12.9C15.866 13.05 15.6954 13.125 15.4936 13.125H9.72863Z" fill="#923D8C"/>
</svg>
