<svg width="19" height="18" viewBox="0 0 19 18" fill="none" xmlns="http://www.w3.org/2000/svg">
<path d="M9.00761 2.25C10.2759 2.25 11.477 2.55 12.6107 3.15C13.6965 3.73 14.6117 4.5325 15.3563 5.5575C16.101 6.5825 16.5838 7.73 16.8048 9C16.5838 10.27 16.101 11.4175 15.3563 12.4425C14.6117 13.4675 13.6965 14.27 12.6107 14.85C11.477 15.45 10.2759 15.75 9.00761 15.75C7.73931 15.75 6.53827 15.45 5.40449 14.85C4.31874 14.27 3.40355 13.4675 2.65891 12.4425C1.91426 11.4175 1.43144 10.27 1.21045 9C1.43144 7.73 1.91426 6.5825 2.65891 5.5575C3.40355 4.5325 4.31874 3.73 5.40449 3.15C6.53827 2.55 7.73931 2.25 9.00761 2.25ZM9.00761 14.25C10.0069 14.25 10.9581 14.02 11.8613 13.56C12.7356 13.12 13.4779 12.5 14.088 11.7C14.6981 10.9 15.1137 10 15.3347 9C15.1137 8 14.6981 7.1 14.088 6.3C13.4779 5.5 12.7356 4.88 11.8613 4.44C10.9581 3.98 10.0069 3.75 9.00761 3.75C8.00835 3.75 7.05712 3.98 6.15394 4.44C5.27958 4.88 4.53733 5.5 3.92721 6.3C3.31708 7.1 2.90152 8 2.68052 9C2.90152 10 3.31708 10.9 3.92721 11.7C4.53733 12.5 5.27958 13.12 6.15394 13.56C7.05712 14.02 8.00835 14.25 9.00761 14.25ZM9.00761 12.375C8.4215 12.375 7.88103 12.2225 7.38621 11.9175C6.89138 11.6125 6.49743 11.2025 6.20438 10.6875C5.91133 10.1725 5.7648 9.61 5.7648 9C5.7648 8.39 5.91133 7.8275 6.20438 7.3125C6.49743 6.7975 6.89138 6.3875 7.38621 6.0825C7.88103 5.7775 8.4215 5.625 9.00761 5.625C9.59372 5.625 10.1342 5.7775 10.629 6.0825C11.1238 6.3875 11.5178 6.7975 11.8108 7.3125C12.1039 7.8275 12.2504 8.39 12.2504 9C12.2504 9.61 12.1039 10.1725 11.8108 10.6875C11.5178 11.2025 11.1238 11.6125 10.629 11.9175C10.1342 12.2225 9.59372 12.375 9.00761 12.375ZM9.00761 10.875C9.3343 10.875 9.63456 10.79 9.90839 10.62C10.1822 10.45 10.4008 10.2225 10.5642 9.9375C10.7275 9.6525 10.8092 9.34 10.8092 9C10.8092 8.66 10.7275 8.3475 10.5642 8.0625C10.4008 7.7775 10.1822 7.55 9.90839 7.38C9.63456 7.21 9.3343 7.125 9.00761 7.125C8.68093 7.125 8.38067 7.21 8.10683 7.38C7.83299 7.55 7.6144 7.7775 7.45106 8.0625C7.28772 8.3475 7.20605 8.66 7.20605 9C7.20605 9.34 7.28772 9.6525 7.45106 9.9375C7.6144 10.2225 7.83299 10.45 8.10683 10.62C8.38067 10.79 8.68093 10.875 9.00761 10.875Z" fill="#2563EB"/>
</svg>
