<svg width="35" height="35" viewBox="0 0 35 35" fill="none" xmlns="http://www.w3.org/2000/svg">
<path d="M17.1429 0C7.71428 0 0 7.71428 0 17.1429C0 26.5714 7.71428 34.2857 17.1429 34.2857C26.5714 34.2857 34.2857 26.5714 34.2857 17.1429C34.2857 7.71428 26.5714 0 17.1429 0ZM17.1429 30.8571C9.58286 30.8571 3.42857 24.7029 3.42857 17.1429C3.42857 9.58286 9.58286 3.42857 17.1429 3.42857C24.7029 3.42857 30.8571 9.58286 30.8571 17.1429C30.8571 24.7029 24.7029 30.8571 17.1429 30.8571ZM18 8.57143H15.4286V18.8571L24.3429 24.3429L25.7143 22.1143L18 17.4857V8.57143Z" fill="#22C55E"/>
</svg>
