<svg width="14" height="14" viewBox="0 0 14 14" fill="none" xmlns="http://www.w3.org/2000/svg">
<path d="M4.66667 0.000650406V1.33398H8.66667V0.000650406H10V1.33398H12.6667C12.8533 1.33398 13.0111 1.39843 13.14 1.52732C13.2689 1.65621 13.3333 1.81398 13.3333 2.00065V12.6673C13.3333 12.854 13.2689 13.0118 13.14 13.1407C13.0111 13.2695 12.8533 13.334 12.6667 13.334H0.666667C0.48 13.334 0.322222 13.2695 0.193333 13.1407C0.0644444 13.0118 0 12.854 0 12.6673V2.00065C0 1.81398 0.0644444 1.65621 0.193333 1.52732C0.322222 1.39843 0.48 1.33398 0.666667 1.33398H3.33333V0.000650406H4.66667ZM12 6.66732H1.33333V12.0007H12V6.66732ZM3.33333 2.66732H1.33333V5.33398H12V2.66732H10V4.00065H8.66667V2.66732H4.66667V4.00065H3.33333V2.66732Z" fill="#6B7280"/>
</svg>
