<svg width="24" height="24" viewBox="0 0 24 24" fill="none" xmlns="http://www.w3.org/2000/svg">
<path fill-rule="evenodd" clip-rule="evenodd" d="M21.9999 6.99V11C21.9999 11.1978 21.9412 11.391 21.8313 11.5555C21.7214 11.7199 21.5653 11.848 21.3826 11.9237C21.1999 11.9993 20.9988 12.0192 20.8049 11.9806C20.6109 11.942 20.4328 11.8468 20.2929 11.707L18.9999 10.414L13.7069 15.707C13.5194 15.8945 13.2651 15.9998 12.9999 15.9998C12.7348 15.9998 12.4804 15.8945 12.2929 15.707L8.99992 12.414L3.70692 17.707C3.51832 17.8892 3.26571 17.99 3.00352 17.9877C2.74132 17.9854 2.49051 17.8802 2.3051 17.6948C2.11969 17.5094 2.01452 17.2586 2.01224 16.9964C2.00997 16.7342 2.11076 16.4816 2.29292 16.293L8.29292 10.293C8.48045 10.1055 8.73475 10.0002 8.99992 10.0002C9.26508 10.0002 9.51939 10.1055 9.70692 10.293L12.9999 13.586L17.5859 9L16.2929 7.707C16.1531 7.56715 16.0579 7.38898 16.0193 7.19503C15.9808 7.00108 16.0006 6.80005 16.0762 6.61735C16.1519 6.43465 16.2801 6.27848 16.4445 6.1686C16.6089 6.05871 16.8022 6.00004 16.9999 6H20.9999L21.0479 6.001C21.3033 6.01229 21.5446 6.12137 21.7219 6.30566C21.8991 6.48995 21.9986 6.73533 21.9999 6.991" fill="#00A13D"/>
</svg>
