<svg width="32" height="32" viewBox="0 0 32 32" fill="none" xmlns="http://www.w3.org/2000/svg">
<rect width="32" height="32" rx="16" fill="#FEF3C7"/>
<path d="M16.4136 17.5872V18.9872C15.9867 18.8272 15.542 18.7472 15.0795 18.7472C14.359 18.7472 13.6875 18.9295 13.0649 19.2939C12.4601 19.6495 11.9798 20.1295 11.624 20.7339C11.2594 21.3561 11.0771 22.0272 11.0771 22.7472H9.74292C9.74292 21.7872 9.98751 20.8939 10.4767 20.0672C10.9481 19.2584 11.5885 18.6184 12.3978 18.1472C13.225 17.6584 14.1189 17.4139 15.0795 17.4139C15.5331 17.4139 15.9778 17.4717 16.4136 17.5872ZM15.0795 16.7472C14.359 16.7472 13.6875 16.565 13.0649 16.2006C12.4601 15.8539 11.9798 15.3784 11.624 14.7739C11.2594 14.1517 11.0771 13.4784 11.0771 12.7539C11.0771 12.0295 11.2594 11.3561 11.624 10.7339C11.9798 10.1295 12.4601 9.64946 13.0649 9.29391C13.6875 8.92946 14.3612 8.74724 15.0861 8.74724C15.811 8.74724 16.4847 8.92946 17.1073 9.29391C17.7121 9.64946 18.188 10.1295 18.5349 10.7339C18.8995 11.3561 19.0819 12.0295 19.0819 12.7539C19.0819 13.4784 18.8995 14.1517 18.5349 14.7739C18.188 15.3784 17.7121 15.8539 17.1073 16.2006C16.4847 16.565 15.8088 16.7472 15.0795 16.7472ZM15.0795 15.4139C15.5686 15.4139 16.0178 15.2961 16.4269 15.0606C16.8361 14.825 17.1585 14.5028 17.3942 14.0939C17.6299 13.685 17.7477 13.2384 17.7477 12.7539C17.7477 12.2695 17.6299 11.8228 17.3942 11.4139C17.1585 11.005 16.8361 10.6806 16.4269 10.4406C16.0178 10.2006 15.5709 10.0806 15.0861 10.0806C14.6014 10.0806 14.1545 10.2006 13.7453 10.4406C13.3362 10.6806 13.0115 11.005 12.7714 11.4139C12.5313 11.8228 12.4112 12.2695 12.4112 12.7539C12.4112 13.2384 12.5313 13.685 12.7714 14.0939C13.0115 14.5028 13.3362 14.825 13.7453 15.0606C14.1545 15.2961 14.5992 15.4139 15.0795 15.4139ZM18.9484 21.3606L21.3099 19.0006L22.2571 19.9472L18.9484 23.2539L16.587 20.8939L17.5343 19.9472L18.9484 21.3606Z" fill="#D97706"/>
</svg>
