<svg width="13" height="15" viewBox="0 0 13 15" fill="none" xmlns="http://www.w3.org/2000/svg">
<path d="M6.67067 8.83919V10.2392C6.24374 10.0792 5.79903 9.99919 5.33653 9.99919C4.6161 9.99919 3.94459 10.1814 3.32199 10.5459C2.71718 10.9014 2.2369 11.3814 1.88113 11.9859C1.51646 12.6081 1.33413 13.2792 1.33413 13.9992H0C0 13.0392 0.244591 12.1459 0.733773 11.3192C1.20517 10.5103 1.84555 9.8703 2.65493 9.39919C3.48209 8.9103 4.37596 8.66586 5.33653 8.66586C5.79014 8.66586 6.23485 8.72364 6.67067 8.83919ZM5.33653 7.99919C4.6161 7.99919 3.94459 7.81697 3.32199 7.45253C2.71718 7.10586 2.2369 6.6303 1.88113 6.02586C1.51646 5.40364 1.33413 4.7303 1.33413 4.00586C1.33413 3.28141 1.51646 2.60808 1.88113 1.98586C2.2369 1.38141 2.71718 0.901415 3.32199 0.545859C3.94459 0.181415 4.61832 -0.000807762 5.3432 -0.000807762C6.06808 -0.000807762 6.74182 0.181415 7.36442 0.545859C7.96922 0.901415 8.44506 1.38141 8.79194 1.98586C9.1566 2.60808 9.33893 3.28141 9.33893 4.00586C9.33893 4.7303 9.1566 5.40364 8.79194 6.02586C8.44506 6.6303 7.96922 7.10586 7.36442 7.45253C6.74182 7.81697 6.06586 7.99919 5.33653 7.99919ZM5.33653 6.66586C5.82572 6.66586 6.27487 6.54808 6.68401 6.31253C7.09314 6.07697 7.41556 5.75475 7.65125 5.34586C7.88695 4.93697 8.0048 4.4903 8.0048 4.00586C8.0048 3.52141 7.88695 3.07475 7.65125 2.66586C7.41556 2.25697 7.09314 1.93253 6.68401 1.69253C6.27487 1.45253 5.82794 1.33253 5.3432 1.33253C4.85847 1.33253 4.41153 1.45253 4.0024 1.69253C3.59327 1.93253 3.26863 2.25697 3.02848 2.66586C2.78834 3.07475 2.66827 3.52141 2.66827 4.00586C2.66827 4.4903 2.78834 4.93697 3.02848 5.34586C3.26863 5.75475 3.59327 6.07697 4.0024 6.31253C4.41153 6.54808 4.85624 6.66586 5.33653 6.66586ZM9.20552 12.6125L11.5669 10.2525L12.5142 11.1992L9.20552 14.5059L6.8441 12.1459L7.79134 11.1992L9.20552 12.6125Z" fill="#F59E0B"/>
</svg>
