<svg width="33" height="33" viewBox="0 0 33 33" fill="none" xmlns="http://www.w3.org/2000/svg">
<g clip-path="url(#clip0_4572_8150)">
<path fill-rule="evenodd" clip-rule="evenodd" d="M25.7312 22.5471L22.2585 24.5521C22.0872 24.6509 21.8904 24.6967 21.6931 24.6838C21.4958 24.6708 21.3067 24.5996 21.1499 24.4793C20.993 24.3589 20.8753 24.1947 20.8117 24.0074C20.7482 23.8202 20.7415 23.6183 20.7927 23.4272L21.2659 21.661L14.0356 19.7236C13.7795 19.6549 13.5611 19.4874 13.4285 19.2577C13.2959 19.0281 13.26 18.7552 13.3286 18.499L14.5339 14.0007L7.30352 12.0634C7.05147 11.9911 6.83788 11.8227 6.70875 11.5945C6.57963 11.3663 6.5453 11.0965 6.61316 10.8432C6.68103 10.59 6.84565 10.3735 7.07158 10.2404C7.29751 10.1073 7.56667 10.0683 7.82108 10.1318L16.0172 12.3279C16.2734 12.3966 16.4917 12.5642 16.6243 12.7938C16.7569 13.0235 16.7928 13.2964 16.7242 13.5525L15.5189 18.0508L21.7835 19.7294L22.2568 17.9631C22.308 17.7721 22.4147 17.6006 22.5634 17.4702C22.712 17.3399 22.896 17.2565 23.0921 17.2307C23.2882 17.2049 23.4875 17.2377 23.6648 17.3252C23.8422 17.4126 23.9897 17.5507 24.0886 17.7219L26.0886 21.186L26.1117 21.2281C26.2296 21.4549 26.2558 21.7185 26.1848 21.9641C26.1138 22.2097 25.9511 22.4186 25.7304 22.5476" fill="#DE4141"/>
</g>
<defs>
<clipPath id="clip0_4572_8150">
<rect width="24" height="24" fill="white" transform="translate(20.7847) rotate(60)"/>
</clipPath>
</defs>
</svg>
