<svg width="56" height="56" viewBox="0 0 56 56" fill="none" xmlns="http://www.w3.org/2000/svg">
<path d="M7 49V44.3333C7 41.858 7.98333 39.484 9.73367 37.7337C11.484 35.9833 13.858 35 16.3333 35H25.6667C28.142 35 30.516 35.9833 32.2663 37.7337C34.0167 39.484 35 41.858 35 44.3333V49M37.3333 7.30333C39.341 7.81737 41.1204 8.98497 42.3912 10.6221C43.6619 12.2591 44.3516 14.2726 44.3516 16.345C44.3516 18.4174 43.6619 20.4309 42.3912 22.0679C41.1204 23.705 39.341 24.8726 37.3333 25.3867M49 49V44.3333C48.9882 42.2734 48.2951 40.2752 47.029 38.6503C45.7628 37.0253 43.9946 35.865 42 35.35M11.6667 16.3333C11.6667 18.8087 12.65 21.1827 14.4003 22.933C16.1507 24.6833 18.5246 25.6667 21 25.6667C23.4754 25.6667 25.8493 24.6833 27.5997 22.933C29.35 21.1827 30.3333 18.8087 30.3333 16.3333C30.3333 13.858 29.35 11.484 27.5997 9.73367C25.8493 7.98333 23.4754 7 21 7C18.5246 7 16.1507 7.98333 14.4003 9.73367C12.65 11.484 11.6667 13.858 11.6667 16.3333Z" stroke="#0969DA" stroke-width="2" stroke-linecap="round" stroke-linejoin="round"/>
</svg>
