<svg width="13" height="15" viewBox="0 0 13 15" fill="none" xmlns="http://www.w3.org/2000/svg">
<path d="M5.33333 8.66669V14H0C0 13.0311 0.244444 12.1334 0.733333 11.3067C1.20444 10.4978 1.84 9.8578 2.64 9.38669C3.46667 8.90669 4.36444 8.66669 5.33333 8.66669ZM9.33333 13.6667L7.37333 14.6934L7.74667 12.5067L6.16 10.9734L8.36 10.6534L9.33333 8.66669L10.32 10.6534L12.5067 10.9734L10.92 12.5067L11.2933 14.6934L9.33333 13.6667ZM5.33333 8.00003C4.61333 8.00003 3.94222 7.8178 3.32 7.45336C2.71556 7.0978 2.23556 6.6178 1.88 6.01336C1.51556 5.39114 1.33333 4.7178 1.33333 3.99336C1.33333 3.26891 1.51556 2.59558 1.88 1.97336C2.23556 1.3778 2.71556 0.902248 3.32 0.546692C3.94222 0.182248 4.61556 2.57492e-05 5.34 2.57492e-05C6.06444 2.57492e-05 6.73778 0.182248 7.36 0.546692C7.95556 0.902248 8.43111 1.3778 8.78667 1.97336C9.15111 2.59558 9.33333 3.26891 9.33333 3.99336C9.33333 4.7178 9.15111 5.39114 8.78667 6.01336C8.43111 6.6178 7.95556 7.0978 7.36 7.45336C6.73778 7.8178 6.06222 8.00003 5.33333 8.00003Z" fill="#923D8C"/>
</svg>
