<svg width="22" height="18" viewBox="0 0 22 18" fill="none" xmlns="http://www.w3.org/2000/svg">
<path d="M19.5 0H1.625C1.19402 0 0.780698 0.171205 0.475951 0.475951C0.171205 0.780698 0 1.19402 0 1.625V16.25C0 16.681 0.171205 17.0943 0.475951 17.399C0.780698 17.7038 1.19402 17.875 1.625 17.875H2.98492C3.13869 17.875 3.28932 17.8315 3.41931 17.7493C3.54929 17.6671 3.65329 17.5498 3.71922 17.4109C4.11432 16.5767 4.7381 15.8718 5.51804 15.3783C6.29797 14.8847 7.202 14.6227 8.125 14.6227C9.048 14.6227 9.95203 14.8847 10.732 15.3783C11.5119 15.8718 12.1357 16.5767 12.5308 17.4109C12.5967 17.5498 12.7007 17.6671 12.8307 17.7493C12.9607 17.8315 13.1113 17.875 13.2651 17.875H19.5C19.931 17.875 20.3443 17.7038 20.649 17.399C20.9538 17.0943 21.125 16.681 21.125 16.25V1.625C21.125 1.19402 20.9538 0.780698 20.649 0.475951C20.3443 0.171205 19.931 0 19.5 0ZM8.125 13C7.48221 13 6.85386 12.8094 6.3194 12.4523C5.78494 12.0952 5.36838 11.5876 5.12239 10.9937C4.87641 10.3999 4.81205 9.7464 4.93745 9.11596C5.06285 8.48552 5.37238 7.90642 5.8269 7.4519C6.28142 6.99738 6.86052 6.68785 7.49096 6.56245C8.1214 6.43705 8.77486 6.50141 9.36872 6.74739C9.96258 6.99338 10.4702 7.40994 10.8273 7.9444C11.1844 8.47886 11.375 9.10721 11.375 9.75C11.375 10.612 11.0326 11.4386 10.4231 12.0481C9.8136 12.6576 8.98695 13 8.125 13ZM19.5 16.25H13.7546C13.4003 15.6393 12.9489 15.0905 12.418 14.625H17.0625C17.278 14.625 17.4847 14.5394 17.637 14.387C17.7894 14.2347 17.875 14.028 17.875 13.8125V4.0625C17.875 3.84701 17.7894 3.64035 17.637 3.48798C17.4847 3.3356 17.278 3.25 17.0625 3.25H4.0625C3.84701 3.25 3.64035 3.3356 3.48798 3.48798C3.3356 3.64035 3.25 3.84701 3.25 4.0625V13.8125C3.24991 13.9927 3.30972 14.1678 3.42004 14.3103C3.53035 14.4528 3.6849 14.5546 3.85938 14.5996C3.3162 15.0702 2.85523 15.6279 2.49539 16.25H1.625V1.625H19.5V16.25Z" fill="#923D8C"/>
</svg>
