<svg width="24" height="24" viewBox="0 0 24 24" fill="none" xmlns="http://www.w3.org/2000/svg">
<path d="M16.4737 3.00412C16.6407 3.01912 16.7137 3.22312 16.5937 3.34212L8.2737 11.6621C8.17971 11.7562 8.11241 11.8735 8.0787 12.0021L7.0787 15.8321C7.04569 15.9587 7.04636 16.0917 7.08063 16.2179C7.11491 16.3442 7.1816 16.4592 7.27409 16.5517C7.36659 16.6442 7.48166 16.7109 7.60789 16.7452C7.73413 16.7795 7.86713 16.7801 7.9937 16.7471L11.8227 15.7471C11.9514 15.7131 12.0688 15.6455 12.1627 15.5511L20.6007 7.11312C20.6271 7.08602 20.6607 7.06705 20.6976 7.05846C20.7344 7.04986 20.7729 7.052 20.8086 7.06463C20.8443 7.07725 20.8756 7.09983 20.8988 7.12969C20.922 7.15956 20.9362 7.19545 20.9397 7.23312C21.2909 10.5827 21.2708 13.9609 20.8797 17.3061C20.6567 19.2111 19.1257 20.7061 17.2277 20.9191C13.7513 21.3043 10.2431 21.3043 6.7667 20.9191C4.8677 20.7061 3.3367 19.2111 3.1137 17.3061C2.70168 13.7811 2.70168 10.2201 3.1137 6.69512C3.3367 4.78912 4.8677 3.29412 6.7667 3.08212C9.99121 2.7247 13.2439 2.69856 16.4737 3.00412Z" fill="#089BC4"/>
<path d="M17.8192 4.23702C17.8424 4.21374 17.87 4.19527 17.9004 4.18266C17.9308 4.17006 17.9633 4.16357 17.9962 4.16357C18.0291 4.16357 18.0617 4.17006 18.092 4.18266C18.1224 4.19527 18.15 4.21374 18.1732 4.23702L19.5872 5.65202C19.6339 5.69888 19.6602 5.76235 19.6602 5.82852C19.6602 5.89469 19.6339 5.95816 19.5872 6.00502L11.2942 14.3C11.2627 14.3315 11.2233 14.3539 11.1802 14.365L9.26622 14.865C9.22403 14.876 9.17969 14.8758 9.13761 14.8644C9.09554 14.853 9.05718 14.8307 9.02635 14.7999C8.99552 14.7691 8.97329 14.7307 8.96186 14.6886C8.95044 14.6465 8.95021 14.6022 8.96122 14.56L9.46122 12.646C9.47235 12.6029 9.49479 12.5636 9.52622 12.532L17.8192 4.23702Z" fill="#089BC4"/>
</svg>
