<svg width="23" height="24" viewBox="0 0 23 24" fill="none" xmlns="http://www.w3.org/2000/svg">
<path d="M11.25 0C17.4634 0 22.5 4.85008 22.5 10.8333C22.5 16.8166 17.4634 21.6667 11.25 21.6667C5.03663 21.6667 0 16.8166 0 10.8333C0 4.85008 5.03663 0 11.25 0ZM11.25 2.16667C8.86305 2.16667 6.57387 3.07976 4.88604 4.70508C3.19821 6.33039 2.25 8.53479 2.25 10.8333C2.25 13.1319 3.19821 15.3363 4.88604 16.9616C6.57387 18.5869 8.86305 19.5 11.25 19.5C13.637 19.5 15.9261 18.5869 17.614 16.9616C19.3018 15.3363 20.25 13.1319 20.25 10.8333C20.25 8.53479 19.3018 6.33039 17.614 4.70508C15.9261 3.07976 13.637 2.16667 11.25 2.16667ZM11.25 4.33333C11.5256 4.33337 11.7915 4.43079 11.9974 4.60711C12.2033 4.78343 12.3349 5.0264 12.3671 5.28992L12.375 5.41667V10.3848L15.4204 13.3174C15.6221 13.5124 15.7393 13.774 15.748 14.0491C15.7567 14.3242 15.6564 14.5922 15.4673 14.7986C15.2783 15.0051 15.0148 15.1345 14.7302 15.1606C14.4457 15.1867 14.1615 15.1075 13.9354 14.9392L13.8296 14.8493L10.4546 11.5993C10.2798 11.4307 10.1675 11.2114 10.1351 10.9753L10.125 10.8333V5.41667C10.125 5.12935 10.2435 4.8538 10.4545 4.65064C10.6655 4.44747 10.9516 4.33333 11.25 4.33333Z" fill="black"/>
</svg>
