<svg width="20" height="20" viewBox="0 0 20 20" fill="none" xmlns="http://www.w3.org/2000/svg">
<path d="M18.3625 19.5C16.1056 19.5 13.8757 19.0082 11.6729 18.0245C9.47014 17.0408 7.46597 15.6459 5.66042 13.8396C3.85486 12.0333 2.46025 10.0291 1.47658 7.82708C0.492917 5.62503 0.000722222 3.39517 0 1.1375C0 0.8125 0.108333 0.541667 0.325 0.325C0.541667 0.108333 0.8125 0 1.1375 0H5.525C5.77778 0 6.00347 0.0859444 6.20208 0.257833C6.4007 0.429722 6.51806 0.632667 6.55417 0.866667L7.25833 4.65833C7.29444 4.94722 7.28542 5.19097 7.23125 5.38958C7.17708 5.58819 7.07778 5.75972 6.93333 5.90417L4.30625 8.55833C4.66736 9.22639 5.096 9.8717 5.59217 10.4943C6.08833 11.1168 6.6347 11.7173 7.23125 12.2958C7.79097 12.8556 8.37778 13.3748 8.99167 13.8537C9.60556 14.3325 10.2556 14.7702 10.9417 15.1667L13.4875 12.6208C13.65 12.4583 13.8623 12.3366 14.1245 12.2557C14.3867 12.1749 14.6438 12.1521 14.8958 12.1875L18.6333 12.9458C18.8861 13.0181 19.0938 13.1491 19.2563 13.3391C19.4188 13.529 19.5 13.741 19.5 13.975V18.3625C19.5 18.6875 19.3917 18.9583 19.175 19.175C18.9583 19.3917 18.6875 19.5 18.3625 19.5Z" fill="#089BC4"/>
</svg>
