<svg width="22" height="18" viewBox="0 0 22 18" fill="none" xmlns="http://www.w3.org/2000/svg">
<path d="M1.25 2.75L6.75 0.75L12.25 2.75L9.75 4.25V5.75C9.75 5.75 9.083 5.25 6.75 5.25C4.417 5.25 3.75 5.75 3.75 5.75V4.25L1.25 2.75ZM1.25 2.75V6.75" stroke="#089BC4" stroke-width="1.5" stroke-linecap="round" stroke-linejoin="round"/>
<path d="M9.75 5.25V6.139C9.75 7.857 8.407 9.25 6.75 9.25C5.093 9.25 3.75 7.857 3.75 6.139V5.25M14.068 7.78C14.068 7.78 14.553 7.427 16.25 7.427C17.947 7.427 18.432 7.779 18.432 7.779M14.068 7.78V6.75L12.25 5.75L16.25 4.25L20.25 5.75L18.432 6.75V7.779M14.068 7.78V8.068C14.068 8.6467 14.2979 9.2017 14.7071 9.61091C15.1163 10.0201 15.6713 10.25 16.25 10.25C16.8287 10.25 17.3837 10.0201 17.7929 9.61091C18.2021 9.2017 18.432 8.6467 18.432 8.068V7.779M14.75 16.75H18.455C19.228 16.75 19.842 16.374 20.394 15.848C21.524 14.772 19.669 13.912 18.962 13.491C18.3332 13.1199 17.6351 12.8816 16.9106 12.791C16.1862 12.7004 15.4508 12.7592 14.75 12.964M3.135 12.676C2.192 13.203 -0.281001 14.278 1.225 15.623C1.961 16.28 2.78 16.75 3.811 16.75H9.689C10.719 16.75 11.539 16.28 12.275 15.623C13.781 14.278 11.308 13.203 10.365 12.676C8.153 11.441 5.347 11.441 3.135 12.676Z" stroke="#089BC4" stroke-width="1.5" stroke-linecap="round" stroke-linejoin="round"/>
</svg>
