<svg width="14" height="14" viewBox="0 0 14 14" fill="none" xmlns="http://www.w3.org/2000/svg">
<path d="M11.6875 1.375H10.3125V0.6875C10.3125 0.505164 10.2401 0.330295 10.1111 0.201364C9.98221 0.0724328 9.80734 0 9.625 0C9.44266 0 9.2678 0.0724328 9.13886 0.201364C9.00993 0.330295 8.9375 0.505164 8.9375 0.6875V1.375H4.8125V0.6875C4.8125 0.505164 4.74007 0.330295 4.61114 0.201364C4.4822 0.0724328 4.30734 0 4.125 0C3.94266 0 3.7678 0.0724328 3.63886 0.201364C3.50993 0.330295 3.4375 0.505164 3.4375 0.6875V1.375H2.0625C1.51549 1.375 0.990886 1.5923 0.604092 1.97909C0.217299 2.36589 0 2.89049 0 3.4375V11.6875C0 12.2345 0.217299 12.7591 0.604092 13.1459C0.990886 13.5327 1.51549 13.75 2.0625 13.75H11.6875C12.2345 13.75 12.7591 13.5327 13.1459 13.1459C13.5327 12.7591 13.75 12.2345 13.75 11.6875V3.4375C13.75 2.89049 13.5327 2.36589 13.1459 1.97909C12.7591 1.5923 12.2345 1.375 11.6875 1.375ZM12.375 11.6875C12.375 11.8698 12.3026 12.0447 12.1736 12.1736C12.0447 12.3026 11.8698 12.375 11.6875 12.375H2.0625C1.88016 12.375 1.7053 12.3026 1.57636 12.1736C1.44743 12.0447 1.375 11.8698 1.375 11.6875V6.875H12.375V11.6875ZM12.375 5.5H1.375V3.4375C1.375 3.25516 1.44743 3.0803 1.57636 2.95136C1.7053 2.82243 1.88016 2.75 2.0625 2.75H3.4375V3.4375C3.4375 3.61984 3.50993 3.7947 3.63886 3.92364C3.7678 4.05257 3.94266 4.125 4.125 4.125C4.30734 4.125 4.4822 4.05257 4.61114 3.92364C4.74007 3.7947 4.8125 3.61984 4.8125 3.4375V2.75H8.9375V3.4375C8.9375 3.61984 9.00993 3.7947 9.13886 3.92364C9.2678 4.05257 9.44266 4.125 9.625 4.125C9.80734 4.125 9.98221 4.05257 10.1111 3.92364C10.2401 3.7947 10.3125 3.61984 10.3125 3.4375V2.75H11.6875C11.8698 2.75 12.0447 2.82243 12.1736 2.95136C12.3026 3.0803 12.375 3.25516 12.375 3.4375V5.5Z" fill="#2B2B2B"/>
</svg>
