<svg width="18" height="18" viewBox="0 0 18 18" fill="none" xmlns="http://www.w3.org/2000/svg">
<path d="M3.95833 0H5.54167V0.791667H3.95833V0ZM11.875 0H13.4583V0.791667H11.875V0ZM16.625 3.16667V2.375H14.25V0.791667H13.4583V4.75H11.875V0.791667H11.0833V2.375H6.33333V0.791667H5.54167V4.75H3.95833V0.791667H3.16667V2.375H0.791667V3.16667H0V16.625H0.791667V17.4167H16.625V16.625H17.4167V3.16667H16.625ZM15.8333 5.54167V7.91667H13.4583V5.54167H15.8333ZM15.8333 11.875H13.4583V9.5H15.8333V11.875ZM15.8333 15.8333H13.4583V13.4583H15.8333V15.8333ZM1.58333 13.4583H3.95833V15.8333H1.58333V13.4583ZM1.58333 9.5H3.95833V11.875H1.58333V9.5ZM11.875 11.875H9.5V9.5H11.875V11.875ZM7.91667 11.875H5.54167V9.5H7.91667V11.875ZM5.54167 13.4583H7.91667V15.8333H5.54167V13.4583ZM9.5 13.4583H11.875V15.8333H9.5V13.4583ZM11.875 7.91667H9.5V5.54167H11.875V7.91667ZM7.91667 5.54167V7.91667H5.54167V5.54167H7.91667ZM3.95833 7.91667H1.58333V5.54167H3.95833V7.91667Z" fill="#089BC4"/>
</svg>
