<svg width="18" height="13" viewBox="0 0 18 13" fill="none" xmlns="http://www.w3.org/2000/svg">
<path d="M16.2223 5.53562C16.463 5.87287 16.5833 6.04229 16.5833 6.29167C16.5833 6.54183 16.463 6.71046 16.2223 7.04771C15.1409 8.56454 12.3788 11.8333 8.66667 11.8333C4.95375 11.8333 2.19242 8.56375 1.111 7.04771C0.870333 6.71046 0.75 6.54104 0.75 6.29167C0.75 6.0415 0.870333 5.87287 1.111 5.53562C2.19242 4.01879 4.95454 0.75 8.66667 0.75C12.3796 0.75 15.1409 4.01958 16.2223 5.53562Z" stroke="#089BC4" stroke-width="1.5" stroke-linecap="round" stroke-linejoin="round"/>
<path d="M11.0391 6.2915C11.0391 5.66161 10.7888 5.05752 10.3434 4.61213C9.89804 4.16673 9.29395 3.9165 8.66406 3.9165C8.03417 3.9165 7.43008 4.16673 6.98468 4.61213C6.53928 5.05752 6.28906 5.66161 6.28906 6.2915C6.28906 6.92139 6.53928 7.52548 6.98468 7.97088C7.43008 8.41628 8.03417 8.6665 8.66406 8.6665C9.29395 8.6665 9.89804 8.41628 10.3434 7.97088C10.7888 7.52548 11.0391 6.92139 11.0391 6.2915Z" stroke="#089BC4" stroke-width="1.5" stroke-linecap="round" stroke-linejoin="round"/>
</svg>
