<svg width="23" height="27" viewBox="0 0 23 27" fill="none" xmlns="http://www.w3.org/2000/svg">
<path d="M22.5 11.25V20C22.5 20.663 22.2366 21.2989 21.7678 21.7678C21.2989 22.2366 20.663 22.5 20 22.5H2.5C1.83696 22.5 1.20107 22.2366 0.732233 21.7678C0.263392 21.2989 0 20.663 0 20V11.25H22.5ZM16.25 0C16.5815 0 16.8995 0.131696 17.1339 0.366116C17.3683 0.600537 17.5 0.918479 17.5 1.25V2.5H20C20.663 2.5 21.2989 2.76339 21.7678 3.23223C22.2366 3.70107 22.5 4.33696 22.5 5V8.75H0V5C0 4.33696 0.263392 3.70107 0.732233 3.23223C1.20107 2.76339 1.83696 2.5 2.5 2.5H5V1.25C5 0.918479 5.1317 0.600537 5.36612 0.366116C5.60054 0.131696 5.91848 0 6.25 0C6.58152 0 6.89946 0.131696 7.13388 0.366116C7.3683 0.600537 7.5 0.918479 7.5 1.25V2.5H15V1.25C15 0.918479 15.1317 0.600537 15.3661 0.366116C15.6005 0.131696 15.9185 0 16.25 0Z" fill="#089BC4"/>
</svg>
