<svg width="10" height="23" viewBox="0 0 10 23" fill="none" xmlns="http://www.w3.org/2000/svg">
<path d="M2.03946 11.4071L9.04143 20.8646C9.19995 21.0788 9.28901 21.3693 9.28901 21.6722C9.28901 21.975 9.19995 22.2655 9.04143 22.4797C8.88291 22.6938 8.6679 22.8142 8.44372 22.8142C8.21953 22.8142 8.00453 22.6938 7.84601 22.4797L0.248022 12.2146C0.169402 12.1087 0.107027 11.9828 0.0644669 11.8442C0.0219073 11.7057 0 11.5571 0 11.4071C0 11.2571 0.0219073 11.1085 0.0644669 10.9699C0.107027 10.8314 0.169402 10.7055 0.248022 10.5996L7.84601 0.334485C8.00453 0.120318 8.21953 0 8.44372 0C8.6679 0 8.88291 0.120318 9.04143 0.334485C9.19995 0.548653 9.28901 0.839126 9.28901 1.142C9.28901 1.44488 9.19995 1.73536 9.04143 1.94952L2.03946 11.4071Z" fill="#4A4A68"/>
</svg>
