<svg width="4" height="18" viewBox="0 0 4 18" fill="none" xmlns="http://www.w3.org/2000/svg">
<path d="M1.71 2.67C1.96461 2.67 2.20879 2.56886 2.38882 2.38882C2.56886 2.20879 2.67 1.96461 2.67 1.71C2.67 1.45539 2.56886 1.21121 2.38882 1.03118C2.20879 0.851143 1.96461 0.75 1.71 0.75C1.45539 0.75 1.21121 0.851143 1.03118 1.03118C0.851143 1.21121 0.75 1.45539 0.75 1.71C0.75 1.96461 0.851143 2.20879 1.03118 2.38882C1.21121 2.56886 1.45539 2.67 1.71 2.67ZM1.71 9.71C1.96461 9.71 2.20879 9.60886 2.38882 9.42882C2.56886 9.24879 2.67 9.00461 2.67 8.75C2.67 8.49539 2.56886 8.25121 2.38882 8.07118C2.20879 7.89114 1.96461 7.79 1.71 7.79C1.45539 7.79 1.21121 7.89114 1.03118 8.07118C0.851143 8.25121 0.75 8.49539 0.75 8.75C0.75 9.00461 0.851143 9.24879 1.03118 9.42882C1.21121 9.60886 1.45539 9.71 1.71 9.71ZM1.71 16.75C1.96461 16.75 2.20879 16.6489 2.38882 16.4688C2.56886 16.2888 2.67 16.0446 2.67 15.79C2.67 15.5354 2.56886 15.2912 2.38882 15.1112C2.20879 14.9311 1.96461 14.83 1.71 14.83C1.45539 14.83 1.21121 14.9311 1.03118 15.1112C0.851143 15.2912 0.75 15.5354 0.75 15.79C0.75 16.0446 0.851143 16.2888 1.03118 16.4688C1.21121 16.6489 1.45539 16.75 1.71 16.75Z" stroke="#6B7280" stroke-width="1.5" stroke-linecap="round" stroke-linejoin="round"/>
</svg>
