<svg width="17" height="16" viewBox="0 0 17 16" fill="none" xmlns="http://www.w3.org/2000/svg">
<path d="M11.6685 4.00033H15.0018V5.33366H13.6685V14.0003C13.6685 14.187 13.604 14.3448 13.4751 14.4737C13.3462 14.6025 13.1885 14.667 13.0018 14.667H3.66846C3.48179 14.667 3.32401 14.6025 3.19512 14.4737C3.06623 14.3448 3.00179 14.187 3.00179 14.0003V5.33366H1.66846V4.00033H5.00179V2.00033C5.00179 1.81366 5.06623 1.65588 5.19512 1.52699C5.32401 1.3981 5.48179 1.33366 5.66846 1.33366H11.0018C11.1885 1.33366 11.3462 1.3981 11.4751 1.52699C11.604 1.65588 11.6685 1.81366 11.6685 2.00033V4.00033ZM12.3351 5.33366H4.33512V13.3337H12.3351V5.33366ZM6.33512 7.33366H7.66846V11.3337H6.33512V7.33366ZM9.00179 7.33366H10.3351V11.3337H9.00179V7.33366ZM6.33512 2.66699V4.00033H10.3351V2.66699H6.33512Z" fill="#9CA3AF"/>
</svg>
