<svg width="16" height="16" viewBox="0 0 16 16" fill="none" xmlns="http://www.w3.org/2000/svg">
<path d="M12.3626 9.96996C12.2063 9.68621 12.4051 9.39746 12.7451 9.03996C13.2838 8.47246 13.8701 7.15621 13.3251 5.81996C13.3288 5.81246 13.2176 5.58746 13.2213 5.57996L12.9976 5.56871C12.9263 5.55871 10.4651 5.55371 8.0013 5.55371C5.53755 5.55371 3.0763 5.55871 3.00505 5.56871C3.00505 5.56871 2.6738 5.81246 2.6763 5.81996C2.13255 7.15621 2.71755 8.47246 3.2563 9.03996C3.59505 9.39746 3.7938 9.68621 3.6388 9.96996C3.48755 10.2462 3.03755 10.2862 3.03755 10.2862C3.03755 10.2862 3.1413 10.5687 3.3913 10.7212C3.62255 10.8625 3.90755 10.895 4.1038 10.9C4.1038 10.9 4.87255 11.9637 6.88255 11.9637H9.12005C11.1301 11.9637 11.8988 10.9 11.8988 10.9C12.0951 10.895 12.3801 10.8625 12.6113 10.7212C12.8613 10.5687 12.9651 10.2862 12.9651 10.2862C12.9651 10.2862 12.5138 10.245 12.3626 9.96996Z" fill="#543930"/>
<path d="M7.99878 11.9625V10.7825L11.57 10.5L11.895 10.9C11.895 10.9 11.1263 11.9637 9.11628 11.9637L7.99878 11.9625Z" fill="url(#paint0_radial_7207_15137)"/>
<path d="M11.8874 10.3838C11.3524 9.57133 12.5386 9.26758 12.5386 9.26758L12.5399 9.26883C12.3336 9.52508 12.2399 9.74883 12.3611 9.97008C12.5124 10.2463 12.9624 10.2863 12.9624 10.2863C12.9624 10.2863 12.3486 10.8313 11.8874 10.3838Z" fill="url(#paint1_radial_7207_15137)"/>
<path d="M13.3275 5.82039C13.8587 7.11414 13.3 8.44664 12.7762 9.00914C12.705 9.08664 12.4 9.38539 12.33 9.62414C12.33 9.62414 11.1375 7.96039 10.7812 6.98289C10.71 6.78539 10.6437 6.58289 10.635 6.37289C10.6287 6.21539 10.6525 6.02789 10.7437 5.89414C10.855 5.73039 13.2637 5.68164 13.2637 5.68164C13.2637 5.68289 13.3275 5.82039 13.3275 5.82039Z" fill="url(#paint2_radial_7207_15137)"/>
<path d="M2.67511 5.82039C2.14386 7.11414 2.70261 8.44664 3.22636 9.00914C3.29886 9.08664 3.60261 9.38539 3.67261 9.62414C3.67261 9.62414 4.86511 7.96039 5.22136 6.98289C5.29386 6.78539 5.35886 6.58289 5.36761 6.37289C5.37386 6.21539 5.35011 6.02789 5.25886 5.89414C5.14761 5.73039 5.01761 5.77414 4.82886 5.77414C4.46886 5.77414 2.89261 5.68164 2.77011 5.68164C2.77136 5.68289 2.67511 5.82039 2.67511 5.82039Z" fill="url(#paint3_radial_7207_15137)"/>
<path d="M8.00367 11.9625V10.7825L4.43242 10.5L4.10742 10.9C4.10742 10.9 4.87617 11.9637 6.88617 11.9637L8.00367 11.9625Z" fill="url(#paint4_radial_7207_15137)"/>
<path d="M4.11504 10.3838C4.65004 9.57133 3.46379 9.26758 3.46379 9.26758L3.46254 9.26883C3.66879 9.52508 3.76254 9.74883 3.64129 9.97008C3.49004 10.2463 3.04004 10.2863 3.04004 10.2863C3.04004 10.2863 3.65379 10.8313 4.11504 10.3838Z" fill="url(#paint5_radial_7207_15137)"/>
<path d="M9.22262 14.0055V11.1567H6.77637V14.0055H9.22262ZM11.4164 6.29297H4.58387C3.84762 6.29297 3.24512 6.93422 3.24512 7.71922C3.24512 8.50422 3.84762 9.14547 4.58387 9.14547H11.4151C12.1514 9.14547 12.7539 8.50297 12.7539 7.71922C12.7551 6.93547 12.1526 6.29297 11.4164 6.29297Z" fill="#E59600"/>
<path d="M8.00006 1.37207C5.82506 1.37207 3.81006 3.69832 3.81006 7.04707C3.81006 10.3771 5.88631 12.0233 8.00006 12.0233C10.1138 12.0233 12.1901 10.3771 12.1901 7.04707C12.1901 3.69832 10.1751 1.37207 8.00006 1.37207Z" fill="#FFCA28"/>
<path d="M6.84997 6.21512C6.73372 6.06137 6.46622 5.83887 5.94622 5.83887C5.42622 5.83887 5.15747 6.06262 5.04247 6.21512C4.99122 6.28262 5.00372 6.36137 5.03997 6.40887C5.07247 6.45262 5.16997 6.49387 5.27747 6.45762C5.38497 6.42137 5.59497 6.31262 5.94622 6.31012C6.29747 6.31262 6.50747 6.42137 6.61497 6.45762C6.72247 6.49387 6.81997 6.45387 6.85247 6.40887C6.88747 6.36262 6.90122 6.28387 6.84997 6.21512ZM10.9587 6.21512C10.8425 6.06137 10.575 5.83887 10.055 5.83887C9.53497 5.83887 9.26622 6.06262 9.15122 6.21512C9.09997 6.28262 9.11247 6.36137 9.14872 6.40887C9.18122 6.45262 9.27872 6.49387 9.38622 6.45762C9.49372 6.42137 9.70372 6.31262 10.055 6.31012C10.4062 6.31262 10.6162 6.42137 10.7237 6.45762C10.8312 6.49387 10.9287 6.45387 10.9612 6.40887C10.9962 6.36262 11.01 6.28387 10.9587 6.21512Z" fill="#6D4C41"/>
<path d="M5.94511 7.97715C6.28545 7.97715 6.56136 7.69173 6.56136 7.33965C6.56136 6.98757 6.28545 6.70215 5.94511 6.70215C5.60476 6.70215 5.32886 6.98757 5.32886 7.33965C5.32886 7.69173 5.60476 7.97715 5.94511 7.97715Z" fill="#404040"/>
<path d="M10.0552 7.97715C10.3956 7.97715 10.6715 7.69173 10.6715 7.33965C10.6715 6.98757 10.3956 6.70215 10.0552 6.70215C9.71487 6.70215 9.43896 6.98757 9.43896 7.33965C9.43896 7.69173 9.71487 7.97715 10.0552 7.97715Z" fill="#404040"/>
<path d="M9.05249 9.50641C8.65499 9.74266 7.34874 9.74266 6.95124 9.50641C6.72249 9.37016 6.48874 9.57891 6.58374 9.78641C6.67749 9.99016 7.38874 10.4639 8.00499 10.4639C8.62124 10.4639 9.32374 9.99016 9.41749 9.78641C9.51124 9.57891 9.28124 9.37016 9.05249 9.50641Z" fill="#795548"/>
<path d="M8.48257 8.49535C8.46882 8.49035 8.45632 8.4866 8.44257 8.48535H7.55757C7.54382 8.4866 7.53007 8.49035 7.51757 8.49535C7.43757 8.52785 7.39382 8.61035 7.43132 8.6991C7.46882 8.78785 7.64507 9.03535 8.00007 9.03535C8.35507 9.03535 8.53132 8.7866 8.56882 8.6991C8.60632 8.6116 8.56257 8.52785 8.48257 8.49535Z" fill="#E59600"/>
<path d="M12.4088 2.93077C12.31 2.34077 10.6775 1.29077 10.0663 1.09702C8.41129 0.573272 7.33504 0.785772 6.75754 1.10077C6.63754 1.16577 5.86129 1.59702 5.31879 1.28827C4.97879 1.09452 4.00254 2.64327 3.51129 2.93952C2.93754 3.28577 2.98754 3.91577 3.07504 4.16077C2.76004 4.42827 2.36379 4.99702 2.63504 5.73577C2.84004 6.29202 3.65629 6.54827 3.65629 6.54827C3.57879 7.89077 3.94129 8.54202 3.94129 8.54202C3.94129 8.54202 4.52754 6.23577 4.47879 5.88327C4.47879 5.88327 5.44879 5.69077 6.55004 5.06077C7.29379 4.63452 7.80254 4.13577 8.63879 3.94702C9.91129 3.66077 10.195 4.58202 10.195 4.58202C10.195 4.58202 11.3725 4.35577 11.7275 5.99077C11.8738 6.66327 11.9688 7.77827 12.0488 8.46202C12.0413 8.40202 12.4538 7.67077 12.5313 6.92077C12.5513 6.72702 13.0738 6.47077 13.2988 5.63827C13.5988 4.52827 13.2688 3.32577 12.4088 2.93077Z" fill="#543930"/>
<path d="M13.2999 5.6377C13.1124 6.32895 12.7212 6.62269 12.5812 6.81394C12.3887 5.64269 12.4187 4.5302 10.9924 3.2127C10.9924 3.2127 11.2787 3.15145 11.4187 2.89645C11.5274 2.6977 11.4862 2.4502 11.4862 2.4502C11.5337 2.4527 11.5824 2.4577 11.6324 2.46395C11.8774 2.50895 12.1274 2.62895 12.3562 2.7827C12.3837 2.8352 12.4012 2.8852 12.4087 2.93145C13.2687 3.3252 13.5999 4.5277 13.2999 5.6377Z" fill="url(#paint6_radial_7207_15137)"/>
<path d="M3.04614 4.18633C2.74989 4.44883 2.35114 5.03508 2.64489 5.76258C2.86614 6.31133 3.65614 6.54883 3.65614 6.54883C3.65614 6.55133 3.81364 6.59883 3.89489 6.59883L4.07989 3.86133C3.70114 3.86133 3.33739 3.97508 3.10239 4.13883C3.10614 4.14258 3.04489 4.18258 3.04614 4.18633Z" fill="url(#paint7_radial_7207_15137)"/>
<path d="M4.0862 3.86297V3.85672C3.70745 3.85672 3.34495 3.97047 3.1087 4.13297C3.1087 4.13672 3.08995 4.15047 3.07495 4.16172V4.16047C3.0762 4.15922 3.0787 4.15797 3.07995 4.15672C2.99245 3.91172 2.9412 3.28172 3.5162 2.93547C3.5712 2.90172 3.63245 2.85297 3.6987 2.79172C3.8512 2.72922 4.0137 2.69297 4.1637 2.67797C4.20745 2.67422 4.28745 2.66797 4.3112 2.66797L4.91245 2.74172L4.0862 3.86297Z" fill="url(#paint8_radial_7207_15137)"/>
<path d="M14.5837 6.66211C14.4287 6.66211 14.3025 6.78211 14.3025 6.92961V8.07961C14.3025 8.22711 14.4287 8.34711 14.5837 8.34711C14.7387 8.34711 14.865 8.22711 14.865 8.07961V6.92961C14.865 6.78211 14.7387 6.66211 14.5837 6.66211ZM14.0212 6.66211C13.8662 6.66211 13.74 6.78211 13.74 6.92961V8.07961C13.74 8.22711 13.8662 8.34711 14.0212 8.34711C14.1762 8.34711 14.3025 8.22711 14.3025 8.07961V6.92961C14.3025 6.78211 14.1762 6.66211 14.0212 6.66211Z" fill="#E8AD00"/>
<path d="M14.3025 6.66211C14.1475 6.66211 14.0212 6.78211 14.0212 6.92961V8.32836C14.0212 8.47586 14.1475 8.59586 14.3025 8.59586C14.4575 8.59586 14.5837 8.47586 14.5837 8.32836V6.92961C14.5837 6.78211 14.4575 6.66211 14.3025 6.66211Z" fill="#FFCA28"/>
<path d="M14.3025 6.83719C14.4931 6.83719 14.6475 6.69 14.6475 6.50844C14.6475 6.32687 14.4931 6.17969 14.3025 6.17969C14.112 6.17969 13.9575 6.32687 13.9575 6.50844C13.9575 6.69 14.112 6.83719 14.3025 6.83719Z" fill="#FFCA28"/>
<path d="M14.3025 6.50488C14.2337 6.50488 14.1775 6.44863 14.1775 6.37988V1.62988C14.1775 1.56113 14.2337 1.50488 14.3025 1.50488C14.3712 1.50488 14.4275 1.56113 14.4275 1.62988V6.37988C14.4275 6.44863 14.3712 6.50488 14.3025 6.50488Z" fill="#504F4F"/>
<path d="M14.4275 1.5C10.5737 0.53125 7.92749 0.5 7.92749 0.5C7.92749 0.5 5.28124 0.53125 1.42749 1.5V1.59625C1.42749 1.7625 1.53624 1.90875 1.69499 1.955C2.15999 2.0925 3.12874 2.3725 3.76124 2.5C3.76124 2.5 3.62249 2.71375 3.51124 2.94C3.51124 2.94 4.75499 3.68 7.92749 4C11.1 3.68 12.4087 2.93125 12.4087 2.93125C12.2987 2.705 12.1612 2.5 12.1612 2.5C12.7237 2.4075 13.7012 2.1075 14.1662 1.96C14.3225 1.91 14.4275 1.76625 14.4275 1.6025V1.5Z" fill="url(#paint9_linear_7207_15137)"/>
<path d="M7.92749 0.5C7.92749 0.5 5.28124 0.53125 1.42749 1.5C1.42749 1.5 5.85374 2.70875 7.92749 2.6725C10.0012 2.70875 14.4275 1.5 14.4275 1.5C10.5725 0.53125 7.92749 0.5 7.92749 0.5Z" fill="url(#paint10_linear_7207_15137)"/>
<path opacity="0.4" d="M14.4275 1.5C10.5737 0.53125 7.92749 0.5 7.92749 0.5C7.92749 0.5 5.28124 0.53125 1.42749 1.5V1.59625C1.42749 1.7625 1.53624 1.90875 1.69499 1.955C2.15999 2.0925 3.12874 2.3725 3.76124 2.5C3.76124 2.5 3.62249 2.71375 3.51124 2.94C3.51124 2.94 4.75499 3.68 7.92749 4C11.1 3.68 12.4087 2.93125 12.4087 2.93125C12.2987 2.705 12.1612 2.5 12.1612 2.5C12.7237 2.4075 13.7012 2.1075 14.1662 1.96C14.3225 1.91 14.4275 1.76625 14.4275 1.6025V1.5Z" fill="url(#paint11_linear_7207_15137)"/>
<path d="M14.3125 15.1234C14.3125 13.2971 11.5938 12.4309 9.22253 12.2359L8.14753 13.6146C8.11253 13.6596 8.05753 13.6871 8.00003 13.6871C7.94253 13.6871 7.88753 13.6609 7.85253 13.6146L6.77503 12.2334C5.45628 12.3346 1.68628 12.8271 1.68628 15.1234V15.4996H14.3113L14.3125 15.1234Z" fill="#212121"/>
<path d="M14.3125 15.1234C14.3125 13.2971 11.5938 12.4309 9.22253 12.2359L8.14753 13.6146C8.11253 13.6596 8.05753 13.6871 8.00003 13.6871C7.94253 13.6871 7.88753 13.6609 7.85253 13.6146L6.77503 12.2334C5.45628 12.3346 1.68628 12.8271 1.68628 15.1234V15.4996H14.3113L14.3125 15.1234Z" fill="url(#paint12_radial_7207_15137)"/>
<defs>
<radialGradient id="paint0_radial_7207_15137" cx="0" cy="0" r="1" gradientUnits="userSpaceOnUse" gradientTransform="translate(9.8229 10.2573) scale(2.92738 1.43793)">
<stop offset="0.728" stop-color="#6D4C41" stop-opacity="0"/>
<stop offset="1" stop-color="#6D4C41"/>
</radialGradient>
<radialGradient id="paint1_radial_7207_15137" cx="0" cy="0" r="1" gradientUnits="userSpaceOnUse" gradientTransform="translate(12.7063 9.82187) rotate(154.924) scale(0.865081 0.641767)">
<stop offset="0.663" stop-color="#6D4C41"/>
<stop offset="1" stop-color="#6D4C41" stop-opacity="0"/>
</radialGradient>
<radialGradient id="paint2_radial_7207_15137" cx="0" cy="0" r="1" gradientTransform="matrix(-0.283471 -3.78923 3.15808 -0.236352 10.4644 7.37535)" gradientUnits="userSpaceOnUse">
<stop offset="0.725" stop-color="#6D4C41" stop-opacity="0"/>
<stop offset="1" stop-color="#6D4C41"/>
</radialGradient>
<radialGradient id="paint3_radial_7207_15137" cx="0" cy="0" r="1" gradientTransform="matrix(0.283471 -3.78923 -3.15808 -0.236352 5.5386 7.37528)" gradientUnits="userSpaceOnUse">
<stop offset="0.725" stop-color="#6D4C41" stop-opacity="0"/>
<stop offset="1" stop-color="#6D4C41"/>
</radialGradient>
<radialGradient id="paint4_radial_7207_15137" cx="0" cy="0" r="1" gradientUnits="userSpaceOnUse" gradientTransform="translate(6.1798 10.2573) rotate(180) scale(2.92737 1.43793)">
<stop offset="0.728" stop-color="#6D4C41" stop-opacity="0"/>
<stop offset="1" stop-color="#6D4C41"/>
</radialGradient>
<radialGradient id="paint5_radial_7207_15137" cx="0" cy="0" r="1" gradientUnits="userSpaceOnUse" gradientTransform="translate(3.29673 9.82195) rotate(25.0761) scale(0.865081 0.641767)">
<stop offset="0.663" stop-color="#6D4C41"/>
<stop offset="1" stop-color="#6D4C41" stop-opacity="0"/>
</radialGradient>
<radialGradient id="paint6_radial_7207_15137" cx="0" cy="0" r="1" gradientTransform="matrix(1.30253 4.02913 2.98956 -0.966313 10.3588 5.43289)" gradientUnits="userSpaceOnUse">
<stop offset="0.699" stop-color="#6D4C41" stop-opacity="0"/>
<stop offset="1" stop-color="#6D4C41"/>
</radialGradient>
<radialGradient id="paint7_radial_7207_15137" cx="0" cy="0" r="1" gradientTransform="matrix(2.09112 0.287695 0.404209 -2.93838 4.81686 5.41248)" gradientUnits="userSpaceOnUse">
<stop offset="0.598" stop-color="#6D4C41" stop-opacity="0"/>
<stop offset="1" stop-color="#6D4C41"/>
</radialGradient>
<radialGradient id="paint8_radial_7207_15137" cx="0" cy="0" r="1" gradientTransform="matrix(-1.56214 -0.420259 -0.393406 1.46185 4.63555 4.02842)" gradientUnits="userSpaceOnUse">
<stop offset="0.66" stop-color="#6D4C41" stop-opacity="0"/>
<stop offset="1" stop-color="#6D4C41"/>
</radialGradient>
<linearGradient id="paint9_linear_7207_15137" x1="7.92712" y1="-0.041625" x2="7.92712" y2="3.53838" gradientUnits="userSpaceOnUse">
<stop offset="0.003" stop-color="#424242"/>
<stop offset="0.472" stop-color="#353535"/>
<stop offset="1" stop-color="#212121"/>
</linearGradient>
<linearGradient id="paint10_linear_7207_15137" x1="7.92712" y1="-0.020875" x2="7.92712" y2="3.85412" gradientUnits="userSpaceOnUse">
<stop offset="0.003" stop-color="#616161"/>
<stop offset="0.324" stop-color="#505050"/>
<stop offset="0.955" stop-color="#242424"/>
<stop offset="1" stop-color="#212121"/>
</linearGradient>
<linearGradient id="paint11_linear_7207_15137" x1="1.66362" y1="2.24987" x2="14.2671" y2="2.24987" gradientUnits="userSpaceOnUse">
<stop offset="0.001" stop-color="#BFBEBE"/>
<stop offset="0.3" stop-color="#212121" stop-opacity="0"/>
<stop offset="0.7" stop-color="#212121" stop-opacity="0"/>
<stop offset="1" stop-color="#BFBEBE"/>
</linearGradient>
<radialGradient id="paint12_radial_7207_15137" cx="0" cy="0" r="1" gradientUnits="userSpaceOnUse" gradientTransform="translate(8.00003 15.325) scale(6.77088 3.55268)">
<stop offset="0.598" stop-color="#212121"/>
<stop offset="1" stop-color="#616161"/>
</radialGradient>
</defs>
</svg>
