<svg width="12" height="12" viewBox="0 0 12 12" fill="none" xmlns="http://www.w3.org/2000/svg">
<path d="M2.66667 10.6667V6.66667H9.33333V10.6667H10.6667V3.21333L8.78667 1.33333H1.33333V10.6667H2.66667ZM0.666667 0H9.33333L12 2.66667V11.3333C12 11.52 11.9356 11.6778 11.8067 11.8067C11.6778 11.9356 11.52 12 11.3333 12H0.666667C0.48 12 0.322222 11.9356 0.193333 11.8067C0.0644444 11.6778 0 11.52 0 11.3333V0.666666C0 0.48 0.0644444 0.322222 0.193333 0.193333C0.322222 0.0644445 0.48 0 0.666667 0ZM4 8V10.6667H8V8H4Z" fill="#374151"/>
</svg>
