<svg width="12" height="12" viewBox="0 0 12 12" fill="none" xmlns="http://www.w3.org/2000/svg">
<path d="M0 0.666666C0 0.48 0.0644444 0.322222 0.193333 0.193333C0.322222 0.0644445 0.48 0 0.666667 0H11.3333C11.52 0 11.6778 0.0644445 11.8067 0.193333C11.9356 0.322222 12 0.48 12 0.666666V11.3333C12 11.52 11.9356 11.6778 11.8067 11.8067C11.6778 11.9356 11.52 12 11.3333 12H0.666667C0.48 12 0.322222 11.9356 0.193333 11.8067C0.0644444 11.6778 0 11.52 0 11.3333V0.666666ZM1.33333 1.33333V10.6667H10.6667V1.33333H1.33333ZM5.08 3.61333L8.33333 5.77333C8.39556 5.81778 8.43333 5.87556 8.44667 5.94667C8.46 6.01778 8.44889 6.08444 8.41333 6.14667C8.38667 6.17333 8.36 6.2 8.33333 6.22667L5.08 8.38667C5.01778 8.43111 4.95111 8.44667 4.88 8.43333C4.80889 8.42 4.75111 8.38222 4.70667 8.32C4.68 8.27556 4.66667 8.22667 4.66667 8.17333V3.82667C4.66667 3.75556 4.69333 3.69333 4.74667 3.64C4.8 3.58667 4.86222 3.56 4.93333 3.56C4.98667 3.56 5.03556 3.57778 5.08 3.61333Z" fill="#923D8C"/>
</svg>
