<svg width="233" height="233" viewBox="0 0 233 233" fill="none" xmlns="http://www.w3.org/2000/svg">
<g clip-path="url(#clip0_2085_5380)">
<path d="M116.502 222.522C180.844 222.522 233.004 172.709 233.004 111.261C233.004 49.8133 180.844 0 116.502 0C52.1596 0 0 49.8133 0 111.261C0 172.709 52.1596 222.522 116.502 222.522Z" fill="#80C7DA"/>
<mask id="mask0_2085_5380" style="mask-type:luminance" maskUnits="userSpaceOnUse" x="0" y="0" width="233" height="223">
<path d="M116.502 222.522C180.844 222.522 233.004 172.709 233.004 111.261C233.004 49.8133 180.844 0 116.502 0C52.1596 0 0 49.8133 0 111.261C0 172.709 52.1596 222.522 116.502 222.522Z" fill="white"/>
</mask>
<g mask="url(#mask0_2085_5380)">
<path d="M162.239 233V201.469C162.239 201.469 162.214 200.916 162.045 199.949H26.7331C26.5638 200.913 26.5391 201.469 26.5391 201.469V233H162.239Z" fill="#221F1F"/>
<path d="M83.2031 50.2124C83.2031 46.4154 86.4557 43.3125 90.428 43.3125H196.438C200.41 43.3125 203.663 46.4154 203.663 50.2124V138.924C203.663 142.721 200.41 145.824 196.438 145.824H90.428C86.4522 145.824 83.2031 142.718 83.2031 138.924V50.2124Z" fill="url(#paint0_linear_2085_5380)"/>
<path d="M196.438 43.3125H90.428C86.4522 43.3125 83.2031 46.4154 83.2031 50.2124V51.7656C83.2031 47.9686 86.4557 44.8657 90.428 44.8657H196.438C200.41 44.8657 203.663 47.9686 203.663 51.7656V50.2124C203.663 46.4154 200.41 43.3125 196.438 43.3125Z" fill="url(#paint1_linear_2085_5380)"/>
<path d="M196.438 145.825H90.428C86.4522 145.825 83.2031 142.718 83.2031 138.925V137.375C83.2031 141.169 86.4557 144.275 90.428 144.275H196.438C200.41 144.275 203.663 141.169 203.663 137.375V138.925C203.663 142.722 200.41 145.825 196.438 145.825Z" fill="url(#paint2_linear_2085_5380)"/>
<path d="M190.605 50.5391C193.428 50.5391 195.724 52.7323 195.724 55.4276V133.537C195.724 136.232 193.428 138.429 190.605 138.429H94.7942C91.972 138.429 89.6719 136.235 89.6719 133.537V55.4276C89.6719 52.7323 91.972 50.5391 94.7942 50.5391H190.605Z" fill="url(#paint3_linear_2085_5380)"/>
<path d="M194.695 133.536C194.695 135.689 192.85 137.448 190.599 137.448H94.7911C92.5368 137.448 90.6953 135.686 90.6953 133.536V55.4271C90.6953 53.2743 92.5368 51.5156 94.7911 51.5156H190.602C192.853 51.5156 194.698 53.2777 194.698 55.4271V133.536H194.695Z" fill="url(#paint4_linear_2085_5380)"/>
<path opacity="0.15" d="M142.517 47.9916C144.62 52.4961 147.252 62.6674 143.1 82.1678C148.13 87.0866 145.537 102.81 135.476 104.704C133.035 111.984 127.242 117.661 127.242 117.661L128.463 120.717C128.463 120.717 165.053 123.79 180.603 150.5C146.758 150.5 114.133 150.5 114.133 150.5L97.8203 130.407V47.9883L142.517 47.9916Z" fill="black"/>
<path d="M96.2452 125.555C145.722 125.555 158.112 147.848 161.195 158.208C162.13 161.345 162.211 169.205 162.211 169.205V201.211C162.211 201.211 147.324 219.734 95.0246 219.734C43.2648 219.734 26.5078 201.211 26.5078 201.211V167.237C26.5078 167.237 26.589 161.318 27.5415 158.147C29.8663 150.395 37.384 136.056 61.5882 129.284C69.8079 126.983 79.9538 125.558 92.474 125.558H96.2452V125.555Z" fill="url(#paint5_radial_2085_5380)"/>
<path d="M27.4062 158.574C27.4451 158.425 27.4839 158.281 27.5227 158.142C29.851 150.387 37.3652 136.051 61.5694 129.276C63.0934 128.851 64.7056 128.464 66.3636 128.104C68.3251 131.877 70.8263 137.173 73.8849 144.568C49.3032 144.572 32.3628 155.08 27.4062 158.574ZM161.275 158.574C161.237 158.425 161.198 158.281 161.159 158.142C158.831 150.387 151.316 136.051 127.112 129.276C125.588 128.851 123.976 128.464 122.318 128.104C120.356 131.877 117.855 137.173 114.797 144.568C139.382 144.572 156.319 155.08 161.275 158.574Z" fill="url(#paint6_radial_2085_5380)"/>
<path d="M91.3369 116.895L65.0302 126.739C65.0302 126.739 62.2891 136.324 62.2891 156.424C68.1417 166.474 71.8282 173.62 71.8282 173.62L78.1147 194.835L91.3193 219.77H94.3602H97.4012L110.606 194.835L116.892 173.62C116.892 173.62 120.579 166.474 126.431 156.424C126.431 136.324 123.69 126.739 123.69 126.739L97.3835 116.895H91.3369Z" fill="url(#paint7_radial_2085_5380)"/>
<path d="M118.545 133.878L116.118 139.002L109.944 142.092H94.3584H80.7411L72.3415 140.02L70.1719 134.356V109.357H118.545V133.878Z" fill="url(#paint8_radial_2085_5380)"/>
<path d="M91.5367 142.094C91.5367 142.094 85.3172 146.197 84.019 156.072C83.4722 157.356 82.4385 156.072 82.4385 156.072C82.4385 156.072 70.9662 146.629 64.2422 128.301C67.4066 120.367 68.5955 119.231 68.5955 119.231C68.5955 119.231 69.5198 118.601 70.1759 119.231C70.5816 120.175 75.7146 133.594 91.5367 142.094Z" fill="url(#paint9_radial_2085_5380)"/>
<path d="M97.1797 142.094C97.1797 142.094 103.399 146.197 104.697 156.072C105.248 157.356 106.281 156.072 106.281 156.072C106.281 156.072 117.754 146.629 124.478 128.301C121.313 120.367 120.124 119.231 120.124 119.231C120.124 119.231 119.2 118.601 118.544 119.231C118.135 120.175 113.005 133.594 97.1797 142.094Z" fill="url(#paint10_radial_2085_5380)"/>
<path d="M95.3034 219.769L93.7689 219.722C93.7689 219.722 90.361 214.025 83.2031 197.587C83.764 179.788 89.726 156.548 89.726 156.548C89.726 156.548 86.9496 154.079 87.2989 150.481C89.0734 144.416 92.6223 143.254 92.6223 143.254H96.3371C96.3371 143.254 99.8861 144.416 101.661 150.481C102.01 154.079 99.2334 156.548 99.2334 156.548C99.2334 156.548 105.195 179.788 105.756 197.587C98.5984 214.025 95.1906 219.722 95.1906 219.722L93.656 219.769H95.3034Z" fill="url(#paint11_radial_2085_5380)"/>
<path d="M137.107 167.959L116.23 177.938C116.23 177.938 115.344 176.985 127.215 187.435C112.624 212.249 101.247 219.735 101.247 219.735C101.247 219.735 101.247 219.735 97.0419 219.735C125.977 164.782 124.545 128.389 124.545 128.389C137.453 148.054 137.107 167.959 137.107 167.959ZM51.6181 167.959L72.4955 177.938C72.4955 177.938 73.381 176.985 61.51 187.435C76.1045 212.249 87.4781 219.735 87.4781 219.735C87.4781 219.735 87.4781 219.735 91.6832 219.735C62.7447 164.782 64.1805 128.389 64.1805 128.389C51.2759 148.054 51.6181 167.959 51.6181 167.959Z" fill="url(#paint12_radial_2085_5380)"/>
<path d="M107.702 107.766C103.818 105.367 97.1084 105.411 94.5825 105.526C92.0531 105.411 85.3432 105.367 81.4627 107.766C76.612 110.765 77.8961 115.805 77.8961 115.805C77.8961 115.805 82.6057 112.81 90.7372 112.399C92.9033 112.089 94.1239 111.348 94.5825 111.007C95.0447 111.348 96.2618 112.089 98.4278 112.399C106.559 112.81 111.269 115.805 111.269 115.805C111.269 115.805 112.553 110.765 107.702 107.766Z" fill="url(#paint13_radial_2085_5380)"/>
<path d="M124.544 128.393C124.544 128.393 135.24 147.947 135.24 166.992C122.459 173.501 115.322 177.073 115.322 177.073L115.082 177.804C115.005 178.029 114.934 178.255 114.857 178.484L114.684 179.007L125.359 187.992C125.359 187.992 115.097 206.522 101.25 219.742C101.25 219.742 112.627 212.256 127.218 187.443C117.947 179.279 116.458 178.077 116.25 177.939L137.11 167.966C137.106 167.959 137.452 148.055 124.544 128.393Z" fill="url(#paint14_radial_2085_5380)"/>
<path d="M64.181 128.393C64.181 128.393 53.4848 147.947 53.4848 166.992C66.266 173.501 73.4027 177.073 73.4027 177.073L73.6461 177.804C73.7202 178.029 73.7943 178.255 73.8719 178.484L74.0447 179.007L63.3697 187.992C63.3697 187.992 73.632 206.522 87.4786 219.742C87.4786 219.742 76.1015 212.256 61.5105 187.443C70.7815 179.279 72.2703 178.077 72.4784 177.939L51.6186 167.966C51.6151 167.959 51.2729 148.055 64.181 128.393Z" fill="url(#paint15_radial_2085_5380)"/>
<path d="M107.702 106.233C103.818 103.834 97.1084 103.878 94.5825 103.993C92.0531 103.878 85.3432 103.834 81.4627 106.233C76.612 109.231 77.8961 114.272 77.8961 114.272C77.8961 114.272 82.6057 111.277 90.7372 110.865C92.9033 110.556 94.1239 109.814 94.5825 109.474C95.0447 109.814 96.2618 110.556 98.4278 110.865C106.559 111.277 111.269 114.272 111.269 114.272C111.269 114.272 112.553 109.231 107.702 106.233Z" fill="url(#paint16_linear_2085_5380)"/>
<path d="M134.956 80.6591C134.769 80.6186 134.586 80.595 134.395 80.5816C133.697 54.6766 116.026 33.9297 94.3126 33.9297C72.6026 33.9297 54.9319 54.6766 54.2334 80.5816C54.0464 80.595 53.8594 80.6186 53.6725 80.6591C50.4304 81.3666 48.7653 85.9688 49.9542 90.9382C51.0972 95.7088 54.4521 99.0712 57.5883 98.7073C65.1942 117.204 83.7822 130.411 94.3091 130.411C105.799 130.411 123.84 117.214 131.167 98.7275C134.265 98.9836 137.546 95.6448 138.671 90.9415C139.863 85.9721 138.198 81.3666 134.956 80.6591Z" fill="url(#paint17_radial_2085_5380)"/>
<path d="M57.7117 84.4601L59.2216 80.3869C59.2216 80.3869 79.8945 79.3054 102.077 68.8983C98.7611 72.702 97.6992 74.2854 97.6992 74.2854C97.6992 74.2854 113.327 70.3267 124.927 60.2666C123.745 70.2156 132.441 71.607 132.025 77.6781C132.025 68.1806 132.025 50.7422 132.025 50.7422H55.7891V80.7339L57.7117 84.4601Z" fill="url(#paint18_radial_2085_5380)"/>
<path d="M128.007 41.4427C128.007 41.4427 126.366 33.4478 115.691 27.9663C110.152 25.1228 99.5479 24.3917 91.0389 26.2817C76.1022 29.5936 65.9916 37.1605 59.6945 44.8623C57.9835 46.9545 50.1871 57.0989 51.2948 73.8567C51.6864 77.9637 52.3355 81.3597 52.3355 81.3597C52.3355 81.3597 53.4573 80.7028 54.0182 80.6118C54.745 82.9702 55.6269 85.5509 56.7099 88.6808C58.6255 87.5589 57.1474 82.9668 57.8071 79.1631C86.3963 77.3876 109.101 63.3047 115.077 59.2618C115.275 59.2045 115.458 59.1439 115.645 59.0866C112.982 61.5056 105.302 68.2068 97.2866 72.5462C119.632 64.9253 125.438 57.7862 126.86 55.2829C126.874 55.8422 126.927 56.3981 127.012 56.9439C126.924 58.0153 126.849 59.3124 126.849 60.6533C126.849 65.3531 129.785 69.7161 130.533 71.148C131.369 72.755 132.455 77.2056 131.93 80.8611C131.577 84.2336 130.899 87.3197 132.96 88.6808C133.778 86.319 134.565 83.6103 135.274 80.7499C136.082 80.8914 136.826 81.6292 136.826 81.6292C136.826 81.6292 141.074 67.0714 139.296 53.7601C137.253 41.2877 128.007 41.4427 128.007 41.4427Z" fill="url(#paint19_radial_2085_5380)"/>
<path d="M116.827 34.6641C113.789 35.2436 110.449 36.6923 108.321 38.7239C112.512 38.0939 115.306 37.8546 118.647 38.4341C116.774 40.5095 113.486 42.7836 110.449 44.5255C114.114 43.9426 116.827 42.787 119.864 42.2075C117.434 45.3981 115.042 47.2511 110.449 50.3304C112.576 49.7509 115.003 48.5886 117.13 47.7194C108.921 57.5504 78.0352 69.2479 65.8008 68.8941C68.9793 64.2886 72.1755 61.4922 77.3437 57.291C72.045 58.6925 68.9829 59.71 64.8906 61.6405C67.9281 55.5491 72.8423 50.4281 80.3812 45.9775C76.4336 45.9775 68.8382 50.0373 65.5009 52.9381C67.6247 50.327 70.7785 46.2639 73.509 43.9426C71.3853 44.5255 68.5842 45.8495 65.5009 48.2955C77.7671 30.4629 104.79 28.283 116.827 34.6641Z" fill="url(#paint20_radial_2085_5380)"/>
<path d="M130.236 43.3125C130.236 43.3125 136.388 44.0941 138.082 52.9616C138.833 57.2774 138.558 61.2496 138.558 61.2496C138.558 61.2496 137.955 57.3381 137.267 55.7209C137.591 58.4397 137.256 61.8122 137.256 61.8122C137.256 61.8122 136.96 60.4477 136.625 59.4437C136.279 58.4162 135.697 57.6379 135.697 57.6379C135.697 57.6379 135.912 59.282 135.785 60.9295C135.658 62.577 135.28 64.0223 135.28 64.0223C135.28 64.0223 135.03 62.9004 134.483 61.7752C133.936 60.6532 133.375 59.8615 133.375 59.8615C133.375 59.8615 133.559 61.7347 133.39 63.5035C133.22 65.2723 132.843 66.9568 132.843 66.9568C132.843 66.9568 129.675 61.0003 129.989 56.6844C130.303 52.3686 129.047 50.9907 129.047 50.9907C129.047 50.9907 130.744 52.4293 130.994 54.1071C131.164 51.5365 129.865 48.8311 129.361 47.8743C130.828 48.6458 131.499 50.172 131.499 50.172C131.499 50.172 131.499 49.5723 131.202 48.3257C130.91 47.0792 130.049 45.7753 130.049 45.7753C130.049 45.7753 130.768 45.8966 131.326 46.1964C132 46.5603 132.504 47.16 132.504 47.16C132.504 47.16 131.682 44.4513 130.236 43.3125Z" fill="url(#paint21_radial_2085_5380)"/>
</g>
</g>
<defs>
<linearGradient id="paint0_linear_2085_5380" x1="211.056" y1="146.792" x2="9.54244" y2="-23.8367" gradientUnits="userSpaceOnUse">
<stop stop-color="#753A15"/>
<stop offset="0.0355" stop-color="#783D17"/>
<stop offset="0.6855" stop-color="#AA7442"/>
<stop offset="1" stop-color="#BD8A53"/>
</linearGradient>
<linearGradient id="paint1_linear_2085_5380" x1="143.433" y1="6.48075" x2="143.433" y2="53.3913" gradientUnits="userSpaceOnUse">
<stop stop-color="#753A15"/>
<stop offset="0.0355" stop-color="#783D17"/>
<stop offset="0.6855" stop-color="#AA7442"/>
<stop offset="1" stop-color="#BD8A53"/>
</linearGradient>
<linearGradient id="paint2_linear_2085_5380" x1="143.433" y1="144.831" x2="143.433" y2="174.367" gradientUnits="userSpaceOnUse">
<stop stop-color="#753A15"/>
<stop offset="0.0355" stop-color="#783D17"/>
<stop offset="0.6855" stop-color="#AA7442"/>
<stop offset="1" stop-color="#BD8A53"/>
</linearGradient>
<linearGradient id="paint3_linear_2085_5380" x1="106.168" y1="29.809" x2="180.186" y2="173.487" gradientUnits="userSpaceOnUse">
<stop stop-color="#753A15"/>
<stop offset="0.0355" stop-color="#783D17"/>
<stop offset="0.6855" stop-color="#AA7442"/>
<stop offset="1" stop-color="#BD8A53"/>
</linearGradient>
<linearGradient id="paint4_linear_2085_5380" x1="186.431" y1="122.327" x2="83.8498" y2="50.7188" gradientUnits="userSpaceOnUse">
<stop stop-color="#456A66"/>
<stop offset="0.516" stop-color="#4B857C"/>
<stop offset="1" stop-color="#509B8D"/>
</linearGradient>
<radialGradient id="paint5_radial_2085_5380" cx="0" cy="0" r="1" gradientUnits="userSpaceOnUse" gradientTransform="translate(82.8006 142.107) scale(96.8023 92.4477)">
<stop stop-color="#BEBDD9"/>
<stop offset="1" stop-color="#6D6977"/>
</radialGradient>
<radialGradient id="paint6_radial_2085_5380" cx="0" cy="0" r="1" gradientUnits="userSpaceOnUse" gradientTransform="translate(95.0735 132.344) scale(128.268 122.498)">
<stop stop-color="#BEBDD9"/>
<stop offset="1" stop-color="#6D6977"/>
</radialGradient>
<radialGradient id="paint7_radial_2085_5380" cx="0" cy="0" r="1" gradientUnits="userSpaceOnUse" gradientTransform="translate(94.3601 168.332) rotate(-90) scale(42.331 44.3249)">
<stop stop-color="#F1F1F2"/>
<stop offset="0.4011" stop-color="#F1F1F2"/>
<stop offset="1" stop-color="#D1D3D4"/>
</radialGradient>
<radialGradient id="paint8_radial_2085_5380" cx="0" cy="0" r="1" gradientUnits="userSpaceOnUse" gradientTransform="translate(35.5209 81.5538) scale(99.6845 95.2003)">
<stop stop-color="#FDDEDC"/>
<stop offset="0.4451" stop-color="#FBCDC0"/>
<stop offset="1" stop-color="#CA8D88"/>
</radialGradient>
<radialGradient id="paint9_radial_2085_5380" cx="0" cy="0" r="1" gradientTransform="matrix(8.73285 -11.748 -12.3013 -8.34001 76.3011 137.69)" gradientUnits="userSpaceOnUse">
<stop stop-color="#F1F1F2"/>
<stop offset="0.4011" stop-color="#F1F1F2"/>
<stop offset="1" stop-color="#D1D3D4"/>
</radialGradient>
<radialGradient id="paint10_radial_2085_5380" cx="0" cy="0" r="1" gradientTransform="matrix(-8.91068 -11.6231 -12.1706 8.50984 112.414 137.69)" gradientUnits="userSpaceOnUse">
<stop stop-color="#F1F1F2"/>
<stop offset="0.4011" stop-color="#F1F1F2"/>
<stop offset="1" stop-color="#D1D3D4"/>
</radialGradient>
<radialGradient id="paint11_radial_2085_5380" cx="0" cy="0" r="1" gradientUnits="userSpaceOnUse" gradientTransform="translate(49.8132 124.829) rotate(180) scale(100.305 95.7934)">
<stop stop-color="#9E0B0F"/>
<stop offset="1" stop-color="#941C24"/>
</radialGradient>
<radialGradient id="paint12_radial_2085_5380" cx="0" cy="0" r="1" gradientUnits="userSpaceOnUse" gradientTransform="translate(89.6198 66.9146) scale(128.777 122.984)">
<stop stop-color="#BEBDD9"/>
<stop offset="1" stop-color="#6D6977"/>
</radialGradient>
<radialGradient id="paint13_radial_2085_5380" cx="0" cy="0" r="1" gradientUnits="userSpaceOnUse" gradientTransform="translate(94.6831 86.851) scale(39.1676 37.4057)">
<stop stop-color="#FCDEDD"/>
<stop offset="0.4451" stop-color="#FBCDBF"/>
<stop offset="0.697" stop-color="#E7B2A8"/>
<stop offset="0.7939" stop-color="#E9B6AB"/>
<stop offset="0.9515" stop-color="#FBCDBF"/>
</radialGradient>
<radialGradient id="paint14_radial_2085_5380" cx="0" cy="0" r="1" gradientUnits="userSpaceOnUse" gradientTransform="translate(-51262.5 -50717.7) rotate(-90) scale(8527.4 8929.07)">
<stop stop-color="#BEBDD9"/>
<stop offset="1" stop-color="#6D6977"/>
</radialGradient>
<radialGradient id="paint15_radial_2085_5380" cx="0" cy="0" r="1" gradientUnits="userSpaceOnUse" gradientTransform="translate(-51204.4 -50717.7) rotate(-90) scale(8518.79 8920.05)">
<stop stop-color="#BEBDD9"/>
<stop offset="1" stop-color="#6D6977"/>
</radialGradient>
<linearGradient id="paint16_linear_2085_5380" x1="94.5813" y1="102.519" x2="94.5813" y2="115.781" gradientUnits="userSpaceOnUse">
<stop stop-color="#E6E7E8"/>
<stop offset="0.00549451" stop-color="#E6E7E8"/>
<stop offset="0.1445" stop-color="#DFE0E1"/>
<stop offset="0.3449" stop-color="#CCCDCE"/>
<stop offset="0.5826" stop-color="#ADAEB0"/>
<stop offset="0.8466" stop-color="#828385"/>
<stop offset="1" stop-color="#656769"/>
</linearGradient>
<radialGradient id="paint17_radial_2085_5380" cx="0" cy="0" r="1" gradientUnits="userSpaceOnUse" gradientTransform="translate(94.7829 86.0763) scale(59.8428 57.1508)">
<stop stop-color="#FCDEDE"/>
<stop offset="0.4451" stop-color="#FCCDBE"/>
<stop offset="1" stop-color="#CC8D88"/>
</radialGradient>
<radialGradient id="paint18_radial_2085_5380" cx="0" cy="0" r="1" gradientUnits="userSpaceOnUse" gradientTransform="translate(101.885 99.1793) scale(56.9526 54.3907)">
<stop stop-color="#FCDEDE"/>
<stop offset="0.4451" stop-color="#FCCDBE"/>
<stop offset="1" stop-color="#CC8D88"/>
</radialGradient>
<radialGradient id="paint19_radial_2085_5380" cx="0" cy="0" r="1" gradientTransform="matrix(1.70417 50.7953 53.1879 -1.62751 91.8731 36.2438)" gradientUnits="userSpaceOnUse">
<stop stop-color="#75452F"/>
<stop offset="0.5212" stop-color="#75452F"/>
<stop offset="1" stop-color="#4B2A19"/>
</radialGradient>
<radialGradient id="paint20_radial_2085_5380" cx="0" cy="0" r="1" gradientTransform="matrix(-56.9072 37.1473 38.897 54.3473 89.0198 48.5727)" gradientUnits="userSpaceOnUse">
<stop stop-color="#A96B46"/>
<stop offset="1" stop-color="#4B2713"/>
</radialGradient>
<radialGradient id="paint21_radial_2085_5380" cx="0" cy="0" r="1" gradientTransform="matrix(9.88479 39.3333 41.186 -9.44013 133.725 54.631)" gradientUnits="userSpaceOnUse">
<stop stop-color="#A96B46"/>
<stop offset="1" stop-color="#4B2713"/>
</radialGradient>
<clipPath id="clip0_2085_5380">
<rect width="233" height="233" fill="white"/>
</clipPath>
</defs>
</svg>
