<svg width="232" height="238" viewBox="0 0 232 238" fill="none" xmlns="http://www.w3.org/2000/svg">
<g clip-path="url(#clip0_2085_5353)">
<path d="M116.5 233C180.841 233 233 180.841 233 116.5C233 52.1588 180.841 0 116.5 0C52.1588 0 0 52.1588 0 116.5C0 180.841 52.1588 233 116.5 233Z" fill="#81BC00"/>
<mask id="mask0_2085_5353" style="mask-type:luminance" maskUnits="userSpaceOnUse" x="0" y="0" width="233" height="233">
<path d="M116.002 232.771C180.068 232.771 232.004 180.663 232.004 116.385C232.004 52.1075 180.068 0 116.002 0C51.9359 0 0 52.1075 0 116.385C0 180.663 51.9359 232.771 116.002 232.771Z" fill="white"/>
</mask>
<g mask="url(#mask0_2085_5353)">
<path d="M176.948 53.373H172.734V89.2255H176.948V53.373Z" fill="#FFA900"/>
<path fill-rule="evenodd" clip-rule="evenodd" d="M109.786 10.74C111.757 9.81717 114.954 9.7908 116.925 10.674L197.224 46.8473C199.146 47.713 199.037 49.1147 196.987 49.976L116.492 83.8335C114.639 84.6157 111.639 84.5893 109.795 83.7764L32.6762 49.9277C30.7842 49.0971 30.6922 47.7525 32.4748 46.9176L109.786 10.74Z" fill="black"/>
<path d="M187.466 174.591C177.572 167.046 165.493 164.273 155.805 161.795C146.156 159.325 138.873 157.137 138.478 150.809C138.478 137.429 132.316 131.154 126.443 128.214C123.241 127.494 119.913 127.111 116.496 127.111C112.664 127.111 108.946 127.59 105.394 128.487C99.573 131.541 93.5289 137.833 93.5289 150.809C93.1567 156.794 86.6221 159.075 77.7531 161.391C77.4771 161.461 77.2012 161.536 76.9165 161.606C76.8946 161.61 76.8771 161.615 76.8552 161.624C67.0621 164.15 54.6586 166.87 44.537 174.591C29.8167 185.814 27.6005 215.528 27.4297 229.941C53.3097 235.055 83.6088 238 116.001 238C148.39 238 178.693 235.055 204.573 229.941C204.402 215.528 202.186 185.814 187.466 174.591Z" fill="#E9BC94"/>
<path d="M158.86 90.4687C158.86 90.4511 158.86 90.4335 158.86 90.4159C158.86 59.942 143.952 42.9935 121.339 40.5327C119.421 40.3262 117.45 40.2207 115.426 40.2207C113.403 40.2207 111.432 40.3262 109.514 40.5327C86.8965 42.9935 71.9922 59.942 71.9922 90.4159C71.9922 90.4335 71.9922 90.4511 71.9922 90.4687C71.9922 90.6532 71.9966 90.8378 72.0009 91.0311C72.1586 101.902 76.4552 120.675 84.0102 135.224C91.7055 150.05 105.944 159.937 115.426 159.937C124.908 159.937 139.147 150.05 146.842 135.224C154.397 120.67 158.694 101.902 158.851 91.0311C158.856 90.8378 158.86 90.6488 158.86 90.4687Z" fill="#F0D0B4"/>
<path d="M121.339 40.5327C119.421 40.3262 117.45 40.2207 115.426 40.2207C113.403 40.2207 111.432 40.3262 109.514 40.5327C86.8965 42.9935 71.9922 59.942 71.9922 90.4159C71.9922 90.4335 71.9922 90.4511 71.9922 90.4687C71.9922 90.6532 71.9966 90.8378 72.0009 91.0311C72.0666 95.5176 72.8375 101.358 74.2521 107.685C74.4843 108.718 78.7764 106.266 78.8815 105.106C79.5429 97.9037 80.3882 92.2615 86.4673 90.0424C93.5231 87.4674 124.317 89.1856 124.317 89.1856C124.317 89.1856 124.957 83.394 130.09 78.8855C128.079 84.8353 129.923 89.0625 129.923 89.0625C129.923 89.0625 144.652 86.9181 146.768 93.4743C148.883 100.03 150.937 104.354 152.221 105.963C153.504 107.571 155.742 107.698 156.521 108.015C157.984 101.56 158.781 95.5967 158.847 91.0311C158.851 90.8422 158.851 90.6532 158.856 90.4687C158.856 90.4511 158.856 90.4335 158.856 90.4159C158.865 59.942 143.956 42.9935 121.339 40.5327Z" fill="#3F1D10"/>
<path fill-rule="evenodd" clip-rule="evenodd" d="M187.462 174.592C177.569 167.047 165.489 164.274 155.801 161.796C146.153 159.326 138.869 157.138 138.475 150.81C138.475 150.239 138.462 149.686 138.44 149.141L119.83 163.316L116.143 168.778L111.929 163.141L93.5255 150.586C93.5255 150.661 93.5211 150.736 93.5211 150.815C93.1488 156.8 86.6143 159.08 77.7453 161.396C77.4693 161.466 77.1934 161.541 76.9087 161.611C76.8868 161.616 76.8693 161.62 76.8474 161.629C67.0543 164.156 54.6508 166.876 44.5292 174.596C29.8088 185.819 27.5927 215.533 27.4219 229.946C53.3018 235.061 83.601 238.005 115.994 238.005C148.382 238.005 178.685 235.061 204.565 229.946C204.399 215.529 202.183 185.815 187.462 174.592Z" fill="#F1F2F2"/>
<path fill-rule="evenodd" clip-rule="evenodd" d="M108.477 171.806C108.315 172.571 107.702 172.826 107.106 172.364L91.0193 157.916C90.4762 157.499 90.2047 156.598 90.4149 155.908L92.4603 149.211C92.6573 148.561 93.2442 148.359 93.7742 148.75L111.919 162.279C112.493 162.706 112.839 163.637 112.686 164.358L108.477 171.806Z" fill="#E6E7E8"/>
<path fill-rule="evenodd" clip-rule="evenodd" d="M123.316 171.806C123.478 172.571 124.091 172.826 124.686 172.364L140.773 157.916C141.316 157.499 141.584 156.598 141.378 155.908L139.332 149.211C139.135 148.561 138.548 148.359 138.018 148.75L119.873 162.279C119.299 162.706 118.953 163.637 119.107 164.358L123.316 171.806Z" fill="#E6E7E8"/>
<path fill-rule="evenodd" clip-rule="evenodd" d="M123.373 185.511C122.716 175.866 122.055 173.489 120.609 169.92C119.177 166.392 118.901 163.9 115.971 163.716V163.707C115.954 163.707 115.936 163.711 115.918 163.711C115.901 163.711 115.883 163.707 115.866 163.707V163.716C112.936 163.9 112.66 166.392 111.228 169.92C109.778 173.489 109.121 175.866 108.464 185.511C107.807 195.157 102.013 201.893 105.832 208.765C109.371 215.133 115.056 221.043 115.87 221.873V221.974C115.87 221.974 115.892 221.952 115.923 221.922C115.954 221.952 115.975 221.974 115.975 221.974V221.873C116.79 221.043 122.475 215.133 126.014 208.765C129.824 201.893 124.03 195.157 123.373 185.511Z" fill="#1C1819"/>
<path fill-rule="evenodd" clip-rule="evenodd" d="M187.462 174.593C177.569 167.048 165.489 164.275 155.801 161.797C153.813 161.287 151.925 160.79 150.178 160.268L116.37 221.563L82.4535 160.074C80.9819 160.531 79.4052 160.962 77.7453 161.397C77.4693 161.467 77.1934 161.542 76.9087 161.612C76.8868 161.617 76.8693 161.621 76.8474 161.63C67.0543 164.156 54.6508 166.876 44.5292 174.597C29.8088 185.82 27.5927 215.534 27.4219 229.947C53.3018 235.062 83.601 238.006 115.994 238.006C148.382 238.006 178.685 235.062 204.565 229.947C204.399 215.529 202.183 185.816 187.462 174.593Z" fill="black"/>
<path fill-rule="evenodd" clip-rule="evenodd" d="M157.67 49.0572H157.521C157.521 49.0088 157.525 48.9561 157.525 48.9078C157.525 41.6925 138.385 35.8438 114.774 35.8438C91.163 35.8438 72.0234 41.6925 72.0234 48.9078C72.0234 48.9561 72.0278 49.0088 72.0278 49.0572H72.0234V64.9511H72.1723C72.1723 64.9994 72.168 65.0522 72.168 65.1005C72.168 66.5374 72.93 67.9216 74.3359 69.2179C80.0997 66.0233 96.0289 63.7251 114.779 63.7251C133.721 63.7251 149.786 66.0716 155.396 69.3146C156.872 67.9919 157.67 66.5726 157.67 65.1005C157.67 65.0522 157.665 64.9994 157.665 64.9511H157.67V49.0572Z" fill="#191819"/>
<path d="M174.876 93.8919C177.397 93.8919 179.44 91.8419 179.44 89.3132C179.44 86.7844 177.397 84.7344 174.876 84.7344C172.356 84.7344 170.312 86.7844 170.312 89.3132C170.312 91.8419 172.356 93.8919 174.876 93.8919Z" fill="#FF9100"/>
<path fill-rule="evenodd" clip-rule="evenodd" d="M168.469 105.606C168.469 103.075 171.337 89.752 174.876 89.752C178.415 89.752 181.284 103.075 181.284 105.606C181.284 108.137 178.415 110.185 174.876 110.185C171.337 110.189 168.469 108.137 168.469 105.606Z" fill="#FFA900"/>
<path opacity="0.1" d="M187.466 174.593C177.572 167.048 165.493 164.275 155.805 161.797C155.345 161.678 154.894 161.564 154.447 161.445C154.39 161.432 154.338 161.414 154.281 161.401C153.816 161.278 153.361 161.159 152.91 161.036C152.905 161.036 152.897 161.032 152.892 161.032C151.959 160.781 151.053 160.527 150.181 160.263C146.542 159.173 143.507 157.965 141.439 156.291C141.431 156.159 141.413 156.031 141.378 155.908L139.333 149.211C139.184 148.724 138.816 148.486 138.417 148.566C138.391 148.113 138.36 147.669 138.325 147.234C141.558 143.776 144.505 139.729 146.848 135.22C151.228 126.779 154.513 116.923 156.532 108.007C156.532 108.002 156.536 107.998 156.536 107.989C156.624 107.594 156.711 107.198 156.799 106.807C156.799 106.803 156.799 106.798 156.803 106.794C157.22 104.856 157.579 102.971 157.872 101.156C157.885 101.068 157.898 100.985 157.916 100.897C157.96 100.607 158.008 100.321 158.047 100.036C158.065 99.9171 158.082 99.8028 158.1 99.6842C158.139 99.4161 158.179 99.1525 158.214 98.8888C158.231 98.757 158.249 98.6296 158.266 98.4977C158.301 98.2473 158.332 97.9968 158.363 97.7507C158.38 97.6101 158.393 97.4739 158.411 97.3377C158.455 96.9554 158.498 96.5775 158.538 96.2039C158.56 95.9974 158.582 95.7909 158.599 95.5888C158.617 95.4262 158.63 95.2636 158.643 95.1054C158.66 94.8989 158.678 94.6879 158.696 94.4858C158.709 94.332 158.717 94.1826 158.731 94.0332C158.748 93.8179 158.761 93.607 158.774 93.4004C158.783 93.2642 158.792 93.128 158.796 92.9962C158.809 92.7677 158.818 92.5392 158.827 92.3151C158.831 92.2052 158.836 92.0953 158.84 91.9899C158.853 91.6603 158.862 91.3395 158.866 91.0232C158.871 90.8342 158.871 90.6453 158.875 90.4607C158.875 90.4431 158.875 90.4255 158.875 90.408C158.875 82.2699 157.811 75.0985 155.822 68.9114C156.558 68.1776 157.084 67.413 157.386 66.6308L172.746 60.1713V85.2623C171.305 86.0313 170.324 87.5517 170.324 89.305C170.324 90.6892 170.937 91.9284 171.905 92.7677C169.868 96.8543 168.48 103.841 168.48 105.599C168.48 108.13 171.349 110.178 174.887 110.178C178.426 110.178 181.295 108.125 181.295 105.599C181.295 103.837 179.907 96.8543 177.87 92.7677C178.838 91.9284 179.451 90.6892 179.451 89.305C179.451 87.5254 178.435 85.983 176.955 85.2272V58.4004L196.992 49.9723C199.042 49.111 199.151 47.7093 197.229 46.8436L116.93 10.6748C116.006 10.2573 114.815 10.0464 113.602 10.0332V237.992C114.403 237.997 115.205 238.001 116.006 238.001C148.394 238.001 178.698 235.057 204.578 229.942C204.403 215.529 202.186 185.815 187.466 174.593Z" fill="black"/>
</g>
</g>
<defs>
<clipPath id="clip0_2085_5353">
<rect width="232" height="238" fill="white"/>
</clipPath>
</defs>
</svg>
