<svg width="21" height="20" viewBox="0 0 21 20" fill="none" xmlns="http://www.w3.org/2000/svg">
<path d="M2.08203 16.6667H18.7445V18.3334H2.08203V16.6667ZM3.74828 10H5.41453V15.8334H3.74828V10ZM7.91391 10H9.58016V15.8334H7.91391V10ZM11.2464 10H12.9127V15.8334H11.2464V10ZM15.412 10H17.0783V15.8334H15.412V10ZM2.08203 5.83337L10.4133 1.66671L18.7445 5.83337V9.16671H2.08203V5.83337ZM3.74828 6.86671V7.50004H17.0783V6.86671L10.4133 3.53337L3.74828 6.86671ZM10.4133 6.66671C10.18 6.66671 9.98283 6.58615 9.82176 6.42504C9.66069 6.26393 9.58016 6.06671 9.58016 5.83337C9.58016 5.60004 9.66069 5.40282 9.82176 5.24171C9.98283 5.0806 10.18 5.00004 10.4133 5.00004C10.6466 5.00004 10.8437 5.0806 11.0048 5.24171C11.1659 5.40282 11.2464 5.60004 11.2464 5.83337C11.2464 6.06671 11.1659 6.26393 11.0048 6.42504C10.8437 6.58615 10.6466 6.66671 10.4133 6.66671Z" fill="white"/>
</svg>
