<svg width="15" height="20" viewBox="0 0 15 20" fill="none" xmlns="http://www.w3.org/2000/svg">
<path d="M1.90729 15.25C1.74401 15.25 1.60406 15.1936 1.48744 15.0808C1.37081 14.9681 1.3125 14.83 1.3125 14.6667V5.33333C1.3125 5.17 1.37081 5.03194 1.48744 4.91917C1.60406 4.80639 1.74401 4.75 1.90729 4.75H6.22241L7.38866 5.91667H11.8204C11.9759 5.91667 12.11 5.97306 12.2228 6.08583C12.3355 6.19861 12.3919 6.33667 12.3919 6.5V8.25H11.2373V7.08333H6.9105L5.74425 5.91667H2.49041V12.9167L3.3651 9.41667H13.2782L11.9254 14.8067C11.8943 14.9389 11.8262 15.0458 11.7213 15.1275C11.6163 15.2092 11.4939 15.25 11.3539 15.25H1.90729ZM11.7738 10.5833H4.27478L3.40009 14.0833H10.8991L11.7738 10.5833Z" fill="white"/>
</svg>
