<svg width="15" height="14" viewBox="0 0 15 14" fill="none" xmlns="http://www.w3.org/2000/svg">
<path d="M2.625 13.125C2.625 12.2772 2.83881 11.4917 3.26644 10.7683C3.67851 10.0683 4.23442 9.51222 4.93418 9.1C5.65725 8.67222 6.44252 8.45833 7.29 8.45833C8.13748 8.45833 8.92275 8.67222 9.64582 9.1C10.3456 9.51222 10.9015 10.0683 11.3136 10.7683C11.7412 11.4917 11.955 12.2772 11.955 13.125H10.7887C10.7887 12.495 10.6294 11.9078 10.3106 11.3633C9.99959 10.8344 9.57974 10.4144 9.05104 10.1033C8.50679 9.78444 7.91978 9.625 7.29 9.625C6.66022 9.625 6.07321 9.78444 5.52896 10.1033C5.00026 10.4144 4.58041 10.8344 4.26941 11.3633C3.95064 11.9078 3.79125 12.495 3.79125 13.125H2.625ZM7.29 7.875C6.65245 7.875 6.06544 7.71556 5.52896 7.39667C5.00026 7.08556 4.58041 6.66556 4.26941 6.13667C3.95064 5.6 3.79125 5.01278 3.79125 4.375C3.79125 3.73722 3.95064 3.15 4.26941 2.61333C4.58041 2.08444 5.00026 1.66444 5.52896 1.35333C6.06544 1.03444 6.65245 0.875 7.29 0.875C7.92755 0.875 8.51456 1.03444 9.05104 1.35333C9.57974 1.66444 9.99959 2.08444 10.3106 2.61333C10.6294 3.15 10.7887 3.73722 10.7887 4.375C10.7887 5.01278 10.6294 5.6 10.3106 6.13667C9.99959 6.66556 9.57974 7.08556 9.05104 7.39667C8.51456 7.71556 7.92755 7.875 7.29 7.875ZM7.29 6.70833C7.70985 6.70833 8.0986 6.60333 8.45625 6.39333C8.8139 6.18333 9.09769 5.89944 9.30761 5.54167C9.51754 5.18389 9.6225 4.795 9.6225 4.375C9.6225 3.955 9.51754 3.56611 9.30761 3.20833C9.09769 2.85056 8.8139 2.56667 8.45625 2.35667C8.0986 2.14667 7.70985 2.04167 7.29 2.04167C6.87015 2.04167 6.4814 2.14667 6.12375 2.35667C5.7661 2.56667 5.48231 2.85056 5.27239 3.20833C5.06246 3.56611 4.9575 3.955 4.9575 4.375C4.9575 4.795 5.06246 5.18389 5.27239 5.54167C5.48231 5.89944 5.7661 6.18333 6.12375 6.39333C6.4814 6.60333 6.87015 6.70833 7.29 6.70833Z" fill="#9333EA"/>
</svg>
