<svg width="21" height="28" viewBox="0 0 21 28" fill="none" xmlns="http://www.w3.org/2000/svg">
<path d="M6.24828 7.33337V20.6667H14.5795V7.33337H6.24828ZM5.41516 5.66671H15.4127C15.6459 5.66671 15.8431 5.74726 16.0042 5.90837C16.1652 6.06949 16.2458 6.26671 16.2458 6.50004V21.5C16.2458 21.7334 16.1652 21.9306 16.0042 22.0917C15.8431 22.2528 15.6459 22.3334 15.4127 22.3334H5.41516C5.18188 22.3334 4.98471 22.2528 4.82364 22.0917C4.66257 21.9306 4.58203 21.7334 4.58203 21.5V6.50004C4.58203 6.26671 4.66257 6.06949 4.82364 5.90837C4.98471 5.74726 5.18188 5.66671 5.41516 5.66671ZM10.4139 18.1667C10.6472 18.1667 10.8444 18.2473 11.0054 18.4084C11.1665 18.5695 11.247 18.7667 11.247 19C11.247 19.2334 11.1665 19.4306 11.0054 19.5917C10.8444 19.7528 10.6472 19.8334 10.4139 19.8334C10.1806 19.8334 9.98346 19.7528 9.82239 19.5917C9.66132 19.4306 9.58078 19.2334 9.58078 19C9.58078 18.7667 9.66132 18.5695 9.82239 18.4084C9.98346 18.2473 10.1806 18.1667 10.4139 18.1667Z" fill="white"/>
</svg>
