<svg width="28" height="24" viewBox="0 0 28 24" fill="none" xmlns="http://www.w3.org/2000/svg">
<path d="M0 15.625C0 14.1917 0.35 12.8583 1.05 11.625C1.73333 10.425 2.65833 9.45833 3.825 8.725C4.04167 7.10833 4.6125 5.63333 5.5375 4.3C6.4625 2.96667 7.63333 1.925 9.05 1.175C10.5167 0.391666 12.0833 0 13.75 0C15.4167 0 16.9833 0.391666 18.45 1.175C19.8667 1.925 21.0375 2.96667 21.9625 4.3C22.8875 5.63333 23.4583 7.10833 23.675 8.725C24.8417 9.45833 25.7667 10.425 26.45 11.625C27.15 12.8583 27.5 14.1833 27.5 15.6C27.5 17.0167 27.1667 18.3333 26.5 19.55C25.8333 20.7333 24.9292 21.7 23.7875 22.45C22.6458 23.2 21.3833 23.625 20 23.725L7.5 23.75C6.11667 23.6333 4.85417 23.2 3.7125 22.45C2.57083 21.7 1.66667 20.7333 1 19.55C0.333333 18.3333 0 17.025 0 15.625ZM19.8 21.225C20.7667 21.1583 21.6458 20.8667 22.4375 20.35C23.2292 19.8333 23.8542 19.1583 24.3125 18.325C24.7708 17.4917 25 16.5875 25 15.6125C25 14.6375 24.7625 13.7292 24.2875 12.8875C23.8125 12.0458 23.1667 11.3667 22.35 10.85L21.35 10.225L21.2 9.05C21.0333 7.81667 20.6 6.70417 19.9 5.7125C19.2 4.72083 18.3125 3.9375 17.2375 3.3625C16.1625 2.7875 15 2.5 13.75 2.5C12.5 2.5 11.3375 2.7875 10.2625 3.3625C9.1875 3.9375 8.3 4.72083 7.6 5.7125C6.9 6.70417 6.46667 7.81667 6.3 9.05L6.15 10.225L5.15 10.85C4.33333 11.3667 3.6875 12.0458 3.2125 12.8875C2.7375 13.7292 2.5 14.6375 2.5 15.6125C2.5 16.5875 2.72917 17.4917 3.1875 18.325C3.64583 19.1583 4.27083 19.8333 5.0625 20.35C5.85417 20.8667 6.73333 21.1583 7.7 21.225L7.9 21.25H19.6L19.8 21.225ZM15 13.75V18.75H12.5V13.75H8.75L13.75 7.5L18.75 13.75H15Z" fill="#9333EA"/>
</svg>
