<svg width="13" height="14" viewBox="0 0 13 14" fill="none" xmlns="http://www.w3.org/2000/svg">
<path d="M4.48 4.1008e-05V1.33337H8.32V4.1008e-05H9.6V1.33337H12.16C12.3392 1.33337 12.4907 1.39782 12.6144 1.52671C12.7381 1.6556 12.8 1.81337 12.8 2.00004V12.6667C12.8 12.8534 12.7381 13.0112 12.6144 13.14C12.4907 13.2689 12.3392 13.3334 12.16 13.3334H0.64C0.4608 13.3334 0.309333 13.2689 0.1856 13.14C0.0618667 13.0112 0 12.8534 0 12.6667V2.00004C0 1.81337 0.0618667 1.6556 0.1856 1.52671C0.309333 1.39782 0.4608 1.33337 0.64 1.33337H3.2V4.1008e-05H4.48ZM11.52 6.00004H1.28V12H11.52V6.00004ZM8.3456 6.76004L9.2416 7.70671L6.08 11L3.8144 8.64004L4.7232 7.70671L6.08 9.12004L8.3456 6.76004ZM3.2 2.66671H1.28V4.66671H11.52V2.66671H9.6V3.33337H8.32V2.66671H4.48V3.33337H3.2V2.66671Z" fill="white"/>
</svg>
