<svg width="16" height="17" viewBox="0 0 16 17" fill="none" xmlns="http://www.w3.org/2000/svg">
<path d="M8 16.667C6.912 16.667 5.872 16.4503 4.88 16.017C3.93067 15.5948 3.08533 14.9975 2.344 14.2253C1.60267 13.4531 1.02933 12.5725 0.624 11.5837C0.208 10.5503 0 9.46699 0 8.33366C0 7.20033 0.208 6.11699 0.624 5.08366C1.02933 4.09477 1.60267 3.21422 2.344 2.44199C3.08533 1.66977 3.93067 1.07255 4.88 0.650326C5.872 0.216993 6.912 0.000326157 8 0.000326157C9.088 0.000326157 10.128 0.216993 11.12 0.650326C12.0693 1.07255 12.9147 1.66977 13.656 2.44199C14.3973 3.21422 14.9707 4.09477 15.376 5.08366C15.792 6.11699 16 7.20033 16 8.33366C16 9.46699 15.792 10.5503 15.376 11.5837C14.9707 12.5725 14.3973 13.4531 13.656 14.2253C12.9147 14.9975 12.0693 15.5948 11.12 16.017C10.128 16.4503 9.088 16.667 8 16.667ZM8 15.0003C9.16267 15.0003 10.24 14.6948 11.232 14.0837C12.192 13.4948 12.9547 12.7003 13.52 11.7003C14.1067 10.667 14.4 9.54477 14.4 8.33366C14.4 7.12255 14.1067 6.00033 13.52 4.96699C12.9547 3.96699 12.192 3.17255 11.232 2.58366C10.24 1.97255 9.16267 1.66699 8 1.66699C6.83733 1.66699 5.76 1.97255 4.768 2.58366C3.808 3.17255 3.04533 3.96699 2.48 4.96699C1.89333 6.00033 1.6 7.12255 1.6 8.33366C1.6 9.54477 1.89333 10.667 2.48 11.7003C3.04533 12.7003 3.808 13.4948 4.768 14.0837C5.76 14.6948 6.83733 15.0003 8 15.0003ZM8.8 8.33366H12V10.0003H7.2V4.16699H8.8V8.33366Z" fill="white"/>
</svg>
