<svg width="17" height="18" viewBox="0 0 17 18" fill="none" xmlns="http://www.w3.org/2000/svg">
<path d="M0 17.5C0 16.2889 0.293333 15.1667 0.88 14.1333C1.44533 13.1333 2.208 12.3389 3.168 11.75C4.16 11.1389 5.23733 10.8333 6.4 10.8333C7.56267 10.8333 8.64 11.1389 9.632 11.75C10.592 12.3389 11.3547 13.1333 11.92 14.1333C12.5067 15.1667 12.8 16.2889 12.8 17.5H11.2C11.2 16.6 10.9813 15.7611 10.544 14.9833C10.1173 14.2278 9.54133 13.6278 8.816 13.1833C8.06933 12.7278 7.264 12.5 6.4 12.5C5.536 12.5 4.73067 12.7278 3.984 13.1833C3.25867 13.6278 2.68267 14.2278 2.256 14.9833C1.81867 15.7611 1.6 16.6 1.6 17.5H0ZM6.4 10C5.52533 10 4.72 9.77222 3.984 9.31667C3.25867 8.87222 2.68267 8.27222 2.256 7.51667C1.81867 6.75 1.6 5.91111 1.6 5C1.6 4.08889 1.81867 3.25 2.256 2.48333C2.68267 1.72778 3.25867 1.12778 3.984 0.683332C4.72 0.227777 5.52533 0 6.4 0C7.27467 0 8.08 0.227777 8.816 0.683332C9.54133 1.12778 10.1173 1.72778 10.544 2.48333C10.9813 3.25 11.2 4.08889 11.2 5C11.2 5.91111 10.9813 6.75 10.544 7.51667C10.1173 8.27222 9.54133 8.87222 8.816 9.31667C8.08 9.77222 7.27467 10 6.4 10ZM6.4 8.33333C6.976 8.33333 7.50933 8.18333 8 7.88333C8.49067 7.58333 8.88 7.17778 9.168 6.66667C9.456 6.15555 9.6 5.6 9.6 5C9.6 4.4 9.456 3.84444 9.168 3.33333C8.88 2.82222 8.49067 2.41667 8 2.11667C7.50933 1.81667 6.976 1.66667 6.4 1.66667C5.824 1.66667 5.29067 1.81667 4.8 2.11667C4.30933 2.41667 3.92 2.82222 3.632 3.33333C3.344 3.84444 3.2 4.4 3.2 5C3.2 5.6 3.344 6.15555 3.632 6.66667C3.92 7.17778 4.30933 7.58333 4.8 7.88333C5.29067 8.18333 5.824 8.33333 6.4 8.33333ZM13.024 11.4167C13.7707 11.7611 14.4293 12.2417 15 12.8583C15.5707 13.475 16.0107 14.1722 16.32 14.95C16.64 15.7611 16.8 16.6111 16.8 17.5H15.2C15.2 16.5 14.9387 15.5833 14.416 14.75C13.904 13.9389 13.2213 13.3333 12.368 12.9333L13.024 11.4167ZM12.48 2.01667C13.2907 2.36111 13.9467 2.91667 14.448 3.68333C14.9493 4.45 15.2 5.30556 15.2 6.25C15.2 7.03889 15.024 7.76944 14.672 8.44167C14.32 9.11389 13.8373 9.66111 13.224 10.0833C12.6107 10.5056 11.936 10.75 11.2 10.8167V9.13333C11.648 9.06667 12.056 8.89722 12.424 8.625C12.792 8.35278 13.08 8.00833 13.288 7.59167C13.496 7.175 13.6 6.72778 13.6 6.25C13.6 5.68333 13.456 5.16667 13.168 4.7C12.88 4.23333 12.5013 3.87778 12.032 3.63333L12.48 2.01667Z" fill="white"/>
</svg>
