<svg width="12" height="13" viewBox="0 0 12 13" fill="none" xmlns="http://www.w3.org/2000/svg">
<path d="M0 12.25C0 11.4022 0.205562 10.6167 0.616687 9.89333C1.01286 9.19333 1.54733 8.63722 2.22007 8.225C2.91525 7.79722 3.67022 7.58333 4.485 7.58333C5.29977 7.58333 6.05475 7.79722 6.74992 8.225C7.42267 8.63722 7.95714 9.19333 8.35331 9.89333C8.76444 10.6167 8.97 11.4022 8.97 12.25H7.84875C7.84875 11.62 7.69551 11.0328 7.38904 10.4883C7.09004 9.95944 6.68639 9.53944 6.17809 9.22833C5.65484 8.90944 5.09048 8.75 4.485 8.75C3.87952 8.75 3.31516 8.90944 2.79191 9.22833C2.28361 9.53944 1.87996 9.95944 1.58096 10.4883C1.27449 11.0328 1.12125 11.62 1.12125 12.25H0ZM4.485 7C3.87205 7 3.30769 6.84056 2.79191 6.52167C2.28361 6.21056 1.87996 5.79056 1.58096 5.26167C1.27449 4.725 1.12125 4.13778 1.12125 3.5C1.12125 2.86222 1.27449 2.275 1.58096 1.73833C1.87996 1.20944 2.28361 0.789444 2.79191 0.478333C3.30769 0.159445 3.87205 0 4.485 0C5.09795 0 5.66231 0.159445 6.17809 0.478333C6.68639 0.789444 7.09004 1.20944 7.38904 1.73833C7.69551 2.275 7.84875 2.86222 7.84875 3.5C7.84875 4.13778 7.69551 4.725 7.38904 5.26167C7.09004 5.79056 6.68639 6.21056 6.17809 6.52167C5.66231 6.84056 5.09795 7 4.485 7ZM4.485 5.83333C4.88865 5.83333 5.2624 5.72833 5.60625 5.51833C5.9501 5.30833 6.22294 5.02444 6.42476 4.66667C6.62659 4.30889 6.7275 3.92 6.7275 3.5C6.7275 3.08 6.62659 2.69111 6.42476 2.33333C6.22294 1.97556 5.9501 1.69167 5.60625 1.48167C5.2624 1.27167 4.88865 1.16667 4.485 1.16667C4.08135 1.16667 3.7076 1.27167 3.36375 1.48167C3.0199 1.69167 2.74706 1.97556 2.54524 2.33333C2.34341 2.69111 2.2425 3.08 2.2425 3.5C2.2425 3.92 2.34341 4.30889 2.54524 4.66667C2.74706 5.02444 3.0199 5.30833 3.36375 5.51833C3.7076 5.72833 4.08135 5.83333 4.485 5.83333ZM9.12698 7.99167C9.65022 8.23278 10.1118 8.56917 10.5117 9.00083C10.9116 9.4325 11.22 9.92056 11.4367 10.465C11.661 11.0328 11.7731 11.6278 11.7731 12.25H10.6519C10.6519 11.55 10.4687 10.9083 10.1025 10.325C9.74366 9.75722 9.26526 9.33333 8.66726 9.05333L9.12698 7.99167ZM8.74575 1.41167C9.31385 1.65278 9.77356 2.04167 10.1249 2.57833C10.4762 3.115 10.6519 3.71389 10.6519 4.375C10.6519 4.92722 10.5285 5.43861 10.2819 5.90917C10.0352 6.37972 9.69694 6.76278 9.26713 7.05833C8.83732 7.35389 8.36452 7.525 7.84875 7.57167V6.39333C8.1627 6.34667 8.44862 6.22806 8.70651 6.0375C8.96439 5.84694 9.16622 5.60583 9.31198 5.31417C9.45774 5.0225 9.53062 4.70944 9.53062 4.375C9.53062 3.97833 9.42971 3.61667 9.22789 3.29C9.02606 2.96333 8.7607 2.71444 8.4318 2.54333L8.74575 1.41167Z" fill="#6B7280"/>
</svg>
