<svg width="12" height="12" viewBox="0 0 12 12" fill="none" xmlns="http://www.w3.org/2000/svg">
<path d="M2.10795 8.16667H10.0912V1.16667H1.12125V8.98333L2.10795 8.16667ZM2.50039 9.33333L0 11.375V0.583333C0 0.427777 0.0541937 0.291667 0.162581 0.175C0.270969 0.0583334 0.40365 0 0.560625 0H10.6519C10.8089 0 10.9415 0.0583334 11.0499 0.175C11.1583 0.291667 11.2125 0.427777 11.2125 0.583333V8.75C11.2125 8.91333 11.1583 9.05333 11.0499 9.17C10.9415 9.28667 10.8089 9.34111 10.6519 9.33333H2.50039ZM5.04562 6.41667H6.16687V7.58333H5.04562V6.41667ZM3.6777 3.395C3.7375 3.08389 3.86084 2.80389 4.04771 2.555C4.23459 2.30611 4.46257 2.10972 4.73168 1.96583C5.00077 1.82194 5.2923 1.75 5.60625 1.75C5.96505 1.75778 6.29395 1.85306 6.59295 2.03583C6.89195 2.21861 7.12928 2.46556 7.30494 2.77667C7.48061 3.08778 7.56844 3.42806 7.56844 3.7975C7.56844 4.16694 7.48061 4.50722 7.30494 4.81833C7.12928 5.12944 6.89195 5.37833 6.59295 5.565C6.29395 5.75167 5.96505 5.845 5.60625 5.845H5.04562V4.66667H5.60625C5.83798 4.66667 6.03606 4.58306 6.20051 4.41583C6.36496 4.24861 6.44719 4.0425 6.44719 3.7975C6.44719 3.5525 6.36496 3.34639 6.20051 3.17917C6.03606 3.01194 5.83798 2.92833 5.60625 2.92833C5.40443 2.92833 5.22689 2.99444 5.07366 3.12667C4.92042 3.25889 4.82137 3.42611 4.77653 3.62833L3.6777 3.395Z" fill="#6B7280"/>
</svg>
