<svg width="13" height="12" viewBox="0 0 13 12" fill="none" xmlns="http://www.w3.org/2000/svg">
<path d="M0.64 0H12.16C12.3392 0 12.4907 0.0644445 12.6144 0.193333C12.7381 0.322222 12.8 0.48 12.8 0.666666V11.3333C12.8 11.52 12.7381 11.6778 12.6144 11.8067C12.4907 11.9356 12.3392 12 12.16 12H0.64C0.4608 12 0.309333 11.9356 0.1856 11.8067C0.0618667 11.6778 0 11.52 0 11.3333V0.666666C0 0.48 0.0618667 0.322222 0.1856 0.193333C0.309333 0.0644445 0.4608 0 0.64 0ZM11.52 2.82667L6.4512 7.56L1.28 2.81333V10.6667H11.52V2.82667ZM1.6128 1.33333L6.4384 5.77333L11.2 1.33333H1.6128Z" fill="#2563EB"/>
</svg>
