<svg width="48" height="48" viewBox="0 0 48 48" fill="none" xmlns="http://www.w3.org/2000/svg">
<path d="M0 8C0 3.58172 3.58172 0 8 0H40C44.4183 0 48 3.58172 48 8V40C48 44.4183 44.4183 48 40 48H8C3.58172 48 0 44.4183 0 40V8Z" fill="#F97316"/>
<path d="M24 32.333C22.912 32.333 21.872 32.1163 20.88 31.683C19.9307 31.2608 19.0853 30.6636 18.344 29.8913C17.6027 29.1191 17.0293 28.2386 16.624 27.2497C16.208 26.2163 16 25.133 16 23.9997C16 22.8663 16.208 21.783 16.624 20.7497C17.0293 19.7608 17.6027 18.8802 18.344 18.108C19.0853 17.3358 19.9307 16.7386 20.88 16.3163C21.872 15.883 22.912 15.6663 24 15.6663C25.088 15.6663 26.128 15.883 27.12 16.3163C28.0693 16.7386 28.9147 17.3358 29.656 18.108C30.3973 18.8802 30.9707 19.7608 31.376 20.7497C31.792 21.783 32 22.8663 32 23.9997C32 25.133 31.792 26.2163 31.376 27.2497C30.9707 28.2386 30.3973 29.1191 29.656 29.8913C28.9147 30.6636 28.0693 31.2608 27.12 31.683C26.128 32.1163 25.088 32.333 24 32.333ZM24 30.6663C25.1627 30.6663 26.24 30.3608 27.232 29.7497C28.192 29.1608 28.9547 28.3663 29.52 27.3663C30.1067 26.333 30.4 25.2108 30.4 23.9997C30.4 22.7886 30.1067 21.6663 29.52 20.633C28.9547 19.633 28.192 18.8386 27.232 18.2497C26.24 17.6386 25.1627 17.333 24 17.333C22.8373 17.333 21.76 17.6386 20.768 18.2497C19.808 18.8386 19.0453 19.633 18.48 20.633C17.8933 21.6663 17.6 22.7886 17.6 23.9997C17.6 25.2108 17.8933 26.333 18.48 27.3663C19.0453 28.3663 19.808 29.1608 20.768 29.7497C21.76 30.3608 22.8373 30.6663 24 30.6663ZM24.8 23.9997H28V25.6663H23.2V19.833H24.8V23.9997Z" fill="white"/>
</svg>
