<svg width="48" height="48" viewBox="0 0 48 48" fill="none" xmlns="http://www.w3.org/2000/svg">
<path d="M0 8C0 3.58172 3.58172 0 8 0H40C44.4183 0 48 3.58172 48 8V40C48 44.4183 44.4183 48 40 48H8C3.58172 48 0 44.4183 0 40V8Z" fill="#A855F7"/>
<path d="M24.8031 28.1167V29.8333H28.8031V31.5H19.2031V29.8333H23.2031V28.1167C22.1578 27.9833 21.2085 27.6056 20.3551 26.9833C19.5018 26.3611 18.8351 25.5778 18.3551 24.6333C17.8538 23.6556 17.6031 22.6111 17.6031 21.5V16.5H30.4031V21.5C30.4031 22.6111 30.1525 23.6556 29.6511 24.6333C29.1711 25.5778 28.5045 26.3611 27.6511 26.9833C26.7978 27.6056 25.8485 27.9833 24.8031 28.1167ZM19.2031 18.1667V21.5C19.2031 22.4 19.4218 23.2389 19.8591 24.0167C20.2858 24.7722 20.8618 25.3722 21.5871 25.8167C22.3338 26.2722 23.1391 26.5 24.0031 26.5C24.8671 26.5 25.6725 26.2722 26.4191 25.8167C27.1445 25.3722 27.7205 24.7722 28.1471 24.0167C28.5845 23.2389 28.8031 22.4 28.8031 21.5V18.1667H19.2031ZM15.2031 18.1667H16.8031V21.5H15.2031V18.1667ZM31.2031 18.1667H32.8031V21.5H31.2031V18.1667Z" fill="white"/>
</svg>
