<svg width="48" height="48" viewBox="0 0 48 48" fill="none" xmlns="http://www.w3.org/2000/svg">
<path d="M0 8C0 3.58172 3.58172 0 8 0H40C44.4183 0 48 3.58172 48 8V40C48 44.4183 44.4183 48 40 48H8C3.58172 48 0 44.4183 0 40V8Z" fill="#3B82F6"/>
<path d="M15.6016 32.75C15.6016 31.5389 15.8949 30.4167 16.4816 29.3833C17.0469 28.3833 17.8096 27.5889 18.7696 27C19.7616 26.3889 20.8389 26.0833 22.0016 26.0833C23.1642 26.0833 24.2416 26.3889 25.2336 27C26.1936 27.5889 26.9562 28.3833 27.5216 29.3833C28.1082 30.4167 28.4016 31.5389 28.4016 32.75H26.8016C26.8016 31.85 26.5829 31.0111 26.1456 30.2333C25.7189 29.4778 25.1429 28.8778 24.4176 28.4333C23.6709 27.9778 22.8656 27.75 22.0016 27.75C21.1376 27.75 20.3322 27.9778 19.5856 28.4333C18.8602 28.8778 18.2842 29.4778 17.8576 30.2333C17.4202 31.0111 17.2016 31.85 17.2016 32.75H15.6016ZM22.0016 25.25C21.1269 25.25 20.3216 25.0222 19.5856 24.5667C18.8602 24.1222 18.2842 23.5222 17.8576 22.7667C17.4202 22 17.2016 21.1611 17.2016 20.25C17.2016 19.3389 17.4202 18.5 17.8576 17.7333C18.2842 16.9778 18.8602 16.3778 19.5856 15.9333C20.3216 15.4778 21.1269 15.25 22.0016 15.25C22.8762 15.25 23.6816 15.4778 24.4176 15.9333C25.1429 16.3778 25.7189 16.9778 26.1456 17.7333C26.5829 18.5 26.8016 19.3389 26.8016 20.25C26.8016 21.1611 26.5829 22 26.1456 22.7667C25.7189 23.5222 25.1429 24.1222 24.4176 24.5667C23.6816 25.0222 22.8762 25.25 22.0016 25.25ZM22.0016 23.5833C22.5776 23.5833 23.1109 23.4333 23.6016 23.1333C24.0922 22.8333 24.4816 22.4278 24.7696 21.9167C25.0576 21.4056 25.2016 20.85 25.2016 20.25C25.2016 19.65 25.0576 19.0944 24.7696 18.5833C24.4816 18.0722 24.0922 17.6667 23.6016 17.3667C23.1109 17.0667 22.5776 16.9167 22.0016 16.9167C21.4256 16.9167 20.8922 17.0667 20.4016 17.3667C19.9109 17.6667 19.5216 18.0722 19.2336 18.5833C18.9456 19.0944 18.8016 19.65 18.8016 20.25C18.8016 20.85 18.9456 21.4056 19.2336 21.9167C19.5216 22.4278 19.9109 22.8333 20.4016 23.1333C20.8922 23.4333 21.4256 23.5833 22.0016 23.5833ZM28.6256 26.6667C29.3722 27.0111 30.0309 27.4917 30.6016 28.1083C31.1722 28.725 31.6122 29.4222 31.9216 30.2C32.2416 31.0111 32.4016 31.8611 32.4016 32.75H30.8016C30.8016 31.75 30.5402 30.8333 30.0176 30C29.5056 29.1889 28.8229 28.5833 27.9696 28.1833L28.6256 26.6667ZM28.0816 17.2667C28.8922 17.6111 29.5482 18.1667 30.0496 18.9333C30.5509 19.7 30.8016 20.5556 30.8016 21.5C30.8016 22.2889 30.6256 23.0194 30.2736 23.6917C29.9216 24.3639 29.4389 24.9111 28.8256 25.3333C28.2122 25.7556 27.5376 26 26.8016 26.0667V24.3833C27.2496 24.3167 27.6576 24.1472 28.0256 23.875C28.3936 23.6028 28.6816 23.2583 28.8896 22.8417C29.0976 22.425 29.2016 21.9778 29.2016 21.5C29.2016 20.9333 29.0576 20.4167 28.7696 19.95C28.4816 19.4833 28.1029 19.1278 27.6336 18.8833L28.0816 17.2667Z" fill="white"/>
</svg>
