<svg width="11" height="14" viewBox="0 0 11 14" fill="none" xmlns="http://www.w3.org/2000/svg">
<path d="M3.8272 10.6667H4.48V7.33333H5.76V10.6667H6.4128C6.45547 10.2844 6.57493 9.91111 6.7712 9.54667C6.94187 9.21778 7.1936 8.86222 7.5264 8.48L7.7056 8.28C7.95307 8.01333 8.0896 7.86667 8.1152 7.84C8.38827 7.48444 8.59733 7.09333 8.7424 6.66667C8.88747 6.24 8.96 5.79556 8.96 5.33333C8.96 4.61333 8.78507 3.94222 8.4352 3.32C8.09387 2.71556 7.63307 2.23556 7.0528 1.88C6.45547 1.51556 5.8112 1.33333 5.12 1.33333C4.4288 1.33333 3.78453 1.51556 3.1872 1.88C2.60693 2.23556 2.14613 2.71556 1.8048 3.32C1.45493 3.94222 1.28 4.61333 1.28 5.33333C1.28 5.79556 1.35253 6.24 1.4976 6.66667C1.64267 7.09333 1.85173 7.48 2.1248 7.82667C2.1504 7.86222 2.28693 8.01333 2.5344 8.28L2.7136 8.48C3.0464 8.86222 3.29813 9.21778 3.4688 9.54667C3.66507 9.91111 3.78453 10.2844 3.8272 10.6667ZM3.84 12V12.6667H6.4V12H3.84ZM1.1264 8.66667C0.768 8.20444 0.490667 7.69333 0.2944 7.13333C0.0981333 6.55556 0 5.95555 0 5.33333C0 4.36444 0.234667 3.46667 0.704 2.64C1.15627 1.84 1.7664 1.20444 2.5344 0.733333C3.328 0.244444 4.18987 0 5.12 0C6.05013 0 6.912 0.244444 7.7056 0.733333C8.4736 1.20444 9.08373 1.84 9.536 2.64C10.0053 3.46667 10.24 4.36444 10.24 5.33333C10.24 5.95555 10.1419 6.55556 9.9456 7.13333C9.74933 7.69333 9.472 8.20444 9.1136 8.66667C9.05387 8.74667 8.9344 8.88 8.7552 9.06667C8.4224 9.43111 8.18773 9.72 8.0512 9.93333C7.80373 10.3067 7.68 10.6622 7.68 11V12.6667C7.68 12.9067 7.6224 13.1289 7.5072 13.3333C7.392 13.5378 7.23627 13.7 7.04 13.82C6.84373 13.94 6.6304 14 6.4 14H3.84C3.6096 14 3.39627 13.94 3.2 13.82C3.00373 13.7 2.848 13.5378 2.7328 13.3333C2.6176 13.1289 2.56 12.9067 2.56 12.6667V11C2.56 10.6622 2.43627 10.3067 2.1888 9.93333C2.05227 9.72 1.8176 9.43111 1.4848 9.06667C1.3056 8.88 1.18613 8.74667 1.1264 8.66667Z" fill="#14532D"/>
</svg>
