<svg width="17" height="17" viewBox="0 0 17 17" fill="none" xmlns="http://www.w3.org/2000/svg">
<path d="M13.6 0.000326157C13.824 0.000326157 14.0133 0.0808811 14.168 0.241993C14.3227 0.403105 14.4 0.600327 14.4 0.83366V3.96699L12.8 5.63366V1.66699H1.6V15.0003H12.8V12.7003L14.4 11.0337V15.8337C14.4 16.067 14.3227 16.2642 14.168 16.4253C14.0133 16.5864 13.824 16.667 13.6 16.667H0.8C0.576 16.667 0.386667 16.5864 0.232 16.4253C0.0773333 16.2642 0 16.067 0 15.8337V0.83366C0 0.600327 0.0773333 0.403105 0.232 0.241993C0.386667 0.0808811 0.576 0.000326157 0.8 0.000326157H13.6ZM15.024 5.66699L16.16 6.85033L9.936 13.3337H8.8V12.1503L15.024 5.66699ZM8 8.33366V10.0003H4V8.33366H8ZM10.4 5.00033V6.66699H4V5.00033H10.4Z" fill="#EA580C"/>
</svg>
