<svg width="17" height="18" viewBox="0 0 17 18" fill="none" xmlns="http://www.w3.org/2000/svg">
<path d="M4 1.66667V0H5.6V1.66667H10.4V0H12V1.66667H15.2C15.424 1.66667 15.6133 1.74722 15.768 1.90833C15.9227 2.06944 16 2.26667 16 2.5V6.66667H14.4V3.33333H12V5H10.4V3.33333H5.6V5H4V3.33333H1.6V15H6.4V16.6667H0.8C0.576 16.6667 0.386667 16.5861 0.232 16.425C0.0773333 16.2639 0 16.0667 0 15.8333V2.5C0 2.26667 0.0773333 2.06944 0.232 1.90833C0.386667 1.74722 0.576 1.66667 0.8 1.66667H4ZM12 9.16667C11.424 9.16667 10.8907 9.31667 10.4 9.61667C9.90933 9.91667 9.52 10.3222 9.232 10.8333C8.944 11.3444 8.8 11.9 8.8 12.5C8.8 13.1 8.944 13.6556 9.232 14.1667C9.52 14.6778 9.90933 15.0833 10.4 15.3833C10.8907 15.6833 11.424 15.8333 12 15.8333C12.576 15.8333 13.1093 15.6833 13.6 15.3833C14.0907 15.0833 14.48 14.6778 14.768 14.1667C15.056 13.6556 15.2 13.1 15.2 12.5C15.2 11.9 15.056 11.3444 14.768 10.8333C14.48 10.3222 14.0907 9.91667 13.6 9.61667C13.1093 9.31667 12.576 9.16667 12 9.16667ZM7.2 12.5C7.2 11.6 7.41867 10.7611 7.856 9.98333C8.28267 9.22778 8.85867 8.62778 9.584 8.18333C10.3307 7.72778 11.136 7.5 12 7.5C12.864 7.5 13.6693 7.72778 14.416 8.18333C15.1413 8.62778 15.7173 9.22778 16.144 9.98333C16.5813 10.7611 16.8 11.6 16.8 12.5C16.8 13.4 16.5813 14.2389 16.144 15.0167C15.7173 15.7722 15.1413 16.3722 14.416 16.8167C13.6693 17.2722 12.864 17.5 12 17.5C11.136 17.5 10.3307 17.2722 9.584 16.8167C8.85867 16.3722 8.28267 15.7722 7.856 15.0167C7.41867 14.2389 7.2 13.4 7.2 12.5ZM11.2 10V12.85L13.04 14.75L14.16 13.5833L12.8 12.15V10H11.2Z" fill="#16A34A"/>
</svg>
