<svg width="11" height="11" viewBox="0 0 11 11" fill="none" xmlns="http://www.w3.org/2000/svg">
<path d="M6.16688 10.5C6.0099 10.5 5.87722 10.4436 5.76883 10.3308C5.66044 10.2181 5.60625 10.08 5.60625 9.91667V5.25C5.60625 5.08667 5.66044 4.94861 5.76883 4.83583C5.87722 4.72306 6.0099 4.66667 6.16688 4.66667H9.53063C9.6876 4.66667 9.82028 4.72306 9.92867 4.83583C10.0371 4.94861 10.0913 5.08667 10.0913 5.25V9.91667C10.0913 10.08 10.0371 10.2181 9.92867 10.3308C9.82028 10.4436 9.6876 10.5 9.53063 10.5H6.16688ZM0.560625 5.83333C0.40365 5.83333 0.270969 5.77694 0.162581 5.66417C0.0541938 5.55139 0 5.41333 0 5.25V0.583333C0 0.42 0.0541938 0.281944 0.162581 0.169167C0.270969 0.0563889 0.40365 0 0.560625 0H3.92438C4.08135 0 4.21403 0.0563889 4.32242 0.169167C4.43081 0.281944 4.485 0.42 4.485 0.583333V5.25C4.485 5.41333 4.43081 5.55139 4.32242 5.66417C4.21403 5.77694 4.08135 5.83333 3.92438 5.83333H0.560625ZM3.36375 4.66667V1.16667H1.12125V4.66667H3.36375ZM0.560625 10.5C0.40365 10.5 0.270969 10.4436 0.162581 10.3308C0.0541938 10.2181 0 10.08 0 9.91667V7.58333C0 7.42 0.0541938 7.28194 0.162581 7.16917C0.270969 7.05639 0.40365 7 0.560625 7H3.92438C4.08135 7 4.21403 7.05639 4.32242 7.16917C4.43081 7.28194 4.485 7.42 4.485 7.58333V9.91667C4.485 10.08 4.43081 10.2181 4.32242 10.3308C4.21403 10.4436 4.08135 10.5 3.92438 10.5H0.560625ZM1.12125 9.33333H3.36375V8.16667H1.12125V9.33333ZM6.7275 9.33333H8.97V5.83333H6.7275V9.33333ZM5.60625 0.583333C5.60625 0.42 5.66044 0.281944 5.76883 0.169167C5.87722 0.0563889 6.0099 0 6.16688 0H9.53063C9.6876 0 9.82028 0.0563889 9.92867 0.169167C10.0371 0.281944 10.0913 0.42 10.0913 0.583333V2.91667C10.0913 3.08 10.0371 3.21806 9.92867 3.33083C9.82028 3.44361 9.6876 3.5 9.53063 3.5H6.16688C6.0099 3.5 5.87722 3.44361 5.76883 3.33083C5.66044 3.21806 5.60625 3.08 5.60625 2.91667V0.583333ZM6.7275 1.16667V2.33333H8.97V1.16667H6.7275Z" fill="#089BC4"/>
</svg>
