<svg width="18" height="15" viewBox="0 0 18 15" fill="none" xmlns="http://www.w3.org/2000/svg">
<path d="M9.6 11.6167V13.3333H13.6V15H4V13.3333H8V11.6167C6.95467 11.4833 6.00533 11.1056 5.152 10.4833C4.29867 9.86111 3.632 9.07778 3.152 8.13333C2.65067 7.15556 2.4 6.11111 2.4 5V-9.53674e-07H15.2V5C15.2 6.11111 14.9493 7.15556 14.448 8.13333C13.968 9.07778 13.3013 9.86111 12.448 10.4833C11.5947 11.1056 10.6453 11.4833 9.6 11.6167ZM4 1.66667V5C4 5.9 4.21867 6.73889 4.656 7.51667C5.08267 8.27222 5.65867 8.87222 6.384 9.31667C7.13067 9.77222 7.936 10 8.8 10C9.664 10 10.4693 9.77222 11.216 9.31667C11.9413 8.87222 12.5173 8.27222 12.944 7.51667C13.3813 6.73889 13.6 5.9 13.6 5V1.66667H4ZM0 1.66667H1.6V5H0V1.66667ZM16 1.66667H17.6V5H16V1.66667Z" fill="#089BC4"/>
</svg>
