<svg width="20" height="20" viewBox="0 0 20 20" fill="none" xmlns="http://www.w3.org/2000/svg">
<path d="M5.008 13.5329H16.4V3.53288H3.6V14.6995L5.008 13.5329ZM5.568 15.1995L2 18.1162V2.69954C2 2.47732 2.07733 2.28288 2.232 2.11621C2.38667 1.94954 2.576 1.86621 2.8 1.86621H17.2C17.424 1.86621 17.6133 1.94954 17.768 2.11621C17.9227 2.28288 18 2.47732 18 2.69954V14.3662C18 14.5995 17.9227 14.7995 17.768 14.9662C17.6133 15.1329 17.424 15.2107 17.2 15.1995H5.568ZM9.2 11.0329H10.8V12.6995H9.2V11.0329ZM7.248 6.71621C7.33333 6.27177 7.50933 5.87177 7.776 5.51621C8.04267 5.16066 8.368 4.8801 8.752 4.67454C9.136 4.46899 9.552 4.36621 10 4.36621C10.512 4.37732 10.9813 4.51343 11.408 4.77454C11.8347 5.03566 12.1733 5.38843 12.424 5.83288C12.6747 6.27732 12.8 6.76343 12.8 7.29121C12.8 7.81899 12.6747 8.3051 12.424 8.74954C12.1733 9.19399 11.8347 9.54954 11.408 9.81621C10.9813 10.0829 10.512 10.2162 10 10.2162H9.2V8.53288H10C10.3307 8.53288 10.6133 8.41343 10.848 8.17454C11.0827 7.93565 11.2 7.64121 11.2 7.29121C11.2 6.94121 11.0827 6.64677 10.848 6.40788C10.6133 6.16899 10.3307 6.04954 10 6.04954C9.712 6.04954 9.45867 6.14399 9.24 6.33288C9.02133 6.52177 8.88 6.76065 8.816 7.04954L7.248 6.71621Z" fill="#2563EB"/>
</svg>
