<svg width="16" height="16" viewBox="0 0 16 16" fill="none" xmlns="http://www.w3.org/2000/svg">
<path d="M8.00292 2C9.12932 2 10.196 2.26667 11.2029 2.8C12.1672 3.31556 12.98 4.02889 13.6413 4.94C14.3027 5.85111 14.7315 6.87111 14.9277 8C14.7315 9.12889 14.3027 10.1489 13.6413 11.06C12.98 11.9711 12.1672 12.6844 11.2029 13.2C10.196 13.7333 9.12932 14 8.00292 14C6.87652 14 5.80986 13.7333 4.80292 13.2C3.83866 12.6844 3.02586 11.9711 2.36452 11.06C1.70319 10.1489 1.27439 9.12889 1.07812 8C1.27439 6.87111 1.70319 5.85111 2.36452 4.94C3.02586 4.02889 3.83866 3.31556 4.80292 2.8C5.80986 2.26667 6.87652 2 8.00292 2ZM8.00292 12.6667C8.89039 12.6667 9.73519 12.4622 10.5373 12.0533C11.3139 11.6622 11.9731 11.1111 12.5149 10.4C13.0568 9.68889 13.4259 8.88889 13.6221 8C13.4259 7.11111 13.0568 6.31111 12.5149 5.6C11.9731 4.88889 11.3139 4.33778 10.5373 3.94667C9.73519 3.53778 8.89039 3.33333 8.00292 3.33333C7.11546 3.33333 6.27066 3.53778 5.46852 3.94667C4.69199 4.33778 4.03279 4.88889 3.49092 5.6C2.94906 6.31111 2.57999 7.11111 2.38372 8C2.57999 8.88889 2.94906 9.68889 3.49092 10.4C4.03279 11.1111 4.69199 11.6622 5.46852 12.0533C6.27066 12.4622 7.11546 12.6667 8.00292 12.6667ZM8.00292 11C7.48239 11 7.00239 10.8644 6.56292 10.5933C6.12346 10.3222 5.77359 9.95778 5.51332 9.5C5.25306 9.04222 5.12292 8.54222 5.12292 8C5.12292 7.45778 5.25306 6.95778 5.51332 6.5C5.77359 6.04222 6.12346 5.67778 6.56292 5.40667C7.00239 5.13556 7.48239 5 8.00292 5C8.52346 5 9.00346 5.13556 9.44292 5.40667C9.88239 5.67778 10.2323 6.04222 10.4925 6.5C10.7528 6.95778 10.8829 7.45778 10.8829 8C10.8829 8.54222 10.7528 9.04222 10.4925 9.5C10.2323 9.95778 9.88239 10.3222 9.44292 10.5933C9.00346 10.8644 8.52346 11 8.00292 11ZM8.00292 9.66667C8.29306 9.66667 8.55972 9.59111 8.80292 9.44C9.04612 9.28889 9.24026 9.08667 9.38532 8.83333C9.53039 8.58 9.60292 8.30222 9.60292 8C9.60292 7.69778 9.53039 7.42 9.38532 7.16667C9.24026 6.91333 9.04612 6.71111 8.80292 6.56C8.55972 6.40889 8.29306 6.33333 8.00292 6.33333C7.71279 6.33333 7.44613 6.40889 7.20292 6.56C6.95972 6.71111 6.76559 6.91333 6.62052 7.16667C6.47546 7.42 6.40293 7.69778 6.40293 8C6.40293 8.30222 6.47546 8.58 6.62052 8.83333C6.76559 9.08667 6.95972 9.28889 7.20292 9.44C7.44613 9.59111 7.71279 9.66667 8.00292 9.66667Z" fill="#16A34A"/>
</svg>
