<svg width="13" height="11" viewBox="0 0 13 11" fill="none" xmlns="http://www.w3.org/2000/svg">
<path d="M6.06596 0C7.05266 0 7.98704 0.233334 8.86909 0.7C9.71376 1.15111 10.4258 1.77528 11.0051 2.5725C11.5844 3.36972 11.96 4.26222 12.1319 5.25C11.96 6.23778 11.5844 7.13028 11.0051 7.9275C10.4258 8.72472 9.71376 9.34889 8.86909 9.8C7.98704 10.2667 7.05266 10.5 6.06596 10.5C5.07926 10.5 4.14489 10.2667 3.26284 9.8C2.41816 9.34889 1.70617 8.72472 1.12686 7.9275C0.547544 7.13028 0.171925 6.23778 0 5.25C0.171925 4.26222 0.547544 3.36972 1.12686 2.5725C1.70617 1.77528 2.41816 1.15111 3.26284 0.7C4.14489 0.233334 5.07926 0 6.06596 0ZM6.06596 9.33333C6.84336 9.33333 7.58339 9.15444 8.28604 8.79667C8.96626 8.45444 9.54371 7.97222 10.0184 7.35C10.493 6.72778 10.8163 6.02778 10.9882 5.25C10.8163 4.47222 10.493 3.77222 10.0184 3.15C9.54371 2.52778 8.96626 2.04556 8.28604 1.70333C7.58339 1.34556 6.84336 1.16667 6.06596 1.16667C5.28856 1.16667 4.54854 1.34556 3.84589 1.70333C3.16566 2.04556 2.58822 2.52778 2.11356 3.15C1.63889 3.77222 1.3156 4.47222 1.14367 5.25C1.3156 6.02778 1.63889 6.72778 2.11356 7.35C2.58822 7.97222 3.16566 8.45444 3.84589 8.79667C4.54854 9.15444 5.28856 9.33333 6.06596 9.33333ZM6.06596 7.875C5.60999 7.875 5.18952 7.75639 4.80456 7.51917C4.41959 7.28194 4.11312 6.96306 3.88513 6.5625C3.65714 6.16194 3.54315 5.72444 3.54315 5.25C3.54315 4.77556 3.65714 4.33806 3.88513 3.9375C4.11312 3.53694 4.41959 3.21806 4.80456 2.98083C5.18952 2.74361 5.60999 2.625 6.06596 2.625C6.52194 2.625 6.94241 2.74361 7.32737 2.98083C7.71233 3.21806 8.01881 3.53694 8.24679 3.9375C8.47478 4.33806 8.58877 4.77556 8.58877 5.25C8.58877 5.72444 8.47478 6.16194 8.24679 6.5625C8.01881 6.96306 7.71233 7.28194 7.32737 7.51917C6.94241 7.75639 6.52194 7.875 6.06596 7.875ZM6.06596 6.70833C6.32011 6.70833 6.55371 6.64222 6.76674 6.51C6.97978 6.37778 7.14984 6.20083 7.27691 5.97917C7.40399 5.7575 7.46753 5.51444 7.46753 5.25C7.46753 4.98556 7.40399 4.7425 7.27691 4.52083C7.14984 4.29917 6.97978 4.12222 6.76674 3.99C6.55371 3.85778 6.32011 3.79167 6.06596 3.79167C5.81181 3.79167 5.57822 3.85778 5.36518 3.99C5.15214 4.12222 4.98209 4.29917 4.85501 4.52083C4.72794 4.7425 4.6644 4.98556 4.6644 5.25C4.6644 5.51444 4.72794 5.7575 4.85501 5.97917C4.98209 6.20083 5.15214 6.37778 5.36518 6.51C5.57822 6.64222 5.81181 6.70833 6.06596 6.70833Z" fill="#089BC4"/>
</svg>
