<svg width="12" height="12" viewBox="0 0 12 12" fill="none" xmlns="http://www.w3.org/2000/svg">
<path d="M5.60625 11.6665C4.8438 11.6665 4.11499 11.5148 3.41981 11.2115C2.75454 10.9159 2.16214 10.4979 1.64263 9.95734C1.12312 9.41678 0.721337 8.80039 0.437287 8.10817C0.145763 7.38484 0 6.6265 0 5.83317C0 5.03984 0.145763 4.2815 0.437287 3.55817C0.721337 2.86595 1.12312 2.24956 1.64263 1.709C2.16214 1.16845 2.75454 0.750393 3.41981 0.454837C4.11499 0.151504 4.8438 -0.000163078 5.60625 -0.000163078C6.3687 -0.000163078 7.09751 0.151504 7.79269 0.454837C8.45796 0.750393 9.05036 1.16845 9.56987 1.709C10.0894 2.24956 10.4912 2.86595 10.7752 3.55817C11.0667 4.2815 11.2125 5.03984 11.2125 5.83317C11.2125 6.6265 11.0667 7.38484 10.7752 8.10817C10.4912 8.80039 10.0894 9.41678 9.56987 9.95734C9.05036 10.4979 8.45796 10.9159 7.79269 11.2115C7.09751 11.5148 6.3687 11.6665 5.60625 11.6665ZM5.60625 10.4998C6.42102 10.4998 7.176 10.2859 7.87117 9.85817C8.54393 9.44595 9.07839 8.88984 9.47456 8.18984C9.88569 7.4665 10.0912 6.68095 10.0912 5.83317C10.0912 4.98539 9.88569 4.19984 9.47456 3.4765C9.07839 2.7765 8.54393 2.22039 7.87117 1.80817C7.176 1.38039 6.42102 1.1665 5.60625 1.1665C4.79147 1.1665 4.0365 1.38039 3.34133 1.80817C2.66858 2.22039 2.13411 2.7765 1.73794 3.4765C1.32681 4.19984 1.12125 4.98539 1.12125 5.83317C1.12125 6.68095 1.32681 7.4665 1.73794 8.18984C2.13411 8.88984 2.66858 9.44595 3.34133 9.85817C4.0365 10.2859 4.79147 10.4998 5.60625 10.4998ZM5.04562 7.58317H6.16687V8.74984H5.04562V7.58317ZM6.16687 6.6265V6.99984H5.04562V6.12484C5.04562 5.9615 5.09982 5.82345 5.20821 5.71067C5.31659 5.59789 5.44928 5.5415 5.60625 5.5415C5.83798 5.5415 6.03606 5.45595 6.20051 5.28484C6.36496 5.11373 6.44719 4.90762 6.44719 4.6665C6.44719 4.42539 6.36496 4.21928 6.20051 4.04817C6.03606 3.87706 5.83798 3.7915 5.60625 3.7915C5.40443 3.7915 5.22689 3.85761 5.07366 3.98984C4.92042 4.12206 4.82137 4.28928 4.77653 4.4915L3.6777 4.26984C3.7375 3.95873 3.86084 3.67873 4.04771 3.42984C4.23459 3.18095 4.46257 2.98456 4.73168 2.84067C5.00077 2.69678 5.2923 2.62484 5.60625 2.62484C5.96505 2.62484 6.29395 2.71623 6.59295 2.899C6.89195 3.08178 7.12928 3.32873 7.30494 3.63984C7.48061 3.95095 7.56844 4.29317 7.56844 4.6665C7.56844 5.12539 7.43762 5.53373 7.176 5.8915C6.91437 6.24928 6.578 6.49428 6.16687 6.6265Z" fill="#089BC4"/>
</svg>
