<svg width="12" height="12" viewBox="0 0 12 12" fill="none" xmlns="http://www.w3.org/2000/svg">
<path d="M5.60625 11.6667C4.8438 11.6667 4.11499 11.515 3.41981 11.2117C2.75454 10.9161 2.16214 10.4981 1.64263 9.9575C1.12312 9.41694 0.721337 8.80056 0.437287 8.10833C0.145763 7.385 0 6.62667 0 5.83333C0 5.04 0.145763 4.28167 0.437287 3.55833C0.721337 2.86611 1.12312 2.24972 1.64263 1.70917C2.16214 1.16861 2.75454 0.750556 3.41981 0.455C4.11499 0.151667 4.8438 0 5.60625 0C6.3687 0 7.09751 0.151667 7.79269 0.455C8.45796 0.750556 9.05036 1.16861 9.56987 1.70917C10.0894 2.24972 10.4912 2.86611 10.7752 3.55833C11.0667 4.28167 11.2125 5.04 11.2125 5.83333C11.2125 6.62667 11.0667 7.385 10.7752 8.10833C10.4912 8.80056 10.0894 9.41694 9.56987 9.9575C9.05036 10.4981 8.45796 10.9161 7.79269 11.2117C7.09751 11.515 6.3687 11.6667 5.60625 11.6667ZM5.60625 10.5C6.42102 10.5 7.176 10.2861 7.87117 9.85833C8.54393 9.44611 9.07839 8.89 9.47456 8.19C9.88569 7.46667 10.0912 6.68111 10.0912 5.83333C10.0912 4.98556 9.88569 4.2 9.47456 3.47667C9.07839 2.77667 8.54393 2.22056 7.87117 1.80833C7.176 1.38056 6.42102 1.16667 5.60625 1.16667C4.79147 1.16667 4.0365 1.38056 3.34133 1.80833C2.66858 2.22056 2.13411 2.77667 1.73794 3.47667C1.32681 4.2 1.12125 4.98556 1.12125 5.83333C1.12125 6.68111 1.32681 7.46667 1.73794 8.19C2.13411 8.89 2.66858 9.44611 3.34133 9.85833C4.0365 10.2861 4.79147 10.5 5.60625 10.5ZM5.04562 2.91667H6.16687V4.08333H5.04562V2.91667ZM5.04562 5.25H6.16687V8.75H5.04562V5.25Z" fill="#089BC4"/>
</svg>
