<svg width="11" height="12" viewBox="0 0 11 12" fill="none" xmlns="http://www.w3.org/2000/svg">
<path d="M0 9.62508V1.75008C0 1.43119 0.07475 1.13758 0.22425 0.869248C0.37375 0.600915 0.577444 0.38897 0.835331 0.233415C1.09322 0.0778589 1.3754 8.10623e-05 1.68188 8.10623e-05H9.53063C9.6876 8.10623e-05 9.82028 0.0564699 9.92867 0.169248C10.0371 0.282025 10.0913 0.420081 10.0913 0.583415V11.0834C10.0913 11.2467 10.0371 11.3848 9.92867 11.4976C9.82028 11.6104 9.6876 11.6667 9.53063 11.6667H1.96219C1.60339 11.6667 1.27449 11.5754 0.975488 11.3926C0.676488 11.2098 0.439156 10.9629 0.263494 10.6517C0.0878313 10.3406 0 9.99841 0 9.62508ZM8.97 10.5001V8.75008H1.96219C1.73046 8.75008 1.53238 8.83564 1.36793 9.00675C1.20348 9.17786 1.12125 9.38397 1.12125 9.62508C1.12125 9.86619 1.20348 10.0723 1.36793 10.2434C1.53238 10.4145 1.73046 10.5001 1.96219 10.5001H8.97ZM1.12125 7.78175C1.38288 7.64953 1.66319 7.58341 1.96219 7.58341H8.97V1.16675H1.68188C1.5249 1.16675 1.39222 1.22314 1.28383 1.33591C1.17544 1.44869 1.12125 1.58675 1.12125 1.75008V7.78175Z" fill="#4B5563"/>
</svg>
