<svg width="11" height="13" viewBox="0 0 11 13" fill="none" xmlns="http://www.w3.org/2000/svg">
<path d="M0 3.3833L4.73168 0.0933008C4.82885 0.0310783 4.9335 -3.24249e-05 5.04563 -3.24249e-05C5.15775 -3.24249e-05 5.2624 0.0310783 5.35958 0.0933008L10.0913 3.3833V11.55C10.0913 11.7133 10.0371 11.8514 9.92867 11.9641C9.82028 12.0769 9.6876 12.1333 9.53063 12.1333H0.560625C0.40365 12.1333 0.270969 12.0769 0.162581 11.9641C0.0541938 11.8514 0 11.7133 0 11.55V3.3833ZM1.12125 4.00163V10.9666H8.97V4.00163L5.04563 1.2833L1.12125 4.00163ZM5.04563 5.71663C4.8438 5.71663 4.65693 5.66413 4.485 5.55913C4.31308 5.45413 4.17666 5.31219 4.07574 5.1333C3.97483 4.95441 3.92438 4.75997 3.92438 4.54997C3.92438 4.33997 3.97483 4.14552 4.07574 3.96663C4.17666 3.78775 4.31308 3.6458 4.485 3.5408C4.65693 3.4358 4.8438 3.3833 5.04563 3.3833C5.24745 3.3833 5.43433 3.4358 5.60625 3.5408C5.77818 3.6458 5.91459 3.78775 6.01551 3.96663C6.11642 4.14552 6.16688 4.33997 6.16688 4.54997C6.16688 4.75997 6.11642 4.95441 6.01551 5.1333C5.91459 5.31219 5.77818 5.45413 5.60625 5.55913C5.43433 5.66413 5.24745 5.71663 5.04563 5.71663Z" fill="#4B5563"/>
</svg>
