<svg width="16" height="17" viewBox="0 0 16 17" fill="none" xmlns="http://www.w3.org/2000/svg">
<path d="M4 4.16675V0.833416C4 0.600082 4.07733 0.402861 4.232 0.241749C4.38667 0.080637 4.576 8.2016e-05 4.8 8.2016e-05H15.2C15.424 8.2016e-05 15.6133 0.080637 15.768 0.241749C15.9227 0.402861 16 0.600082 16 0.833416V11.6667C16 11.9001 15.9227 12.0973 15.768 12.2584C15.6133 12.4195 15.424 12.5001 15.2 12.5001H12V15.8334C12 16.0667 11.9227 16.264 11.768 16.4251C11.6133 16.5862 11.424 16.6667 11.2 16.6667H0.8C0.576 16.6667 0.386667 16.5862 0.232 16.4251C0.0773333 16.264 0 16.0667 0 15.8334V5.00008C0 4.76675 0.08 4.56953 0.24 4.40842C0.4 4.2473 0.592 4.16675 0.816 4.16675H4ZM5.6 4.16675H11.2C11.424 4.16675 11.6133 4.2473 11.768 4.40842C11.9227 4.56953 12 4.76675 12 5.00008V10.8334H14.4V1.66675H5.6V4.16675ZM10.4 5.83342H1.6V15.0001H10.4V5.83342ZM5.2 13.3334L2.368 10.3834L3.504 9.21675L5.2 10.9834L8.592 7.43342L9.728 8.61675L5.2 13.3334Z" fill="#1D4ED8"/>
</svg>
