<svg width="11" height="13" viewBox="0 0 11 13" fill="none" xmlns="http://www.w3.org/2000/svg">
<path d="M5.32594 0.000163078L10.6519 3.2085V9.62516L5.32594 12.8335L0 9.62516V3.2085L5.32594 0.000163078ZM5.32594 1.3535L1.12125 3.88516V8.9485L5.32594 11.4802L9.53062 8.9485V3.88516L5.32594 1.3535ZM5.32594 8.75016C4.92229 8.75016 4.54854 8.64516 4.20469 8.43516C3.86084 8.22516 3.588 7.94127 3.38617 7.5835C3.18435 7.22572 3.08344 6.83683 3.08344 6.41683C3.08344 5.99683 3.18435 5.60794 3.38617 5.25016C3.588 4.89239 3.86084 4.6085 4.20469 4.3985C4.54854 4.1885 4.92229 4.0835 5.32594 4.0835C5.72959 4.0835 6.10334 4.1885 6.44719 4.3985C6.79104 4.6085 7.06387 4.89239 7.2657 5.25016C7.46753 5.60794 7.56844 5.99683 7.56844 6.41683C7.56844 6.83683 7.46753 7.22572 7.2657 7.5835C7.06387 7.94127 6.79104 8.22516 6.44719 8.43516C6.10334 8.64516 5.72959 8.75016 5.32594 8.75016ZM5.32594 7.5835C5.52776 7.5835 5.71464 7.531 5.88656 7.426C6.05849 7.321 6.19491 7.17905 6.29582 7.00016C6.39673 6.82127 6.44719 6.62683 6.44719 6.41683C6.44719 6.20683 6.39673 6.01238 6.29582 5.8335C6.19491 5.65461 6.05849 5.51266 5.88656 5.40766C5.71464 5.30266 5.52776 5.25016 5.32594 5.25016C5.12411 5.25016 4.93724 5.30266 4.76531 5.40766C4.59339 5.51266 4.45697 5.65461 4.35606 5.8335C4.25514 6.01238 4.20469 6.20683 4.20469 6.41683C4.20469 6.62683 4.25514 6.82127 4.35606 7.00016C4.45697 7.17905 4.59339 7.321 4.76531 7.426C4.93724 7.531 5.12411 7.5835 5.32594 7.5835Z" fill="#6B7280"/>
</svg>
