<svg width="11" height="13" viewBox="0 0 11 13" fill="none" xmlns="http://www.w3.org/2000/svg">
<path d="M5.32594 -0.000325203L10.6519 3.20801V9.62467L5.32594 12.833L0 9.62467V3.20801L5.32594 -0.000325203ZM5.32594 1.35301L1.12125 3.88467V8.94801L5.32594 11.4797L9.53062 8.94801V3.88467L5.32594 1.35301ZM5.32594 8.74967C4.92229 8.74967 4.54854 8.64467 4.20469 8.43467C3.86084 8.22467 3.588 7.94079 3.38617 7.58301C3.18435 7.22523 3.08344 6.83634 3.08344 6.41634C3.08344 5.99634 3.18435 5.60745 3.38617 5.24967C3.588 4.8919 3.86084 4.60801 4.20469 4.39801C4.54854 4.18801 4.92229 4.08301 5.32594 4.08301C5.72959 4.08301 6.10334 4.18801 6.44719 4.39801C6.79104 4.60801 7.06387 4.8919 7.2657 5.24967C7.46753 5.60745 7.56844 5.99634 7.56844 6.41634C7.56844 6.83634 7.46753 7.22523 7.2657 7.58301C7.06387 7.94079 6.79104 8.22467 6.44719 8.43467C6.10334 8.64467 5.72959 8.74967 5.32594 8.74967ZM5.32594 7.58301C5.52776 7.58301 5.71464 7.53051 5.88656 7.42551C6.05849 7.32051 6.19491 7.17856 6.29582 6.99967C6.39673 6.82079 6.44719 6.62634 6.44719 6.41634C6.44719 6.20634 6.39673 6.0119 6.29582 5.83301C6.19491 5.65412 6.05849 5.51217 5.88656 5.40717C5.71464 5.30217 5.52776 5.24967 5.32594 5.24967C5.12411 5.24967 4.93724 5.30217 4.76531 5.40717C4.59339 5.51217 4.45697 5.65412 4.35606 5.83301C4.25514 6.0119 4.20469 6.20634 4.20469 6.41634C4.20469 6.62634 4.25514 6.82079 4.35606 6.99967C4.45697 7.17856 4.59339 7.32051 4.76531 7.42551C4.93724 7.53051 5.12411 7.58301 5.32594 7.58301Z" fill="#089BC4"/>
</svg>
