<svg width="12" height="14" viewBox="0 0 12 14" fill="none" xmlns="http://www.w3.org/2000/svg">
<path d="M7.68 1.3335H1.28V12.0002H10.24V4.00016H7.68V1.3335ZM0 0.66683C0 0.480164 0.0618667 0.322386 0.1856 0.193497C0.309333 0.0646076 0.4608 0.000163078 0.64 0.000163078H8.32L11.52 3.3335V12.6668C11.52 12.8446 11.4581 13.0002 11.3344 13.1335C11.2107 13.2668 11.0592 13.3335 10.88 13.3335H0.64C0.4608 13.3335 0.309333 13.2691 0.1856 13.1402C0.0618667 13.0113 0 12.8535 0 12.6668V0.66683ZM6.4 6.66683V9.3335H5.12V6.66683H3.2L5.76 4.00016L8.32 6.66683H6.4Z" fill="#089BC4"/>
</svg>
