<svg width="13" height="14" viewBox="0 0 13 14" fill="none" xmlns="http://www.w3.org/2000/svg">
<path d="M6.4 13.3335C5.5296 13.3335 4.6976 13.1602 3.904 12.8135C3.14453 12.4757 2.46827 11.9979 1.8752 11.3802C1.28213 10.7624 0.823467 10.0579 0.4992 9.26683C0.1664 8.44016 0 7.5735 0 6.66683C0 5.76016 0.1664 4.8935 0.4992 4.06683C0.823467 3.27572 1.28213 2.57127 1.8752 1.9535C2.46827 1.33572 3.14453 0.857941 3.904 0.520164C4.6976 0.173496 5.5296 0.000163078 6.4 0.000163078C7.2704 0.000163078 8.1024 0.173496 8.896 0.520164C9.65547 0.857941 10.3317 1.33572 10.9248 1.9535C11.5179 2.57127 11.9765 3.27572 12.3008 4.06683C12.6336 4.8935 12.8 5.76016 12.8 6.66683C12.8 7.5735 12.6336 8.44016 12.3008 9.26683C11.9765 10.0579 11.5179 10.7624 10.9248 11.3802C10.3317 11.9979 9.65547 12.4757 8.896 12.8135C8.1024 13.1602 7.2704 13.3335 6.4 13.3335ZM6.4 12.0002C7.33013 12.0002 8.192 11.7557 8.9856 11.2668C9.7536 10.7957 10.3637 10.1602 10.816 9.36016C11.2853 8.5335 11.52 7.63572 11.52 6.66683C11.52 5.69794 11.2853 4.80016 10.816 3.9735C10.3637 3.1735 9.7536 2.53794 8.9856 2.06683C8.192 1.57794 7.33013 1.3335 6.4 1.3335C5.46987 1.3335 4.608 1.57794 3.8144 2.06683C3.0464 2.53794 2.43627 3.1735 1.984 3.9735C1.51467 4.80016 1.28 5.69794 1.28 6.66683C1.28 7.63572 1.51467 8.5335 1.984 9.36016C2.43627 10.1602 3.0464 10.7957 3.8144 11.2668C4.608 11.7557 5.46987 12.0002 6.4 12.0002ZM5.76 3.3335H7.04V4.66683H5.76V3.3335ZM5.76 6.00016H7.04V10.0002H5.76V6.00016Z" fill="#1E3A8A"/>
</svg>
