<svg width="13" height="13" viewBox="0 0 13 13" fill="none" xmlns="http://www.w3.org/2000/svg">
<path d="M8.7936 0.586426L7.5136 1.91976H1.28V11.2531H10.24V4.75976L11.52 3.42643V11.9198C11.52 12.1064 11.456 12.2642 11.328 12.3931C11.2 12.522 11.0507 12.5864 10.88 12.5864H0.64C0.4608 12.5864 0.309333 12.522 0.1856 12.3931C0.0618667 12.2642 0 12.1064 0 11.9198V1.25309C0 1.07531 0.0618667 0.919759 0.1856 0.786426C0.309333 0.653092 0.4608 0.586426 0.64 0.586426H8.7936ZM11.1872 -0.00024128L12.0832 0.933092L6.208 7.06643H5.2992V6.11976L11.1872 -0.00024128Z" fill="#581C87"/>
</svg>
