<svg width="16" height="17" viewBox="0 0 16 17" fill="none" xmlns="http://www.w3.org/2000/svg">
<path d="M8 16.6665C6.912 16.6665 5.872 16.4498 4.88 16.0165C3.93067 15.5943 3.08533 14.9971 2.344 14.2248C1.60267 13.4526 1.02933 12.5721 0.624 11.5832C0.208 10.5498 0 9.4665 0 8.33317C0 7.19984 0.208 6.1165 0.624 5.08317C1.02933 4.09428 1.60267 3.21373 2.344 2.4415C3.08533 1.66928 3.93067 1.07206 4.88 0.649837C5.872 0.216505 6.912 -0.000162125 8 -0.000162125C9.088 -0.000162125 10.128 0.216505 11.12 0.649837C12.0693 1.07206 12.9147 1.66928 13.656 2.4415C14.3973 3.21373 14.9707 4.09428 15.376 5.08317C15.792 6.1165 16 7.19984 16 8.33317C16 9.4665 15.792 10.5498 15.376 11.5832C14.9707 12.5721 14.3973 13.4526 13.656 14.2248C12.9147 14.9971 12.0693 15.5943 11.12 16.0165C10.128 16.4498 9.088 16.6665 8 16.6665ZM8 14.9998C9.16267 14.9998 10.24 14.6943 11.232 14.0832C12.192 13.4943 12.9547 12.6998 13.52 11.6998C14.1067 10.6665 14.4 9.54428 14.4 8.33317C14.4 7.12206 14.1067 5.99984 13.52 4.96651C12.9547 3.96651 12.192 3.17206 11.232 2.58317C10.24 1.97206 9.16267 1.6665 8 1.6665C6.83733 1.6665 5.76 1.97206 4.768 2.58317C3.808 3.17206 3.04533 3.96651 2.48 4.96651C1.89333 5.99984 1.6 7.12206 1.6 8.33317C1.6 9.54428 1.89333 10.6665 2.48 11.6998C3.04533 12.6998 3.808 13.4943 4.768 14.0832C5.76 14.6943 6.83733 14.9998 8 14.9998ZM8.8 8.33317H12V9.99984H7.2V4.1665H8.8V8.33317Z" fill="#16A34A"/>
</svg>
