<svg width="22" height="19" viewBox="0 0 22 19" fill="none" xmlns="http://www.w3.org/2000/svg">
<path d="M0 12.5C0 11.3533 0.2688 10.2867 0.8064 9.3C1.3312 8.34 2.0416 7.56667 2.9376 6.98C3.104 5.68667 3.5424 4.50667 4.2528 3.44C4.9632 2.37333 5.8624 1.54 6.9504 0.940001C8.0768 0.313334 9.28 0 10.56 0C11.84 0 13.0432 0.313334 14.1696 0.940001C15.2576 1.54 16.1568 2.37333 16.8672 3.44C17.5776 4.50667 18.016 5.68667 18.1824 6.98C19.0784 7.56667 19.7888 8.34 20.3136 9.3C20.8512 10.2867 21.12 11.3467 21.12 12.48C21.12 13.6133 20.864 14.6667 20.352 15.64C19.84 16.5867 19.1456 17.36 18.2688 17.96C17.392 18.56 16.4224 18.9 15.36 18.98L5.76 19C4.6976 18.9067 3.728 18.56 2.8512 17.96C1.9744 17.36 1.28 16.5867 0.768 15.64C0.256 14.6667 0 13.62 0 12.5ZM15.2064 16.98C15.9488 16.9267 16.624 16.6933 17.232 16.28C17.84 15.8667 18.32 15.3267 18.672 14.66C19.024 13.9933 19.2 13.27 19.2 12.49C19.2 11.71 19.0176 10.9833 18.6528 10.31C18.288 9.63667 17.792 9.09333 17.1648 8.68L16.3968 8.18L16.2816 7.24C16.1536 6.25333 15.8208 5.36333 15.2832 4.57C14.7456 3.77667 14.064 3.15 13.2384 2.69C12.4128 2.23 11.52 2 10.56 2C9.6 2 8.7072 2.23 7.8816 2.69C7.056 3.15 6.3744 3.77667 5.8368 4.57C5.2992 5.36333 4.9664 6.25333 4.8384 7.24L4.7232 8.18L3.9552 8.68C3.328 9.09333 2.832 9.63667 2.4672 10.31C2.1024 10.9833 1.92 11.71 1.92 12.49C1.92 13.27 2.096 13.9933 2.448 14.66C2.8 15.3267 3.28 15.8667 3.888 16.28C4.496 16.6933 5.1712 16.9267 5.9136 16.98L6.0672 17H15.0528L15.2064 16.98ZM11.52 11V15H9.6V11H6.72L10.56 6L14.4 11H11.52Z" fill="#9CA3AF"/>
</svg>
