<svg width="13" height="14" viewBox="0 0 13 14" fill="none" xmlns="http://www.w3.org/2000/svg">
<path d="M10.88 0.000163078C11.0592 0.000163078 11.2107 0.0646076 11.3344 0.193497C11.4581 0.322386 11.52 0.480164 11.52 0.66683V3.1735L10.24 4.50683V1.3335H1.28V12.0002H10.24V10.1602L11.52 8.82683V12.6668C11.52 12.8535 11.4581 13.0113 11.3344 13.1402C11.2107 13.2691 11.0592 13.3335 10.88 13.3335H0.64C0.4608 13.3335 0.309333 13.2691 0.1856 13.1402C0.0618667 13.0113 0 12.8535 0 12.6668V0.66683C0 0.480164 0.0618667 0.322386 0.1856 0.193497C0.309333 0.0646076 0.4608 0.000163078 0.64 0.000163078H10.88ZM12.0192 4.5335L12.928 5.48016L7.9488 10.6668H7.04V9.72016L12.0192 4.5335ZM6.4 6.66683V8.00016H3.2V6.66683H6.4ZM8.32 4.00016V5.3335H3.2V4.00016H8.32Z" fill="#089BC4"/>
</svg>
