<svg width="14" height="15" viewBox="0 0 14 15" fill="none" xmlns="http://www.w3.org/2000/svg">
<path d="M13.5 4.5V14.25C13.5 14.46 13.4275 14.6375 13.2825 14.7825C13.1375 14.9275 12.96 15 12.75 15H0.75C0.54 15 0.3625 14.9275 0.2175 14.7825C0.0725 14.6375 0 14.46 0 14.25V0.75C0 0.54 0.0725 0.3625 0.2175 0.217501C0.3625 0.0725002 0.54 0 0.75 0H9L13.5 4.5ZM12 5.25H8.25V1.5H1.5V13.5H12V5.25ZM3.75 3.75H6V5.25H3.75V3.75ZM3.75 6.75H9.75V8.25H3.75V6.75ZM3.75 9.75H9.75V11.25H3.75V9.75Z" fill="#374151"/>
</svg>
