<svg width="15" height="15" viewBox="0 0 15 15" fill="none" xmlns="http://www.w3.org/2000/svg">
<path d="M3.75 3.75V0.75C3.75 0.54 3.8225 0.3625 3.9675 0.217501C4.1125 0.0725002 4.29 0 4.5 0H14.25C14.46 0 14.6375 0.0725002 14.7825 0.217501C14.9275 0.3625 15 0.54 15 0.75V10.5C15 10.71 14.9275 10.8875 14.7825 11.0325C14.6375 11.1775 14.46 11.25 14.25 11.25H11.25V14.25C11.25 14.46 11.1775 14.6375 11.0325 14.7825C10.8875 14.9275 10.71 15 10.5 15H0.75C0.54 15 0.3625 14.9275 0.2175 14.7825C0.0725 14.6375 0 14.46 0 14.25V4.5C0 4.29 0.075 4.1125 0.225 3.9675C0.375 3.8225 0.555 3.75 0.765 3.75H3.75ZM5.25 3.75H10.5C10.71 3.75 10.8875 3.8225 11.0325 3.9675C11.1775 4.1125 11.25 4.29 11.25 4.5V9.75H13.5V1.5H5.25V3.75ZM9.75 5.25H1.5V13.5H9.75V5.25ZM4.875 12L2.22 9.345L3.285 8.295L4.875 9.885L8.055 6.69L9.12 7.755L4.875 12Z" fill="#7E22CE"/>
</svg>
