<svg width="12" height="14" viewBox="0 0 12 14" fill="none" xmlns="http://www.w3.org/2000/svg">
<path d="M6.4 2.04C7.3472 2.14667 8.2176 2.48 9.0112 3.04C9.7792 3.59111 10.3851 4.29778 10.8288 5.16C11.2896 6.04 11.52 6.98667 11.52 8V14H0V8C0 6.98667 0.2304 6.04 0.6912 5.16C1.13493 4.29778 1.7408 3.59111 2.5088 3.04C3.3024 2.48 4.1728 2.14667 5.12 2.04V0H6.4V2.04ZM10.24 12.6667V8C10.24 7.15556 10.0352 6.36889 9.6256 5.64C9.23307 4.93778 8.69973 4.38222 8.0256 3.97333C7.32587 3.54667 6.57067 3.33333 5.76 3.33333C4.94933 3.33333 4.19413 3.54667 3.4944 3.97333C2.82027 4.38222 2.28693 4.93778 1.8944 5.64C1.4848 6.36889 1.28 7.15556 1.28 8V12.6667H10.24ZM5.76 11.3333C5.17973 11.3333 4.64427 11.1844 4.1536 10.8867C3.66293 10.5889 3.27467 10.1844 2.9888 9.67333C2.70293 9.16222 2.56 8.60444 2.56 8C2.56 7.39556 2.70293 6.83778 2.9888 6.32667C3.27467 5.81556 3.66293 5.41111 4.1536 5.11333C4.64427 4.81556 5.17973 4.66667 5.76 4.66667C6.34027 4.66667 6.87573 4.81556 7.3664 5.11333C7.85707 5.41111 8.24533 5.81556 8.5312 6.32667C8.81707 6.83778 8.96 7.39556 8.96 8C8.96 8.60444 8.81707 9.16222 8.5312 9.67333C8.24533 10.1844 7.85707 10.5889 7.3664 10.8867C6.87573 11.1844 6.34027 11.3333 5.76 11.3333ZM5.76 10C6.10987 10 6.432 9.91111 6.7264 9.73333C7.0208 9.55556 7.25333 9.31333 7.424 9.00667C7.59467 8.7 7.68 8.36444 7.68 8C7.68 7.63556 7.59467 7.3 7.424 6.99333C7.25333 6.68667 7.0208 6.44444 6.7264 6.26667C6.432 6.08889 6.10987 6 5.76 6C5.41013 6 5.088 6.08889 4.7936 6.26667C4.4992 6.44444 4.26667 6.68667 4.096 6.99333C3.92533 7.3 3.84 7.63556 3.84 8C3.84 8.36444 3.92533 8.7 4.096 9.00667C4.26667 9.31333 4.4992 9.55556 4.7936 9.73333C5.088 9.91111 5.41013 10 5.76 10ZM5.76 8.66667C5.5808 8.66667 5.42933 8.60222 5.3056 8.47333C5.18187 8.34444 5.12 8.18667 5.12 8C5.12 7.81333 5.18187 7.65556 5.3056 7.52667C5.42933 7.39778 5.5808 7.33333 5.76 7.33333C5.9392 7.33333 6.09067 7.39778 6.2144 7.52667C6.33813 7.65556 6.4 7.81333 6.4 8C6.4 8.18667 6.33813 8.34444 6.2144 8.47333C6.09067 8.60222 5.9392 8.66667 5.76 8.66667Z" fill="#581C87"/>
</svg>
