<svg width="13" height="14" viewBox="0 0 13 14" fill="none" xmlns="http://www.w3.org/2000/svg">
<path d="M0.6272 10.0067C0.354133 9.51779 0.145067 9.00224 0 8.46001C0.315733 8.29112 0.5696 8.04668 0.7616 7.72668C0.9536 7.40668 1.0496 7.05557 1.0496 6.67335C1.0496 6.29112 0.9536 5.94001 0.7616 5.62001C0.5696 5.30001 0.315733 5.05557 0 4.88668C0.298667 3.77557 0.832 2.81112 1.6 1.99335C1.89867 2.19779 2.22933 2.30668 2.592 2.32001C2.95467 2.33335 3.29387 2.24446 3.6096 2.05335C3.92533 1.86224 4.16853 1.60001 4.3392 1.26668C4.50987 0.933347 4.58667 0.584458 4.5696 0.220014C5.63627 -0.0733194 6.70293 -0.0733194 7.7696 0.220014C7.75253 0.584458 7.82933 0.933347 8 1.26668C8.17067 1.60001 8.41387 1.86224 8.7296 2.05335C9.04533 2.24446 9.38453 2.33335 9.7472 2.32001C10.1099 2.30668 10.4405 2.19779 10.7392 1.99335C11.1147 2.40224 11.4389 2.85112 11.712 3.34001C11.9851 3.8289 12.1941 4.34446 12.3392 4.88668C12.0235 5.05557 11.7696 5.30001 11.5776 5.62001C11.3856 5.94001 11.2896 6.29112 11.2896 6.67335C11.2896 7.05557 11.3856 7.40668 11.5776 7.72668C11.7696 8.04668 12.0235 8.29112 12.3392 8.46001C12.0405 9.57112 11.5072 10.5356 10.7392 11.3533C10.4405 11.1489 10.1099 11.04 9.7472 11.0267C9.38453 11.0133 9.04533 11.1022 8.7296 11.2933C8.41387 11.4845 8.17067 11.7467 8 12.08C7.82933 12.4133 7.75253 12.7622 7.7696 13.1267C6.70293 13.42 5.63627 13.42 4.5696 13.1267C4.58667 12.7622 4.50987 12.4133 4.3392 12.08C4.16853 11.7467 3.92533 11.4845 3.6096 11.2933C3.29387 11.1022 2.95467 11.0133 2.592 11.0267C2.22933 11.04 1.89867 11.1489 1.6 11.3533C1.22453 10.9445 0.900267 10.4956 0.6272 10.0067ZM4.2496 10.14C4.59093 10.3445 4.88533 10.6067 5.1328 10.9267C5.38027 11.2467 5.568 11.5978 5.696 11.98C6.01173 12.0156 6.32747 12.0156 6.6432 11.98C6.7712 11.5978 6.9568 11.2467 7.2 10.9267C7.4432 10.6067 7.7376 10.3422 8.0832 10.1333C8.4288 9.92446 8.79787 9.7889 9.1904 9.72668C9.58293 9.66446 9.96693 9.67779 10.3424 9.76668C10.5301 9.49112 10.6923 9.20224 10.8288 8.90001C10.5643 8.59779 10.3616 8.25557 10.2208 7.87335C10.08 7.49112 10.0096 7.09112 10.0096 6.67335C10.0096 6.25557 10.08 5.85557 10.2208 5.47335C10.3616 5.09112 10.5643 4.7489 10.8288 4.44668C10.7605 4.29557 10.6859 4.1489 10.6048 4.00668C10.5237 3.86446 10.4363 3.72224 10.3424 3.58001C9.96693 3.6689 9.58293 3.68224 9.1904 3.62001C8.79787 3.55779 8.43093 3.42224 8.0896 3.21335C7.74827 3.00446 7.45387 2.74001 7.2064 2.42001C6.95893 2.10001 6.7712 1.7489 6.6432 1.36668C6.32747 1.33112 6.01173 1.33112 5.696 1.36668C5.568 1.7489 5.3824 2.10001 5.1392 2.42001C4.896 2.74001 4.59947 3.00446 4.2496 3.21335C3.89973 3.42224 3.53067 3.55779 3.1424 3.62001C2.75413 3.68224 2.37227 3.6689 1.9968 3.58001C1.80907 3.85557 1.64693 4.14446 1.5104 4.44668C1.77493 4.7489 1.9776 5.09112 2.1184 5.47335C2.2592 5.85557 2.3296 6.25557 2.3296 6.67335C2.3296 7.09112 2.2592 7.49112 2.1184 7.87335C1.9776 8.25557 1.77493 8.59779 1.5104 8.90001C1.57867 9.05112 1.65333 9.19779 1.7344 9.34001C1.81547 9.48224 1.90293 9.62446 1.9968 9.76668C2.37227 9.67779 2.75627 9.66446 3.1488 9.72668C3.54133 9.7889 3.90827 9.92668 4.2496 10.14ZM6.1696 8.67335C5.81973 8.67335 5.4976 8.58446 5.2032 8.40668C4.9088 8.2289 4.67627 7.98668 4.5056 7.68001C4.33493 7.37335 4.2496 7.03779 4.2496 6.67335C4.2496 6.3089 4.33493 5.97335 4.5056 5.66668C4.67627 5.36001 4.9088 5.11779 5.2032 4.94001C5.4976 4.76224 5.81973 4.67335 6.1696 4.67335C6.51947 4.67335 6.8416 4.76224 7.136 4.94001C7.4304 5.11779 7.66293 5.36001 7.8336 5.66668C8.00427 5.97335 8.0896 6.3089 8.0896 6.67335C8.0896 7.03779 8.00427 7.37335 7.8336 7.68001C7.66293 7.98668 7.4304 8.2289 7.136 8.40668C6.8416 8.58446 6.51947 8.67335 6.1696 8.67335ZM6.1696 7.34001C6.3488 7.34001 6.50027 7.27557 6.624 7.14668C6.74773 7.01779 6.8096 6.86001 6.8096 6.67335C6.8096 6.48668 6.74773 6.3289 6.624 6.20001C6.50027 6.07112 6.3488 6.00668 6.1696 6.00668C5.9904 6.00668 5.83893 6.07112 5.7152 6.20001C5.59147 6.3289 5.5296 6.48668 5.5296 6.67335C5.5296 6.86001 5.59147 7.01779 5.7152 7.14668C5.83893 7.27557 5.9904 7.34001 6.1696 7.34001Z" fill="#14532D"/>
</svg>
