<svg width="14" height="14" viewBox="0 0 14 14" fill="none" xmlns="http://www.w3.org/2000/svg">
<path d="M0.75 0H12.75C12.96 0 13.1375 0.0725002 13.2825 0.217501C13.4275 0.3625 13.5 0.54 13.5 0.75V12.75C13.5 12.96 13.4275 13.1375 13.2825 13.2825C13.1375 13.4275 12.96 13.5 12.75 13.5H0.75C0.54 13.5 0.3625 13.4275 0.2175 13.2825C0.0725 13.1375 0 12.96 0 12.75V0.75C0 0.54 0.0725 0.3625 0.2175 0.217501C0.3625 0.0725002 0.54 0 0.75 0ZM1.5 1.5V12H12V1.5H1.5ZM6 9.75L2.82 6.57L3.885 5.505L6 7.635L10.245 3.39L11.31 4.44L6 9.75Z" fill="#374151"/>
</svg>
