<svg width="22" height="27" viewBox="0 0 22 27" fill="none" xmlns="http://www.w3.org/2000/svg">
<path d="M12.0063 3.825C13.7832 4.025 15.416 4.65 16.9048 5.7C18.3456 6.73333 19.4821 8.05833 20.3146 9.675C21.179 11.325 21.6112 13.1 21.6112 15V26.25H0V15C0 13.1 0.432225 11.325 1.29667 9.675C2.12911 8.05833 3.2657 6.73333 4.70645 5.7C6.19523 4.65 7.82807 4.025 9.605 3.825V0H12.0063V3.825ZM19.21 23.75V15C19.21 13.4167 18.8258 11.9417 18.0574 10.575C17.321 9.25833 16.3205 8.21667 15.0558 7.45C13.7432 6.65 12.3264 6.25 10.8056 6.25C9.28483 6.25 7.8681 6.65 6.55541 7.45C5.29075 8.21667 4.29023 9.25833 3.55385 10.575C2.78545 11.9417 2.40125 13.4167 2.40125 15V23.75H19.21ZM10.8056 21.25C9.71706 21.25 8.71254 20.9708 7.79206 20.4125C6.87158 19.8542 6.1432 19.0958 5.60692 18.1375C5.07064 17.1792 4.8025 16.1333 4.8025 15C4.8025 13.8667 5.07064 12.8208 5.60692 11.8625C6.1432 10.9042 6.87158 10.1458 7.79206 9.5875C8.71254 9.02917 9.71706 8.75 10.8056 8.75C11.8942 8.75 12.8987 9.02917 13.8192 9.5875C14.7397 10.1458 15.4681 10.9042 16.0043 11.8625C16.5406 12.8208 16.8088 13.8667 16.8088 15C16.8088 16.1333 16.5406 17.1792 16.0043 18.1375C15.4681 19.0958 14.7397 19.8542 13.8192 20.4125C12.8987 20.9708 11.8942 21.25 10.8056 21.25ZM10.8056 18.75C11.462 18.75 12.0663 18.5833 12.6186 18.25C13.1709 17.9167 13.6071 17.4625 13.9272 16.8875C14.2474 16.3125 14.4075 15.6833 14.4075 15C14.4075 14.3167 14.2474 13.6875 13.9272 13.1125C13.6071 12.5375 13.1709 12.0833 12.6186 11.75C12.0663 11.4167 11.462 11.25 10.8056 11.25C10.1493 11.25 9.54497 11.4167 8.99268 11.75C8.44039 12.0833 8.00417 12.5375 7.684 13.1125C7.36383 13.6875 7.20375 14.3167 7.20375 15C7.20375 15.6833 7.36383 16.3125 7.684 16.8875C8.00417 17.4625 8.44039 17.9167 8.99268 18.25C9.54497 18.5833 10.1493 18.75 10.8056 18.75ZM10.8056 16.25C10.4694 16.25 10.1853 16.1292 9.95318 15.8875C9.72106 15.6458 9.605 15.35 9.605 15C9.605 14.65 9.72106 14.3542 9.95318 14.1125C10.1853 13.8708 10.4694 13.75 10.8056 13.75C11.1418 13.75 11.4259 13.8708 11.6581 14.1125C11.8902 14.3542 12.0063 14.65 12.0063 15C12.0063 15.35 11.8902 15.6458 11.6581 15.8875C11.4259 16.1292 11.1418 16.25 10.8056 16.25Z" fill="white"/>
</svg>
