<svg width="15" height="15" viewBox="0 0 15 15" fill="none" xmlns="http://www.w3.org/2000/svg">
<path d="M10.305 0.660156L8.805 2.16016H1.5V12.6602H12V5.35516L13.5 3.85516V13.4102C13.5 13.6202 13.425 13.7977 13.275 13.9427C13.125 14.0877 12.95 14.1602 12.75 14.1602H0.75C0.54 14.1602 0.3625 14.0877 0.2175 13.9427C0.0725 13.7977 0 13.6202 0 13.4102V1.41016C0 1.21016 0.0725 1.03516 0.2175 0.885157C0.3625 0.735157 0.54 0.660156 0.75 0.660156H10.305ZM13.11 0.000156403L14.16 1.05016L7.275 7.95016H6.21V6.88516L13.11 0.000156403Z" fill="#374151"/>
</svg>
