<svg width="16" height="19" viewBox="0 0 16 19" fill="none" xmlns="http://www.w3.org/2000/svg">
<path d="M7.6 0.000162125L15.2 4.5835V13.7502L7.6 18.3335L0 13.7502V4.5835L7.6 0.000162125ZM7.6 1.93349L1.6 5.55016V12.7835L7.6 16.4002L13.6 12.7835V5.55016L7.6 1.93349ZM7.6 12.5002C7.024 12.5002 6.49067 12.3502 6 12.0502C5.50933 11.7502 5.12 11.3446 4.832 10.8335C4.544 10.3224 4.4 9.76683 4.4 9.16683C4.4 8.56683 4.544 8.01127 4.832 7.50016C5.12 6.98905 5.50933 6.5835 6 6.2835C6.49067 5.9835 7.024 5.8335 7.6 5.8335C8.176 5.8335 8.70933 5.9835 9.2 6.2835C9.69067 6.5835 10.08 6.98905 10.368 7.50016C10.656 8.01127 10.8 8.56683 10.8 9.16683C10.8 9.76683 10.656 10.3224 10.368 10.8335C10.08 11.3446 9.69067 11.7502 9.2 12.0502C8.70933 12.3502 8.176 12.5002 7.6 12.5002ZM7.6 10.8335C7.888 10.8335 8.15467 10.7585 8.4 10.6085C8.64533 10.4585 8.84 10.2557 8.984 10.0002C9.128 9.74461 9.2 9.46683 9.2 9.16683C9.2 8.86683 9.128 8.58905 8.984 8.3335C8.84 8.07794 8.64533 7.87516 8.4 7.72516C8.15467 7.57516 7.888 7.50016 7.6 7.50016C7.312 7.50016 7.04533 7.57516 6.8 7.72516C6.55467 7.87516 6.36 8.07794 6.216 8.3335C6.072 8.58905 6 8.86683 6 9.16683C6 9.46683 6.072 9.74461 6.216 10.0002C6.36 10.2557 6.55467 10.4585 6.8 10.6085C7.04533 10.7585 7.312 10.8335 7.6 10.8335Z" fill="#9333EA"/>
</svg>
