<svg width="15" height="17" viewBox="0 0 15 17" fill="none" xmlns="http://www.w3.org/2000/svg">
<path d="M9.6 1.6665H1.6V14.9998H12.8V4.99984H9.6V1.6665ZM0 0.833172C0 0.599838 0.0773333 0.402617 0.232 0.241505C0.386667 0.0803928 0.576 -0.000162125 0.8 -0.000162125H10.4L14.4 4.1665V15.8332C14.4 16.0554 14.3227 16.2498 14.168 16.4165C14.0133 16.5832 13.824 16.6665 13.6 16.6665H0.8C0.576 16.6665 0.386667 16.5859 0.232 16.4248C0.0773333 16.2637 0 16.0665 0 15.8332V0.833172ZM6.4 7.49984V4.99984H8V7.49984H10.4V9.1665H8V11.6665H6.4V9.1665H4V7.49984H6.4Z" fill="white"/>
</svg>
