<svg width="19" height="19" viewBox="0 0 19 19" fill="none" xmlns="http://www.w3.org/2000/svg">
<path fill-rule="evenodd" clip-rule="evenodd" d="M11.2127 1.01786V3.08071C10.5891 3.02473 9.96329 2.99575 9.33714 2.99386C8.70336 2.99386 8.075 3.02914 7.46293 3.08071V1.01786C7.46293 0.747905 7.35569 0.489009 7.1648 0.298123C6.97392 0.107238 6.71502 0 6.44507 0C6.17512 0 5.91622 0.107238 5.72534 0.298123C5.53445 0.489009 5.42721 0.747905 5.42721 1.01786V3.29786L5.15171 3.32907C4.68186 3.38258 4.24404 3.59384 3.90978 3.92834C3.57553 4.26285 3.36459 4.70082 3.31143 5.17071L3.27071 5.53036V5.53986H1.01786C0.747905 5.53986 0.489009 5.6471 0.298123 5.83798C0.107238 6.02887 0 6.28776 0 6.55771C0 6.82767 0.107238 7.08656 0.298123 7.27745C0.489009 7.46833 0.747905 7.57557 1.01786 7.57557H3.06714C3.02236 8.15236 2.9925 8.74271 2.9925 9.33986C2.9925 9.93564 3.02236 10.5246 3.06714 11.1028H1.01786C0.747905 11.1028 0.489009 11.21 0.298123 11.4009C0.107238 11.5918 0 11.8507 0 12.1206C0 12.3906 0.107238 12.6495 0.298123 12.8404C0.489009 13.0313 0.747905 13.1385 1.01786 13.1385H3.27071V13.148L3.31143 13.5076C3.36459 13.9775 3.57553 14.4155 3.90978 14.75C4.24404 15.0845 4.68186 15.2958 5.15171 15.3493L5.42721 15.3805V17.6727C5.42721 17.9427 5.53445 18.2016 5.72534 18.3924C5.91622 18.5833 6.17512 18.6906 6.44507 18.6906C6.71502 18.6906 6.97392 18.5833 7.1648 18.3924C7.35569 18.2016 7.46293 17.9427 7.46293 17.6727V15.5963C8.07636 15.6492 8.70336 15.6845 9.33714 15.6845C9.97229 15.6845 10.5993 15.6492 11.2127 15.5976V17.6727C11.2127 17.9427 11.32 18.2016 11.5108 18.3924C11.7017 18.5833 11.9606 18.6906 12.2306 18.6906C12.5005 18.6906 12.7594 18.5833 12.9503 18.3924C13.1412 18.2016 13.2484 17.9427 13.2484 17.6727V15.3819L13.5239 15.3493C13.9937 15.2954 14.4314 15.0839 14.7654 14.7491C15.0994 14.4143 15.31 13.9762 15.3629 13.5063L15.4036 13.148V13.1385H17.6496C17.9196 13.1385 18.1785 13.0313 18.3694 12.8404C18.5603 12.6495 18.6675 12.3906 18.6675 12.1206C18.6675 11.8507 18.5603 11.5918 18.3694 11.4009C18.1785 11.21 17.9196 11.1028 17.6496 11.1028H15.6085C15.6533 10.5246 15.6831 9.93564 15.6831 9.3385C15.6831 8.74136 15.6533 8.15236 15.6085 7.57421H17.6496C17.9196 7.57421 18.1785 7.46698 18.3694 7.27609C18.5603 7.08521 18.6675 6.82631 18.6675 6.55636C18.6675 6.28641 18.5603 6.02751 18.3694 5.83662C18.1785 5.64574 17.9196 5.5385 17.6496 5.5385H15.4049V5.53171L15.3642 5.17207C15.3111 4.70218 15.1001 4.26421 14.7659 3.9297C14.4316 3.59519 13.9938 3.38393 13.5239 3.33043L13.2484 3.29786V1.01786C13.2484 0.747905 13.1412 0.489009 12.9503 0.298123C12.7594 0.107238 12.5005 0 12.2306 0C11.9606 0 11.7017 0.107238 11.5108 0.298123C11.32 0.489009 11.2127 0.747905 11.2127 1.01786ZM9.33307 5.5005C9.80128 5.5005 10.1813 5.8805 10.1813 6.34871V7.40186H10.9806C11.5205 7.40186 12.0383 7.61633 12.4201 7.99811C12.8019 8.37988 13.0164 8.89767 13.0164 9.43757V11.1544C13.0164 11.6943 12.8019 12.2121 12.4201 12.5938C12.0383 12.9756 11.5205 13.1901 10.9806 13.1901H7.6855C7.14559 13.1901 6.6278 12.9756 6.24603 12.5938C5.86426 12.2121 5.64979 11.6943 5.64979 11.1544V9.43757C5.64979 8.89767 5.86426 8.37988 6.24603 7.99811C6.6278 7.61633 7.14559 7.40186 7.6855 7.40186H8.48621V6.34871C8.48621 5.8805 8.86486 5.5005 9.33307 5.5005ZM8.60021 10.051C8.60021 9.87103 8.52872 9.69843 8.40146 9.57118C8.27421 9.44392 8.10161 9.37243 7.92164 9.37243C7.74167 9.37243 7.56908 9.44392 7.44182 9.57118C7.31456 9.69843 7.24307 9.87103 7.24307 10.051V10.5436C7.24307 10.7236 7.31456 10.8962 7.44182 11.0235C7.56908 11.1507 7.74167 11.2222 7.92164 11.2222C8.10161 11.2222 8.27421 11.1507 8.40146 11.0235C8.52872 10.8962 8.60021 10.7236 8.60021 10.5436V10.051ZM10.7445 9.37243C10.9245 9.37243 11.0971 9.44392 11.2243 9.57118C11.3516 9.69843 11.4231 9.87103 11.4231 10.051V10.5436C11.4231 10.7236 11.3516 10.8962 11.2243 11.0235C11.0971 11.1507 10.9245 11.2222 10.7445 11.2222C10.5645 11.2222 10.3919 11.1507 10.2647 11.0235C10.1374 10.8962 10.0659 10.7236 10.0659 10.5436V10.051C10.0659 9.87103 10.1374 9.69843 10.2647 9.57118C10.3919 9.44392 10.5645 9.37243 10.7445 9.37243Z" fill="white"/>
</svg>
