<svg width="13" height="14" viewBox="0 0 13 14" fill="none" xmlns="http://www.w3.org/2000/svg">
<path d="M9.6 2.66683H12.8V4.00016H11.52V12.6668C11.52 12.8535 11.4581 13.0113 11.3344 13.1402C11.2107 13.2691 11.0592 13.3335 10.88 13.3335H1.92C1.7408 13.3335 1.58933 13.2691 1.4656 13.1402C1.34187 13.0113 1.28 12.8535 1.28 12.6668V4.00016H0V2.66683H3.2V0.66683C3.2 0.480164 3.26187 0.322386 3.3856 0.193497C3.50933 0.0646076 3.6608 0.000163078 3.84 0.000163078H8.96C9.1392 0.000163078 9.29067 0.0646076 9.4144 0.193497C9.53813 0.322386 9.6 0.480164 9.6 0.66683V2.66683ZM10.24 4.00016H2.56V12.0002H10.24V4.00016ZM4.48 6.00016H5.76V10.0002H4.48V6.00016ZM7.04 6.00016H8.32V10.0002H7.04V6.00016ZM4.48 1.3335V2.66683H8.32V1.3335H4.48Z" fill="#DC2626"/>
</svg>
