<svg width="12" height="15" viewBox="0 0 12 15" fill="none" xmlns="http://www.w3.org/2000/svg">
<path d="M5.7216 1.33329C5.37173 1.33329 5.0496 1.42218 4.7552 1.59996C4.4608 1.77774 4.22827 2.01996 4.0576 2.32663C3.88693 2.63329 3.8016 2.96885 3.8016 3.33329V5.99996C3.8016 6.3644 3.88693 6.69996 4.0576 7.00663C4.22827 7.31329 4.4608 7.55551 4.7552 7.73329C5.0496 7.91107 5.37173 7.99996 5.7216 7.99996C6.07147 7.99996 6.3936 7.91107 6.688 7.73329C6.9824 7.55551 7.21493 7.31329 7.3856 7.00663C7.55627 6.69996 7.6416 6.3644 7.6416 5.99996V3.33329C7.6416 2.96885 7.55627 2.63329 7.3856 2.32663C7.21493 2.01996 6.9824 1.77774 6.688 1.59996C6.3936 1.42218 6.07147 1.33329 5.7216 1.33329ZM5.7216 -4.1008e-05C6.30187 -4.1008e-05 6.83733 0.148848 7.328 0.446626C7.81867 0.744404 8.20693 1.14885 8.4928 1.65996C8.77867 2.17107 8.9216 2.72885 8.9216 3.33329V5.99996C8.9216 6.6044 8.77867 7.16218 8.4928 7.67329C8.20693 8.1844 7.81867 8.58885 7.328 8.88663C6.83733 9.1844 6.30187 9.33329 5.7216 9.33329C5.14133 9.33329 4.60587 9.1844 4.1152 8.88663C3.62453 8.58885 3.23627 8.1844 2.9504 7.67329C2.66453 7.16218 2.5216 6.6044 2.5216 5.99996V3.33329C2.5216 2.72885 2.66453 2.17107 2.9504 1.65996C3.23627 1.14885 3.62453 0.744404 4.1152 0.446626C4.60587 0.148848 5.14133 -4.1008e-05 5.7216 -4.1008e-05ZM0 6.66663H1.2928C1.3952 7.41329 1.65333 8.09107 2.0672 8.69996C2.48107 9.30885 3.00373 9.78663 3.6352 10.1333C4.28373 10.4888 4.9792 10.6666 5.7216 10.6666C6.464 10.6666 7.15947 10.4888 7.808 10.1333C8.43947 9.78663 8.96213 9.30885 9.376 8.69996C9.78987 8.09107 10.048 7.41329 10.1504 6.66663H11.4432C11.3493 7.58218 11.0635 8.43107 10.5856 9.21329C10.1248 9.96885 9.53173 10.5866 8.8064 11.0666C8.05547 11.5644 7.24053 11.8622 6.3616 11.96V14.6666H5.0816V11.96C4.20267 11.8622 3.38773 11.5644 2.6368 11.0666C1.91147 10.5866 1.3184 9.96885 0.8576 9.21329C0.379733 8.43107 0.0938667 7.58218 0 6.66663Z" fill="#9CA3AF"/>
</svg>
