<svg width="10" height="11" viewBox="0 0 10 11" fill="none" xmlns="http://www.w3.org/2000/svg">
<path d="M1.30425 0.120651C1.65558 -0.0115709 2.01625 -0.0349045 2.38626 0.0506506C2.75627 0.136207 3.07957 0.318984 3.35614 0.598985C3.66262 0.925651 3.84575 1.3126 3.90555 1.75982C3.96535 2.20704 3.89434 2.6251 3.69252 3.01398L9.6912 9.26732L8.90633 10.084L2.89643 3.84232C2.52268 4.05232 2.1209 4.12621 1.69109 4.06398C1.26127 4.00176 0.889392 3.81121 0.575442 3.49232C0.306342 3.20454 0.130679 2.86815 0.048454 2.48315C-0.033771 2.09815 -0.011346 1.72287 0.115729 1.35732L1.37153 2.66398C1.53598 2.8351 1.73407 2.92065 1.96579 2.92065C2.19752 2.92065 2.3956 2.8351 2.56005 2.66398C2.7245 2.49287 2.80673 2.28676 2.80673 2.04565C2.80673 1.80454 2.7245 1.59843 2.56005 1.42732L1.30425 0.120651ZM7.11233 1.21732L8.90633 0.190651L9.6912 1.00732L8.7045 2.86232L7.70659 3.07232L6.51807 4.30898L5.73319 3.49232L6.92172 2.24398L7.11233 1.21732ZM3.35614 5.96565L4.14102 6.78232L1.1697 9.88565C1.05758 9.99454 0.924898 10.049 0.77166 10.049C0.618423 10.049 0.489479 9.99454 0.384829 9.88565C0.280179 9.77676 0.224117 9.64843 0.216642 9.50065C0.209167 9.35287 0.246542 9.22065 0.328767 9.10398L0.373617 9.05732L3.35614 5.96565Z" fill="white"/>
</svg>
