<svg width="115" height="12" viewBox="0 0 115 12" fill="none" xmlns="http://www.w3.org/2000/svg">
<path d="M-0.00390625 12.0002H11.9961V0.000156164H-0.00390625V12.0002ZM20.3398 8.96289C20.3398 8.78711 20.3125 8.63086 20.2578 8.49414C20.207 8.35742 20.1152 8.23242 19.9824 8.11914C19.8496 8.00586 19.6621 7.89648 19.4199 7.79102C19.1816 7.68164 18.877 7.57031 18.5059 7.45703C18.0996 7.33203 17.7246 7.19336 17.3809 7.04102C17.041 6.88477 16.7441 6.70508 16.4902 6.50195C16.2363 6.29492 16.0391 6.05859 15.8984 5.79297C15.7578 5.52344 15.6875 5.21289 15.6875 4.86133C15.6875 4.51367 15.7598 4.19727 15.9043 3.91211C16.0527 3.62695 16.2617 3.38086 16.5312 3.17383C16.8047 2.96289 17.127 2.80078 17.498 2.6875C17.8691 2.57031 18.2793 2.51172 18.7285 2.51172C19.3613 2.51172 19.9062 2.62891 20.3633 2.86328C20.8242 3.09766 21.1777 3.41211 21.4238 3.80664C21.6738 4.20117 21.7988 4.63672 21.7988 5.11328H20.3398C20.3398 4.83203 20.2793 4.58398 20.1582 4.36914C20.041 4.15039 19.8613 3.97852 19.6191 3.85352C19.3809 3.72852 19.0781 3.66602 18.7109 3.66602C18.3633 3.66602 18.0742 3.71875 17.8438 3.82422C17.6133 3.92969 17.4414 4.07227 17.3281 4.25195C17.2148 4.43164 17.1582 4.63477 17.1582 4.86133C17.1582 5.02148 17.1953 5.16797 17.2695 5.30078C17.3438 5.42969 17.457 5.55078 17.6094 5.66406C17.7617 5.77344 17.9531 5.87695 18.1836 5.97461C18.4141 6.07227 18.6855 6.16602 18.998 6.25586C19.4707 6.39648 19.8828 6.55273 20.2344 6.72461C20.5859 6.89258 20.8789 7.08398 21.1133 7.29883C21.3477 7.51367 21.5234 7.75781 21.6406 8.03125C21.7578 8.30078 21.8164 8.60742 21.8164 8.95117C21.8164 9.31055 21.7441 9.63477 21.5996 9.92383C21.4551 10.209 21.248 10.4531 20.9785 10.6562C20.7129 10.8555 20.3926 11.0098 20.0176 11.1191C19.6465 11.2246 19.2324 11.2773 18.7754 11.2773C18.3652 11.2773 17.9609 11.2227 17.5625 11.1133C17.168 11.0039 16.8086 10.8379 16.4844 10.6152C16.1602 10.3887 15.9023 10.1074 15.7109 9.77148C15.5195 9.43164 15.4238 9.03516 15.4238 8.58203H16.8945C16.8945 8.85938 16.9414 9.0957 17.0352 9.29102C17.1328 9.48633 17.2676 9.64648 17.4395 9.77148C17.6113 9.89258 17.8105 9.98242 18.0371 10.041C18.2676 10.0996 18.5137 10.1289 18.7754 10.1289C19.1191 10.1289 19.4062 10.0801 19.6367 9.98242C19.8711 9.88477 20.0469 9.74805 20.1641 9.57227C20.2812 9.39648 20.3398 9.19336 20.3398 8.96289ZM23.7148 2.62891H25.0273L27.4941 9.20898L29.9551 2.62891H31.2676L28.0098 11.1602H26.9668L23.7148 2.62891ZM23.1172 2.62891H24.3652L24.582 8.32422V11.1602H23.1172V2.62891ZM30.6172 2.62891H31.8711V11.1602H30.4004V8.32422L30.6172 2.62891ZM37.0449 3.76562L34.4961 11.1602H32.9551L36.166 2.62891H37.1504L37.0449 3.76562ZM39.1777 11.1602L36.623 3.76562L36.5117 2.62891H37.502L40.7246 11.1602H39.1777ZM39.0547 7.99609V9.16211H34.4141V7.99609H39.0547ZM41.6797 2.62891H44.6973C45.3457 2.62891 45.8984 2.72656 46.3555 2.92188C46.8125 3.11719 47.1621 3.40625 47.4043 3.78906C47.6504 4.16797 47.7734 4.63672 47.7734 5.19531C47.7734 5.62109 47.6953 5.99609 47.5391 6.32031C47.3828 6.64453 47.1621 6.91797 46.877 7.14062C46.5918 7.35938 46.252 7.5293 45.8574 7.65039L45.4121 7.86719H42.6992L42.6875 6.70117H44.7207C45.0723 6.70117 45.3652 6.63867 45.5996 6.51367C45.834 6.38867 46.0098 6.21875 46.127 6.00391C46.248 5.78516 46.3086 5.53906 46.3086 5.26562C46.3086 4.96875 46.25 4.71094 46.1328 4.49219C46.0195 4.26953 45.8438 4.09961 45.6055 3.98242C45.3672 3.86133 45.0645 3.80078 44.6973 3.80078H43.1504V11.1602H41.6797V2.62891ZM46.5488 11.1602L44.5449 7.32812L46.0859 7.32227L48.1191 11.084V11.1602H46.5488ZM52.3496 2.62891V11.1602H50.8906V2.62891H52.3496ZM55.0273 2.62891V3.80078H48.2363V2.62891H55.0273ZM60.3301 2.62891V11.1602H58.8594V2.62891H60.3301ZM63.8105 6.36133V7.52734H59.9551V6.36133H63.8105ZM64.2969 2.62891V3.80078H59.9551V2.62891H64.2969ZM71.0527 9.99414V11.1602H66.5234V9.99414H71.0527ZM66.9395 2.62891V11.1602H65.4688V2.62891H66.9395ZM70.4609 6.19141V7.33984H66.5234V6.19141H70.4609ZM71.0234 2.62891V3.80078H66.5234V2.62891H71.0234ZM75.5762 3.76562L73.0273 11.1602H71.4863L74.6973 2.62891H75.6816L75.5762 3.76562ZM77.709 11.1602L75.1543 3.76562L75.043 2.62891H76.0332L79.2559 11.1602H77.709ZM77.5859 7.99609V9.16211H72.9453V7.99609H77.5859ZM82.9824 2.62891V11.1602H81.5234V2.62891H82.9824ZM85.6602 2.62891V3.80078H78.8691V2.62891H85.6602ZM91.5723 2.62891H93.0371V8.33008C93.0371 8.97852 92.8965 9.52148 92.6152 9.95898C92.334 10.3965 91.9512 10.7266 91.4668 10.9492C90.9863 11.168 90.4492 11.2773 89.8555 11.2773C89.2422 11.2773 88.6953 11.168 88.2148 10.9492C87.7344 10.7266 87.3555 10.3965 87.0781 9.95898C86.8047 9.52148 86.668 8.97852 86.668 8.33008V2.62891H88.1328V8.33008C88.1328 8.74023 88.2031 9.07812 88.3438 9.34375C88.4844 9.60547 88.6836 9.79883 88.9414 9.92383C89.1992 10.0488 89.5039 10.1113 89.8555 10.1113C90.207 10.1113 90.5098 10.0488 90.7637 9.92383C91.0215 9.79883 91.2207 9.60547 91.3613 9.34375C91.502 9.07812 91.5723 8.74023 91.5723 8.33008V2.62891ZM94.6367 2.62891H97.6543C98.3027 2.62891 98.8555 2.72656 99.3125 2.92188C99.7695 3.11719 100.119 3.40625 100.361 3.78906C100.607 4.16797 100.73 4.63672 100.73 5.19531C100.73 5.62109 100.652 5.99609 100.496 6.32031C100.34 6.64453 100.119 6.91797 99.834 7.14062C99.5488 7.35938 99.209 7.5293 98.8145 7.65039L98.3691 7.86719H95.6562L95.6445 6.70117H97.6777C98.0293 6.70117 98.3223 6.63867 98.5566 6.51367C98.791 6.38867 98.9668 6.21875 99.084 6.00391C99.2051 5.78516 99.2656 5.53906 99.2656 5.26562C99.2656 4.96875 99.207 4.71094 99.0898 4.49219C98.9766 4.26953 98.8008 4.09961 98.5625 3.98242C98.3242 3.86133 98.0215 3.80078 97.6543 3.80078H96.1074V11.1602H94.6367V2.62891ZM99.5059 11.1602L97.502 7.32812L99.043 7.32227L101.076 11.084V11.1602H99.5059ZM107.779 9.99414V11.1602H103.25V9.99414H107.779ZM103.666 2.62891V11.1602H102.195V2.62891H103.666ZM107.188 6.19141V7.33984H103.25V6.19141H107.188ZM107.75 2.62891V3.80078H103.25V2.62891H107.75ZM113.469 8.96289C113.469 8.78711 113.441 8.63086 113.387 8.49414C113.336 8.35742 113.244 8.23242 113.111 8.11914C112.979 8.00586 112.791 7.89648 112.549 7.79102C112.311 7.68164 112.006 7.57031 111.635 7.45703C111.229 7.33203 110.854 7.19336 110.51 7.04102C110.17 6.88477 109.873 6.70508 109.619 6.50195C109.365 6.29492 109.168 6.05859 109.027 5.79297C108.887 5.52344 108.816 5.21289 108.816 4.86133C108.816 4.51367 108.889 4.19727 109.033 3.91211C109.182 3.62695 109.391 3.38086 109.66 3.17383C109.934 2.96289 110.256 2.80078 110.627 2.6875C110.998 2.57031 111.408 2.51172 111.857 2.51172C112.49 2.51172 113.035 2.62891 113.492 2.86328C113.953 3.09766 114.307 3.41211 114.553 3.80664C114.803 4.20117 114.928 4.63672 114.928 5.11328H113.469C113.469 4.83203 113.408 4.58398 113.287 4.36914C113.17 4.15039 112.99 3.97852 112.748 3.85352C112.51 3.72852 112.207 3.66602 111.84 3.66602C111.492 3.66602 111.203 3.71875 110.973 3.82422C110.742 3.92969 110.57 4.07227 110.457 4.25195C110.344 4.43164 110.287 4.63477 110.287 4.86133C110.287 5.02148 110.324 5.16797 110.398 5.30078C110.473 5.42969 110.586 5.55078 110.738 5.66406C110.891 5.77344 111.082 5.87695 111.312 5.97461C111.543 6.07227 111.814 6.16602 112.127 6.25586C112.6 6.39648 113.012 6.55273 113.363 6.72461C113.715 6.89258 114.008 7.08398 114.242 7.29883C114.477 7.51367 114.652 7.75781 114.77 8.03125C114.887 8.30078 114.945 8.60742 114.945 8.95117C114.945 9.31055 114.873 9.63477 114.729 9.92383C114.584 10.209 114.377 10.4531 114.107 10.6562C113.842 10.8555 113.521 11.0098 113.146 11.1191C112.775 11.2246 112.361 11.2773 111.904 11.2773C111.494 11.2773 111.09 11.2227 110.691 11.1133C110.297 11.0039 109.938 10.8379 109.613 10.6152C109.289 10.3887 109.031 10.1074 108.84 9.77148C108.648 9.43164 108.553 9.03516 108.553 8.58203H110.023C110.023 8.85938 110.07 9.0957 110.164 9.29102C110.262 9.48633 110.396 9.64648 110.568 9.77148C110.74 9.89258 110.939 9.98242 111.166 10.041C111.396 10.0996 111.643 10.1289 111.904 10.1289C112.248 10.1289 112.535 10.0801 112.766 9.98242C113 9.88477 113.176 9.74805 113.293 9.57227C113.41 9.39648 113.469 9.19336 113.469 8.96289Z" fill="#7E22CE"/>
</svg>
