<svg width="49" height="49" viewBox="0 0 49 49" fill="none" xmlns="http://www.w3.org/2000/svg">
<path d="M12.2474 2.04199H16.3307V4.08366H12.2474V2.04199ZM32.6641 2.04199H36.7474V4.08366H32.6641V2.04199ZM44.9141 10.2087V8.16699H38.7891V4.08366H36.7474V14.292H32.6641V4.08366H30.6224V8.16699H18.3724V4.08366H16.3307V14.292H12.2474V4.08366H10.2057V8.16699H4.08073V10.2087H2.03906V44.917H4.08073V46.9587H44.9141V44.917H46.9557V10.2087H44.9141ZM42.8724 16.3337V22.4587H36.7474V16.3337H42.8724ZM42.8724 32.667H36.7474V26.542H42.8724V32.667ZM42.8724 42.8753H36.7474V36.7503H42.8724V42.8753ZM6.1224 36.7503H12.2474V42.8753H6.1224V36.7503ZM6.1224 26.542H12.2474V32.667H6.1224V26.542ZM32.6641 32.667H26.5391V26.542H32.6641V32.667ZM22.4557 32.667H16.3307V26.542H22.4557V32.667ZM16.3307 36.7503H22.4557V42.8753H16.3307V36.7503ZM26.5391 36.7503H32.6641V42.8753H26.5391V36.7503ZM32.6641 22.4587H26.5391V16.3337H32.6641V22.4587ZM22.4557 16.3337V22.4587H16.3307V16.3337H22.4557ZM12.2474 22.4587H6.1224V16.3337H12.2474V22.4587Z" fill="#0D99FF"/>
</svg>
