<svg width="41" height="45" viewBox="0 0 41 45" fill="none" xmlns="http://www.w3.org/2000/svg">
<path d="M20.4167 0C31.6928 0 40.8333 9.14054 40.8333 20.4167C40.8333 31.6928 31.6928 40.8333 20.4167 40.8333C9.14054 40.8333 0 31.6928 0 20.4167C0 9.14054 9.14054 0 20.4167 0ZM20.4167 4.08333C16.0848 4.08333 11.9304 5.80416 8.86726 8.86726C5.80416 11.9304 4.08333 16.0848 4.08333 20.4167C4.08333 24.7485 5.80416 28.903 8.86726 31.9661C11.9304 35.0292 16.0848 36.75 20.4167 36.75C24.7485 36.75 28.903 35.0292 31.9661 31.9661C35.0292 28.903 36.75 24.7485 36.75 20.4167C36.75 16.0848 35.0292 11.9304 31.9661 8.86726C28.903 5.80416 24.7485 4.08333 20.4167 4.08333ZM20.4167 8.16667C20.9167 8.16673 21.3994 8.35033 21.7731 8.68263C22.1468 9.01493 22.3855 9.47282 22.444 9.96946L22.4583 10.2083V19.5714L27.9851 25.0982C28.3513 25.4656 28.5639 25.9586 28.5797 26.4771C28.5955 26.9956 28.4134 27.5007 28.0704 27.8897C27.7273 28.2788 27.249 28.5227 26.7326 28.5719C26.2162 28.6211 25.7005 28.4719 25.2901 28.1546L25.0982 27.9851L18.9732 21.8601C18.6559 21.5425 18.4521 21.1292 18.3934 20.6841L18.375 20.4167V10.2083C18.375 9.66685 18.5901 9.14754 18.973 8.76466C19.3559 8.38177 19.8752 8.16667 20.4167 8.16667Z" fill="#14AE5C"/>
</svg>
