<svg width="68" height="68" viewBox="0 0 68 68" fill="none" xmlns="http://www.w3.org/2000/svg">
<path d="M33.75 0C52.3901 0 67.5 15.1099 67.5 33.75C67.5 52.3901 52.3901 67.5 33.75 67.5C15.1099 67.5 0 52.3901 0 33.75C0 15.1099 15.1099 0 33.75 0ZM33.75 6.75C26.5892 6.75 19.7216 9.59464 14.6581 14.6581C9.59464 19.7216 6.75 26.5892 6.75 33.75C6.75 40.9109 9.59464 47.7784 14.6581 52.8419C19.7216 57.9054 26.5892 60.75 33.75 60.75C40.9109 60.75 47.7784 57.9054 52.8419 52.8419C57.9054 47.7784 60.75 40.9109 60.75 33.75C60.75 26.5892 57.9054 19.7216 52.8419 14.6581C47.7784 9.59464 40.9109 6.75 33.75 6.75ZM33.75 13.5C34.5767 13.5001 35.3745 13.8036 35.9923 14.3529C36.61 14.9022 37.0047 15.6592 37.1014 16.4801L37.125 16.875V32.3528L46.2611 41.4889C46.8664 42.0962 47.2179 42.9112 47.244 43.7683C47.2702 44.6254 46.9692 45.4603 46.402 46.1034C45.8349 46.7466 45.0443 47.1498 44.1907 47.2311C43.337 47.3124 42.4845 47.0658 41.8061 46.5413L41.4889 46.2611L31.3639 36.1361C30.8393 35.6111 30.5025 34.9279 30.4054 34.1921L30.375 33.75V16.875C30.375 15.9799 30.7306 15.1215 31.3635 14.4885C31.9965 13.8556 32.8549 13.5 33.75 13.5Z" fill="black" fill-opacity="0.42"/>
</svg>
