<svg width="24" height="24" viewBox="0 0 24 24" fill="none" xmlns="http://www.w3.org/2000/svg">
<path d="M6.00999 16.2402H19.6804V4.24023H4.32039V17.6402L6.00999 16.2402ZM6.68199 18.2402L2.40039 21.7402V3.24023C2.40039 2.97357 2.49319 2.74023 2.67879 2.54024C2.86439 2.34023 3.09159 2.24023 3.36039 2.24023H20.6404C20.9092 2.24023 21.1364 2.34023 21.322 2.54024C21.5076 2.74023 21.6004 2.97357 21.6004 3.24023V17.2402C21.6004 17.5202 21.5076 17.7602 21.322 17.9602C21.1364 18.1602 20.9092 18.2536 20.6404 18.2402H6.68199ZM11.0404 13.2402H12.9604V15.2402H11.0404V13.2402ZM8.69799 8.06024C8.80039 7.5269 9.01159 7.0469 9.33159 6.62023C9.65159 6.19357 10.042 5.8569 10.5028 5.61024C10.9636 5.36357 11.4628 5.24023 12.0004 5.24023C12.6148 5.25357 13.178 5.4169 13.69 5.73023C14.202 6.04357 14.6084 6.4669 14.9092 7.00023C15.21 7.53357 15.3604 8.1169 15.3604 8.75023C15.3604 9.38357 15.21 9.9669 14.9092 10.5002C14.6084 11.0336 14.202 11.4602 13.69 11.7802C13.178 12.1002 12.6148 12.2602 12.0004 12.2602H11.0404V10.2402H12.0004C12.3972 10.2402 12.7364 10.0969 13.018 9.81024C13.2996 9.52357 13.4404 9.17023 13.4404 8.75023C13.4404 8.33023 13.2996 7.9769 13.018 7.69024C12.7364 7.40357 12.3972 7.26023 12.0004 7.26023C11.6548 7.26023 11.3508 7.37357 11.0884 7.60023C10.826 7.8269 10.6564 8.11357 10.5796 8.46023L8.69799 8.06024Z" fill="white"/>
</svg>
