<svg width="24" height="24" viewBox="0 0 24 24" fill="none" xmlns="http://www.w3.org/2000/svg">
<path d="M12.9595 16.94V19H17.7595V21H6.23945V19H11.0395V16.94C9.78505 16.78 8.64585 16.3267 7.62185 15.58C6.59785 14.8333 5.79785 13.8933 5.22185 12.76C4.62025 11.5867 4.31945 10.3333 4.31945 9V3H19.6795V9C19.6795 10.3333 19.3787 11.5867 18.7771 12.76C18.2011 13.8933 17.4011 14.8333 16.3771 15.58C15.3531 16.3267 14.2139 16.78 12.9595 16.94ZM6.23945 5V9C6.23945 10.08 6.50185 11.0867 7.02665 12.02C7.53865 12.9267 8.22985 13.6467 9.10025 14.18C9.99625 14.7267 10.9627 15 11.9995 15C13.0363 15 14.0027 14.7267 14.8987 14.18C15.7691 13.6467 16.4603 12.9267 16.9723 12.02C17.4971 11.0867 17.7595 10.08 17.7595 9V5H6.23945ZM1.43945 5H3.35945V9H1.43945V5ZM20.6395 5H22.5595V9H20.6395V5Z" fill="white"/>
</svg>
