<svg width="15" height="14" viewBox="0 0 15 14" fill="none" xmlns="http://www.w3.org/2000/svg">
<path d="M8.12977 12.25C7.97279 12.25 7.84011 12.1936 7.73172 12.0808C7.62333 11.9681 7.56914 11.83 7.56914 11.6667V7C7.56914 6.83667 7.62333 6.69861 7.73172 6.58583C7.84011 6.47306 7.97279 6.41667 8.12977 6.41667H11.4935C11.6505 6.41667 11.7832 6.47306 11.8916 6.58583C11.9999 6.69861 12.0541 6.83667 12.0541 7V11.6667C12.0541 11.83 11.9999 11.9681 11.8916 12.0808C11.7832 12.1936 11.6505 12.25 11.4935 12.25H8.12977ZM2.52352 7.58333C2.36654 7.58333 2.23386 7.52694 2.12547 7.41417C2.01708 7.30139 1.96289 7.16333 1.96289 7V2.33333C1.96289 2.17 2.01708 2.03194 2.12547 1.91917C2.23386 1.80639 2.36654 1.75 2.52352 1.75H5.88727C6.04424 1.75 6.17692 1.80639 6.28531 1.91917C6.3937 2.03194 6.44789 2.17 6.44789 2.33333V7C6.44789 7.16333 6.3937 7.30139 6.28531 7.41417C6.17692 7.52694 6.04424 7.58333 5.88727 7.58333H2.52352ZM5.32664 6.41667V2.91667H3.08414V6.41667H5.32664ZM2.52352 12.25C2.36654 12.25 2.23386 12.1936 2.12547 12.0808C2.01708 11.9681 1.96289 11.83 1.96289 11.6667V9.33333C1.96289 9.17 2.01708 9.03194 2.12547 8.91917C2.23386 8.80639 2.36654 8.75 2.52352 8.75H5.88727C6.04424 8.75 6.17692 8.80639 6.28531 8.91917C6.3937 9.03194 6.44789 9.17 6.44789 9.33333V11.6667C6.44789 11.83 6.3937 11.9681 6.28531 12.0808C6.17692 12.1936 6.04424 12.25 5.88727 12.25H2.52352ZM3.08414 11.0833H5.32664V9.91667H3.08414V11.0833ZM8.69039 11.0833H10.9329V7.58333H8.69039V11.0833ZM7.56914 2.33333C7.56914 2.17 7.62333 2.03194 7.73172 1.91917C7.84011 1.80639 7.97279 1.75 8.12977 1.75H11.4935C11.6505 1.75 11.7832 1.80639 11.8916 1.91917C11.9999 2.03194 12.0541 2.17 12.0541 2.33333V4.66667C12.0541 4.83 11.9999 4.96806 11.8916 5.08083C11.7832 5.19361 11.6505 5.25 11.4935 5.25H8.12977C7.97279 5.25 7.84011 5.19361 7.73172 5.08083C7.62333 4.96806 7.56914 4.83 7.56914 4.66667V2.33333ZM8.69039 2.91667V4.08333H10.9329V2.91667H8.69039Z" fill="#923D8C"/>
</svg>
