<svg width="24" height="24" viewBox="0 0 24 24" fill="none" xmlns="http://www.w3.org/2000/svg">
<path d="M12.0004 22C10.6948 22 9.44679 21.74 8.25639 21.22C7.11719 20.7133 6.10279 19.9967 5.21319 19.07C4.32359 18.1433 3.63559 17.0867 3.14919 15.9C2.64999 14.66 2.40039 13.36 2.40039 12C2.40039 10.64 2.64999 9.34 3.14919 8.1C3.63559 6.91333 4.32359 5.85667 5.21319 4.93C6.10279 4.00333 7.11719 3.28667 8.25639 2.78C9.44679 2.26 10.6948 2 12.0004 2C13.306 2 14.554 2.26 15.7444 2.78C16.8836 3.28667 17.898 4.00333 18.7876 4.93C19.6772 5.85667 20.3652 6.91333 20.8516 8.1C21.3508 9.34 21.6004 10.64 21.6004 12C21.6004 13.36 21.3508 14.66 20.8516 15.9C20.3652 17.0867 19.6772 18.1433 18.7876 19.07C17.898 19.9967 16.8836 20.7133 15.7444 21.22C14.554 21.74 13.306 22 12.0004 22ZM12.0004 20C13.3956 20 14.6884 19.6333 15.8788 18.9C17.0308 18.1933 17.946 17.24 18.6244 16.04C19.3284 14.8 19.6804 13.4533 19.6804 12C19.6804 10.5467 19.3284 9.2 18.6244 7.96C17.946 6.76 17.0308 5.80667 15.8788 5.1C14.6884 4.36667 13.3956 4 12.0004 4C10.6052 4 9.31239 4.36667 8.12199 5.1C6.96999 5.80667 6.05479 6.76 5.37639 7.96C4.67239 9.2 4.32039 10.5467 4.32039 12C4.32039 13.4533 4.67239 14.8 5.37639 16.04C6.05479 17.24 6.96999 18.1933 8.12199 18.9C9.31239 19.6333 10.6052 20 12.0004 20ZM12.9604 12H16.8004V14H11.0404V7H12.9604V12Z" fill="white"/>
</svg>
