<svg width="24" height="28" viewBox="0 0 24 28" fill="none" xmlns="http://www.w3.org/2000/svg">
<path d="M6.73832 27.0344L7.2233 23.9539L6.14299 23.9289H0.984375L4.56935 1.19774C4.58002 1.12829 4.61529 1.06498 4.66874 1.01936C4.72219 0.973745 4.79025 0.948852 4.86052 0.949223H13.5587C16.4463 0.949223 18.4391 1.55012 19.4795 2.73615C19.9673 3.29253 20.2779 3.87395 20.4282 4.5138C20.5858 5.18517 20.5886 5.98729 20.4346 6.9656L20.4235 7.037V7.66386L20.9113 7.9402C21.2836 8.12885 21.6184 8.38405 21.8989 8.69317C22.3162 9.16888 22.586 9.77349 22.7001 10.4903C22.8178 11.2275 22.7789 12.1047 22.586 13.0979C22.3634 14.2403 22.0037 15.2353 21.5177 16.0495C21.089 16.7789 20.5126 17.4106 19.8254 17.9041C19.18 18.3622 18.4131 18.71 17.5461 18.9325C16.7059 19.1514 15.748 19.2617 14.6974 19.2617H14.0205C13.5364 19.2617 13.0663 19.436 12.6972 19.7485C12.3287 20.0644 12.0842 20.5008 12.0073 20.98L11.9563 21.2573L11.0994 26.6867L11.0605 26.886C11.0503 26.9491 11.0327 26.9806 11.0067 27.0019C10.9816 27.0225 10.9502 27.034 10.9177 27.0344H6.73832Z" fill="#253B80"/>
<path d="M21.3724 7.10938C21.3464 7.27536 21.3167 7.44506 21.2834 7.61939C20.1363 13.5087 16.2119 15.5432 11.1998 15.5432H8.64785C8.0349 15.5432 7.51839 15.9884 7.42287 16.593L6.1163 24.8794L5.7463 27.2283C5.73156 27.3214 5.73719 27.4167 5.76279 27.5075C5.7884 27.5983 5.83338 27.6824 5.89463 27.7542C5.95588 27.8259 6.03195 27.8835 6.1176 27.923C6.20325 27.9626 6.29645 27.983 6.39078 27.9831H10.917C11.453 27.9831 11.9083 27.5936 11.9926 27.0651L12.0372 26.8351L12.8894 21.427L12.9441 21.1303C13.0275 20.5999 13.4838 20.2104 14.0197 20.2104H14.6967C19.0819 20.2104 22.5148 18.43 23.5182 13.2778C23.9373 11.1255 23.7203 9.32842 22.6113 8.0645C22.2597 7.67351 21.8399 7.34985 21.3724 7.10938Z" fill="#179BD7"/>
<path d="M20.1714 6.63081C19.8052 6.52485 19.4326 6.44216 19.0559 6.38321C18.3115 6.26882 17.5593 6.21394 16.8062 6.21908H9.98866C9.7292 6.21888 9.47824 6.31151 9.28113 6.48022C9.08401 6.64893 8.95376 6.88259 8.91391 7.13897L7.4636 16.3249L7.42188 16.5929C7.46706 16.3005 7.61541 16.0339 7.84009 15.8413C8.06478 15.6488 8.35095 15.543 8.64685 15.5432H11.1988C16.2109 15.5432 20.1352 13.5077 21.2823 7.61932C21.3166 7.44498 21.3454 7.27528 21.3714 7.1093C21.0687 6.95057 20.7532 6.8175 20.4283 6.71148C20.3431 6.68322 20.2575 6.65632 20.1714 6.63081Z" fill="#222D65"/>
<path d="M8.91506 7.13935C8.95457 6.8829 9.08475 6.64913 9.28197 6.4805C9.47918 6.31187 9.73034 6.21958 9.98981 6.22039H16.8074C17.6151 6.22039 18.369 6.27324 19.057 6.38452C19.5226 6.4577 19.9818 6.56714 20.4304 6.71186C20.7688 6.82406 21.0832 6.95667 21.3735 7.10967C21.7147 4.93328 21.3707 3.45144 20.1939 2.10963C18.8966 0.632424 16.5552 0 13.559 0H4.86087C4.24884 0 3.72677 0.445108 3.63218 1.05064L0.00918936 24.0154C-0.00768594 24.1221 -0.00126547 24.2311 0.0280091 24.335C0.0572837 24.4389 0.108718 24.5352 0.178773 24.6173C0.248828 24.6995 0.335842 24.7654 0.43383 24.8107C0.531817 24.856 0.638452 24.8795 0.7464 24.8797H6.11644L7.46475 16.3253L8.91506 7.13935Z" fill="#253B80"/>
</svg>
