<svg width="32" height="11" viewBox="0 0 32 11" fill="none" xmlns="http://www.w3.org/2000/svg">
<path d="M20.9395 0C22.138 5.40511e-05 23.2881 0.449219 23.2881 0.449219L22.915 2.66211C21.7977 2.02956 19.2554 1.87994 19.2549 3.04492C19.2549 4.2098 22.8984 4.4594 22.8984 7.13867C22.8984 9.71859 20.2106 10.6669 18.4287 10.667C16.664 10.667 15.503 10.0956 15.4814 10.085L15.8691 7.77148C16.9383 8.6532 20.1777 8.90319 20.1777 7.50488C20.1775 6.10666 16.5664 6.07324 16.5664 3.41113C16.5666 0.581852 19.6437 0 20.9395 0ZM11.875 0.18457L7.7207 10.4893H5L2.73145 1.53613C3.10445 1.7666 3.49159 2.03757 3.875 2.35645C5.23555 3.48769 5.90874 4.8283 6.16016 5.42773L6.28125 5.74512V5.74609L6.28027 5.74512L6.5752 7.27148L9.06445 0.18457H11.875ZM13.8721 10.4893H11.2607L12.8936 0.18457H15.5049L13.8721 10.4893ZM29.9092 0.183594L32 10.4893H29.6025L29.2969 8.95801H25.9775L25.4326 10.4893H22.7109L26.6055 0.952148C26.6055 0.952148 26.8413 0.183621 27.8105 0.183594H29.9092ZM26.7295 6.84375H28.873L28.1016 2.9873L26.7295 6.84375ZM2.30859 1.29004C2.42475 1.3545 2.54329 1.42237 2.66309 1.49512C2.54327 1.42244 2.42476 1.35444 2.30859 1.29004ZM2.02441 1.1377C2.07418 1.16336 2.12505 1.18862 2.17578 1.21582C2.12505 1.18864 2.07418 1.16334 2.02441 1.1377ZM1.72754 0.989258C1.77959 1.01406 1.8323 1.03984 1.88574 1.06641C1.8323 1.03985 1.77958 1.01405 1.72754 0.989258ZM0.99707 0.677734C1.19534 0.754147 1.41711 0.844277 1.6543 0.955078C1.41713 0.844321 1.1953 0.754165 0.99707 0.677734ZM0.578125 0.525391C0.641238 0.546347 0.708826 0.569135 0.780273 0.594727C0.708841 0.56912 0.64122 0.546365 0.578125 0.525391ZM0.258789 0.426758C0.306327 0.440339 0.360017 0.455359 0.418945 0.473633C0.36003 0.455336 0.306307 0.440359 0.258789 0.426758Z" fill="#2566AF"/>
<path d="M6.29275 5.60176L5.41249 1.08295C5.41249 1.08295 5.30605 0.178223 4.17151 0.178223H0.048381L0 0.348363C0 0.348363 1.98174 0.759066 3.88257 2.29786C5.70008 3.76865 6.29275 5.60176 6.29275 5.60176Z" fill="#E6A540"/>
</svg>
