<svg width="32" height="20" viewBox="0 0 32 20" fill="none" xmlns="http://www.w3.org/2000/svg">
<path d="M12.2208 9.88305C12.2208 6.73078 13.6976 3.92272 15.9971 2.11309C14.2565 0.74127 12.1036 -0.00326286 9.88688 1.07492e-05C4.42637 1.07492e-05 0 4.42473 0 9.88305C0 15.3414 4.42637 19.7661 9.88688 19.7661C12.1036 19.7694 14.2566 19.0249 15.9973 17.653C13.6979 15.8437 12.2208 13.0355 12.2208 9.88305Z" fill="#EB001B"/>
<path d="M31.9981 9.88305C31.9981 15.3414 27.5717 19.7661 22.1112 19.7661C19.8942 19.7693 17.741 19.0248 16 17.653C18.3002 15.8434 19.7769 13.0355 19.7769 9.88305C19.7769 6.73062 18.3002 3.92272 16 2.11309C17.741 0.741312 19.8941 -0.00320548 22.1111 1.03743e-05C27.5716 1.03743e-05 31.998 4.42473 31.998 9.88305" fill="#F79E1B"/>
</svg>
